<?xml version="1.0" standalone="no"?>
<!DOCTYPE svg PUBLIC "-//W3C//DTD SVG 1.1//EN" "http://www.w3.org/Graphics/SVG/1.1/DTD/svg11.dtd" >
<svg>
<metadata>
Created by FontForge 20090914 at Fri Feb 24 06:25:47 2012
 By root
Copyright (c) 2008-2011, Linus Romer, with Reserved Font Name Miama.

This Font Software is licensed under the SIL Open Font License, Version 1.1.
</metadata>
<defs>
<font id="Miama-Regular" horiz-adv-x="980" >
  <font-face 
    font-family="Miama"
    font-weight="400"
    font-style="italic"
    font-stretch="normal"
    units-per-em="1000"
    panose-1="3 3 5 2 4 7 0 0 0 3"
    ascent="800"
    descent="-200"
    x-height="448"
    cap-height="886"
    bbox="-1026 -1412 1732 1715"
    underline-thickness="48"
    underline-position="-80"
    slope="16.5"
    unicode-range="U+0020-U+FB06"
  />
<missing-glyph horiz-adv-x="364" 
d="M33 0v666h265v-666h-265zM66 33h199v600h-199v-600z" />
    <glyph glyph-name=".notdef" horiz-adv-x="364" 
d="M33 0v666h265v-666h-265zM66 33h199v600h-199v-600z" />
    <glyph glyph-name=".null" horiz-adv-x="0" 
 />
    <glyph glyph-name="nonmarkingreturn" horiz-adv-x="333" 
 />
    <glyph glyph-name="space" unicode=" " horiz-adv-x="420" 
 />
    <glyph glyph-name="exclam" unicode="!" horiz-adv-x="434" 
d="M154 28q0 33 27 62.5t61 29.5t34 -36q0 -30 -29.5 -61t-52.5 -31q-40 0 -40 36zM688 782q-7 2 -12 2q-28 0 -72 -39t-90 -103q-77 -108 -130 -196q-75 -130 -102 -234q-6 -14 -22 -14t-16 14q0 10 38 104t68 148q40 80 104 179t114 153q18 18 64 18q16 0 38 -6t22 -18
q0 -8 -4 -8z" />
    <glyph glyph-name="quotedbl" unicode="&#x22;" horiz-adv-x="480" 
d="M304 544q-12 0 -12 12q0 2 24 48l146 276q2 4 31 16.5t34 15.5q13 6 15 6q6 0 6 -6q0 -2 -17 -24t-69 -99.5t-87.5 -137l-40.5 -68t-8 -13t-6 -10t-5 -8t-4 -4.5q-4 -4 -7 -4zM424 544q-12 0 -12 12q0 2 24 48l146 276q2 4 31 16.5t34 15.5q13 6 15 6q6 0 6 -6
q0 -2 -17 -24t-69 -99.5t-87.5 -137l-40.5 -68t-8 -13t-6 -10t-5 -8t-4 -4.5q-4 -4 -7 -4z" />
    <glyph glyph-name="numbersign" unicode="#" horiz-adv-x="582" 
d="M304 324l146 10l114 214q-44 0 -148 -4zM516 262l-72 -2q-69 -131 -90.5 -179.5t-32.5 -70.5q-17 -36 -26 -37t-18 3.5t-9 11.5q0 26 140 272q-57 0 -142 -10q-107 -209 -134 -270q-1 -3 -14.5 -7.5t-17.5 -4.5q-8 0 -8 9.5t12.5 33.5l52.5 96.5l75 138.5q-68 -8 -106 -8
q-6 0 -6 5.5t7 19.5t23 30.5t44 22.5t80 6l112 220q-74 -6 -94 -10q-10 0 -10 6q0 53 136 66q152 292 168 294q7 0 17.5 -4.5t10.5 -9t-3.5 -9l-14.5 -19.5q-12 -14 -28 -40q-49 -76 -120 -210q27 2 81 6.5t71 5.5q26 52 91.5 173t74.5 121q5 0 16.5 -2.5t11.5 -6t-4 -11.5
q-81 -116 -162 -272q72 6 120 6q14 0 14 -8q0 -4 -9.5 -12.5t-12 -13t-8.5 -12.5t-9 -12.5t-7 -9.5q-8 -10 -14 -10h-112l-112 -212q80 4 101 4t21 -8q0 -3 -5 -11.5t-7 -12.5q-15 -46 -72 -46z" />
    <glyph glyph-name="dollar" unicode="$" horiz-adv-x="760" 
d="M534 424l-212 -412q32 -4 42 -4q115 0 187.5 73t72.5 147q0 49 -23.5 94.5t-66.5 101.5zM558 536l158 304q-10 2 -34 2q-90 0 -142 -49.5t-52 -109t70 -147.5zM822 1034q16 -2 20 -2t4 -4t-74 -144q70 -8 110 -60q18 -23 18 -30.5t-7 -13.5q-11 -9 -33.5 -24.5t-26 -15.5
t-3.5 6q0 26 -24 50t-62 36l-166 -320q76 -89 102 -134.5t26 -91.5q0 -79 -65 -154.5t-159 -120t-182 -45.5l-104 -192q-6 -12 -30 -28t-31 -16t-7 4l134 234q-94 10 -140 61t-46 107q0 6 19 25t33.5 36.5l22 27t9.5 9.5q6 0 6 -4l-9 -14q-9 -14 -9 -26q0 -71 40 -112.5
t100 -59.5l224 432l-47 63.5t-31.5 58t-15.5 66.5q0 65 53 123.5t127 91t142 33.5q77 148 82 148z" />
    <glyph glyph-name="percent" unicode="%" horiz-adv-x="886" 
d="M403.5 793q-43.5 -57 -43.5 -112t36.5 -89t89.5 -34q73 0 115.5 56.5t42.5 112t-36 89.5t-88 34q-73 0 -116.5 -57zM304 650q0 90 87 163t175 73q58 0 96 -36t38 -92q0 -90 -87 -163t-175 -73q-58 0 -96 36t-38 92zM270 226q-28 -15 -34.5 -15t-6.5 3q0 13 25 28l670 412
q22 14 31.5 14t9.5 -4q0 -11 -25 -26zM567.5 247q-43.5 -57 -43.5 -112t36.5 -89t89.5 -34q73 0 115.5 56.5t42.5 112t-36 89.5t-88 34q-73 0 -116.5 -57zM468 104q0 90 87 163t175 73q58 0 96 -36t38 -92q0 -90 -87 -163t-175 -73q-58 0 -96 36t-38 92z" />
    <glyph glyph-name="ampersand" unicode="&#x26;" horiz-adv-x="1016" 
d="M502 566q46 -60 86 -60q28 0 28 26q0 34 -114 34zM638 590.5q28 -15.5 28 -43t-27.5 -44.5t-63 -17t-68 22t-49.5 54q-63 -10 -110.5 -40.5t-73.5 -72.5q-50 -83 -50 -169q0 -117 87 -191.5t204 -74.5t192.5 81t94.5 191q-19 12 -59 41.5t-67 43t-50 13.5t-37.5 -16.5
t-14.5 -37.5t23 -41.5t23 -22.5q0 -6 -28 -6h-8q-66 0 -66 62q0 30 35 51t84 21t108.5 -24.5t103.5 -54.5t95.5 -54.5t84.5 -24.5q37 0 71 40q6 6 8.5 10t5 4t2.5 -5t-20 -25q-46 -52 -82 -52q-69 0 -158 48q-14 -41 -51 -89t-90 -93t-126 -74.5t-147 -29.5
q-114 0 -202 75.5t-88 197t87 212.5t209 131q-8 21 -8 58q0 73 42.5 130t99 83.5t115 26.5t114 -27t55.5 -67q0 -7 -8 -18t-18.5 -30.5t-14 -19.5t-3.5 4q0 48 -54.5 83t-107.5 35q-88 0 -141 -50t-53 -128q0 -35 16 -70q57 10 92.5 10t63.5 -15.5z" />
    <glyph glyph-name="quotesingle" unicode="'" horiz-adv-x="360" 
d="M304 544q-12 0 -12 12q0 2 24 48l146 276q2 4 31 16.5t34 15.5q13 6 15 6q6 0 6 -6q0 -2 -17 -24t-69 -99.5t-87.5 -137l-40.5 -68t-8 -13t-6 -10t-5 -8t-4 -4.5q-4 -4 -7 -4z" />
    <glyph glyph-name="parenleft" unicode="(" horiz-adv-x="482" 
d="M326 -138q-144 58 -144 238q0 135 91 317q50 100 123.5 197.5t191.5 199.5t262 182q36 18 42 18t6 -5.5t-14 -12.5q-139 -82 -251.5 -188.5t-181.5 -208t-115 -206.5q-84 -189 -84 -329q0 -108 42 -154q16 -16 20 -18q20 -11 22 -14q12 -7 12 -13.5t-7 -6.5t-15 4z" />
    <glyph glyph-name="parenright" unicode=")" horiz-adv-x="484" 
d="M500 1010q144 -58 144 -238q0 -135 -91 -317q-50 -100 -123.5 -197.5t-191.5 -199.5t-262 -182q-36 -18 -42 -18t-6 5.5t14 12.5q139 82 251.5 188.5t181.5 208t115 206.5q84 189 84 329q0 108 -42 154q-16 16 -20 18q-20 11 -22 14q-12 7 -12 13.5t7 6.5t15 -4z" />
    <glyph glyph-name="asterisk" unicode="*" horiz-adv-x="430" 
d="M318 586l2 60q-36 2 -45 2t-9 -6q0 -17 52 -56zM330 580q21 -17 42 -30q36 48 64 94l-106 2v-66zM450 624q-30 -48 -52 -92q37 -26 74 -44t46 -18q6 0 6 11.5t-12.5 36.5t-33.5 58.5t-28 47.5zM426 680l-23 39.5l-20.5 35l-15.5 25.5q-15 24 -21.5 24t-11.5 -118z
M230.5 683q14.5 11 35 11t56.5 -6q2 29 3 62t3 52t4 30l8 23q9 21 28 21q10 0 22 -22q13 -20 22 -38q30 -58 60 -110q22 37 44.5 81.5t32.5 61.5t17.5 17t15.5 -15t8 -21t-2 -8q-35 -46 -96 -142h186q12 0 12 -8t-9.5 -19t-18.5 -11l-40 2h-118q68 -116 94 -154q2 -4 2 -11
t-10 -16t-20 -13l-10 -4q-45 0 -168 74q-6 -8 -14 -26q-19 -39 -26 -38.5t-14.5 4.5t-15.5 21.5t-8 46.5l2 42q-40 26 -70 53t-30 38t14.5 22zM364 540q-4 3 -17 11t-17 11q0 -48 8 -48q10 0 26 26z" />
    <glyph glyph-name="plus" unicode="+" horiz-adv-x="672" 
d="M402 298q-108 -8 -192 -51.5t-84 -104.5q0 -22 15.5 -38t40.5 -16q57 0 118.5 67.5t101.5 142.5zM722 354q0 -9 -29.5 -28.5t-36.5 -19.5q-104 0 -188 -4q-35 -69 -77.5 -117.5t-82.5 -70.5q-101 -39 -124 -38h-2q-32 0 -51 18.5t-19 41.5q0 67 77 128t233 76
q52 113 52 156q0 20 -15 35t-48 15t-67.5 -13.5t-54 -27t-22.5 -13.5t-3 4q0 7 27.5 26t80.5 38.5t106 19.5q22 0 44 -15.5t22 -42.5q0 -70 -54 -178q135 9 230 12q2 0 2 -2z" />
    <glyph glyph-name="comma" unicode="," horiz-adv-x="320" 
d="M160 84q40 0 40 -88q-1 -44 -33.5 -94.5t-73.5 -86t-74.5 -59.5t-40 -24t-6.5 2v4q0 1 3 4t5 4t5 3.5t6.5 5l8.5 6t10 7.5q116 87 116 176q0 32 -11 67.5t-11 38.5q0 10 23.5 22t32.5 12z" />
    <glyph glyph-name="hyphen" unicode="-" horiz-adv-x="536" 
d="M200 354l280 -4l92 2q4 0 4 -1.5t-6 -15.5t-8 -22q-4 -15 -8 -15t-91.5 4t-144.5 4l-146 -4q-4 0 -4 2t2.5 5.5t7 9t6.5 9.5q3 4 6 12q5 14 10 14z" />
    <glyph glyph-name="period" unicode="." horiz-adv-x="320" 
d="M112 28q0 33 27 62.5t61 29.5t34 -36q0 -30 -29.5 -61t-52.5 -31q-40 0 -40 36z" />
    <glyph glyph-name="slash" unicode="/" horiz-adv-x="522" 
d="M692 1056q4 7 25 18.5t29 11.5l2 -2l-522 -977l-80 -147q-3 -6 -25 -18t-27 -12l-2 2q0 3 6 12z" />
    <glyph glyph-name="zero" unicode="0" horiz-adv-x="726" 
d="M281.5 389q-45.5 -115 -45.5 -194t28.5 -126t79.5 -47q69 0 152.5 66t152 162t115 210.5t46.5 205.5q0 43 -9 79t-37.5 65.5t-73.5 29.5q-66 0 -148 -69t-148.5 -168t-112 -214zM610.5 843.5q82.5 42.5 149.5 42.5t96.5 -53t29.5 -138.5t-55 -213t-140 -239t-198.5 -189
t-218.5 -77.5q-126 0 -126 176q0 100 42 208.5t110 200t148 166t162.5 117z" />
    <glyph glyph-name="one" unicode="1" horiz-adv-x="540" 
d="M616 674q-263 -230 -468 -348q-23 -14 -34 -14t-11 1q0 3 17 13q164 98 346 248l48 41q103 86 128 111q7 8 32.5 60t49.5 66q64 34 78 34t14 -17.5t-24 -51t-64 -67.5q-234 -416 -362 -698l-11.5 -28.5t-10.5 -23.5q-6 -12 -16 -14q-62 -7 -92 -26q-10 -6 -14 -6
q-10 0 -10 8q0 3 14 25q54 88 93.5 159.5l142.5 253.5z" />
    <glyph glyph-name="two" unicode="2" horiz-adv-x="650" 
d="M624 886q75 0 120.5 -40t45.5 -102q0 -36 -14.5 -73t-56.5 -84.5t-75 -80.5q-34 -34 -116 -100l-228 -175l-172 -129q14 4 26 4q48 0 100 -20t92 -46q118 -76 192 -96q43 -12 111.5 -12t128.5 28q15 8 15 5q0 -7 -51 -33q-106 -48 -198 -48q-48 0 -87 11.5t-92.5 40.5
t-92.5 55t-90 46.5t-98 20.5q-4 0 -20 -4q-78 -62 -93.5 -73t-26 -11t-10.5 5.5t34 34.5l94.5 78l98 81.5l130.5 109.5l150 127t123 114q130 128 130 212q0 48 -33 84t-81 36q-32 0 -80.5 -15.5t-87.5 -54.5q-20 -20 -22 -20q-6 0 -6 6t22 28q87 90 218 90z" />
    <glyph glyph-name="three" unicode="3" horiz-adv-x="620" 
d="M100 156q-20 -22 -20 -32.5t8 -21.5t26 -25t42 -26q57 -29 134 -29q119 0 211.5 90.5t92.5 199.5q0 72 -48.5 116t-125.5 44q-20 0 -37 -6t-24 -6t-7 7t26.5 22t48 20t85.5 31.5t98 47.5q100 57 100 150q0 110 -128 110q-59 0 -94 -38q-12 -12 -34 -24t-31 -12t-9 4
q0 6 32.5 33.5t91 56t107 28.5t78 -11t43.5 -29q24 -34 24 -74q0 -113 -170 -212q-52 -28 -104 -52q71 -6 113.5 -55.5t42.5 -114.5t-46.5 -137t-115.5 -123t-147 -82.5t-152 -31.5t-137.5 33t-63.5 71q0 12 8 20l34 28q41 36 42 36q6 0 6 -6z" />
    <glyph glyph-name="four" unicode="4" horiz-adv-x="676" 
d="M850 516l4 -2q0 -4 -21.5 -18t-30.5 -18q-88 -32 -150 -44q-168 -312 -210 -420q-7 -19 -12 -23t-10 -5q-61 -7 -87 -26q-8 -6 -11 -6q-10 0 -10 8q0 2 14 24q65 104 84 140l166 294q-125 -20 -254 -20q-31 0 -59 3t-57.5 18t-29.5 41t17.5 54t53.5 60t70 58.5l88 67
l87 66.5q57 50 84 86q5 6 38 22t42 16l2 -2q0 -15 -150 -140l-75 -59l-85 -67.5t-60 -60t-28 -57.5q0 -35 53 -49.5t122.5 -14.5t160.5 14l180 316l9.5 16.5t8.5 14.5l6.5 10t7.5 9q13 11 22 17q10 5 28 19q37 28 46.5 28t9.5 -4q0 -6 -7 -13l-17 -17q-10 -10 -18 -22
q-46 -72 -202 -360q55 11 116 28.5t64 17.5z" />
    <glyph glyph-name="five" unicode="5" horiz-adv-x="620" 
d="M64 -28q-66 26 -66 78q0 30 20 54.5t59 54t48 38.5t13 9l4 -2q0 -5 -10.5 -14l-22.5 -19t-22.5 -30.5t-10.5 -50.5t35.5 -59t112.5 -29q150 0 263 89t113 219q0 77 -49 124.5t-131 47.5q-68 0 -136 -38q-14 -8 -22 -8t-8 8q0 1 32.5 46.5t85.5 141.5t94 204
q5 13 10.5 17.5t17.5 4.5t21 -4l21 -9q31 -13 157 -13t211 34q6 2 9 8t5 6q6 0 6 -6q0 -3 -9.5 -15.5t-32.5 -30t-52 -26.5q-108 -34 -234 -34q-22 0 -112 10q-59 -147 -152 -288q95 40 154.5 40t98 -18t57.5 -48q36 -56 36 -125t-50 -142.5t-127 -125t-169.5 -82.5
t-162.5 -31t-105 14z" />
    <glyph glyph-name="six" unicode="6" horiz-adv-x="628" 
d="M602 288q0 110 -138 110t-306 -198q-10 -35 -10 -82.5t33 -79.5t81 -32q125 0 232.5 93t107.5 189zM393 411.5q76 34.5 142.5 34.5t106.5 -25t40 -85t-43 -126t-111 -121.5t-160 -93t-180 -37.5q-46 0 -83 34t-37 84q0 105 83.5 233t213 241t290 208t311.5 142q4 2 9 2
t5 -2q0 -7 -26.5 -31.5t-43.5 -30.5q-220 -73 -430 -233t-292 -329q36 34 82.5 67.5t122.5 68z" />
    <glyph glyph-name="seven" unicode="7" horiz-adv-x="620" 
d="M446 376l-168 -14q-12 0 -12 4.5t12.5 21t23.5 16.5h170l384 388q-120 -30 -269 -30t-199 13.5t-50 28.5q0 7 10.5 22.5t24 40.5t17.5 25t4 -4q0 -32 84.5 -46t149 -14t173 11t133.5 30t28 19q8 0 8 -11t-92 -99q-226 -217 -362 -374h178q8 0 8 -6q0 -18 -208 -18
q-140 -165 -286 -384q-7 -9 -23 -13t-25.5 -7.5t-28.5 -18.5t-25 -15q-10 0 -10 7.5t12 24.5q196 252 338 402z" />
    <glyph glyph-name="eight" unicode="8" horiz-adv-x="660" 
d="M484 482q-340 -168 -340 -330q0 -48 39.5 -86t136.5 -38q137 0 225.5 74t88.5 154q0 36 -16 70.5t-34 54.5t-51.5 52t-48.5 49zM678 644l20 -4q26 0 58 46t32 83t-21 61t-71 24q-75 0 -144.5 -61.5t-69.5 -126.5q0 -38 16 -66t48 -58q32 9 109.5 42.5t82 33.5t4.5 -2
q0 -8 -182 -88l31 -30.5t39 -40.5q14 -15 32 -40q36 -49 36 -101q0 -70 -59 -149t-160 -135t-202.5 -56t-161 44t-59.5 112q0 64 42 127q28 42 108 100q46 34 102 62l102 50l60 29q-2 3 -11.5 14t-13.5 17l-11.5 18t-11.5 22q-10 25 -10 53q0 50 38 99.5t92.5 84.5
t112.5 56.5t106 21.5t81.5 -23t33.5 -61q0 -64 -68 -120t-128 -56q-14 0 -14 10q0 8 12 8z" />
    <glyph glyph-name="nine" unicode="9" horiz-adv-x="634" 
d="M254 266l-18 2q-32 0 -57 -43.5t-25 -96t38 -86.5t102 -34q37 0 69.5 12t65.5 47t56 63t59 98q43 81 88.5 177.5t51.5 108.5q-88 -44 -167.5 -44t-128 30t-48.5 96q0 47 29.5 98t78.5 93.5t121 70.5t149 28q50 0 92 -31t42 -91q0 -66 -76 -208l-53 -102t-86.5 -154.5
t-101 -150.5t-83.5 -94t-75.5 -52.5t-65.5 -21.5t-65 -5q-74 0 -123 40.5t-49 103.5q0 123 96 138q17 3 42.5 12.5t36.5 9.5t11 -7t-6 -7zM644 852q-87 0 -158.5 -70t-71.5 -162q0 -58 40.5 -88t87.5 -30q100 0 156 48q40 91 51 131t11 70.5t-31.5 65.5t-84.5 35z" />
    <glyph glyph-name="colon" unicode=":" horiz-adv-x="404" 
d="M112 28q0 33 27 62.5t61 29.5t34 -36q0 -30 -29.5 -61t-52.5 -31q-40 0 -40 36zM286 360q0 33 27 62.5t61 29.5t34 -36q0 -30 -29.5 -61t-52.5 -31q-40 0 -40 36z" />
    <glyph glyph-name="semicolon" unicode=";" horiz-adv-x="454" 
d="M160 84q40 0 40 -88q-1 -44 -33.5 -94.5t-73.5 -86t-74.5 -59.5t-40 -24t-6.5 2v4q0 1 3 4t5 4t5 3.5t6.5 5l8.5 6t10 7.5q116 87 116 176q0 32 -11 67.5t-11 38.5q0 10 23.5 22t32.5 12zM208 312q0 33 27 62.5t61 29.5t34 -36q0 -30 -29.5 -61t-52.5 -31q-40 0 -40 36z
" />
    <glyph glyph-name="less" unicode="&#x3c;" horiz-adv-x="490" 
d="M552.5 601.5q-5.5 -5.5 -142 -113.5t-155.5 -126t-19 -32t67 -121t67 -113t-5 -8.5t-13 -5t-22 -9.5t-21 -7t-70 107.5t-63 131t30 47.5q51 34 196 150t150.5 116t5.5 -5.5t-5.5 -11z" />
    <glyph glyph-name="equal" unicode="=" horiz-adv-x="806" 
d="M270 452l362 -8l180 4q4 0 4 -2t-1 -4t-4 -7t-5 -11q-2 -4 -4 -12q-4 -14 -8 -14l-376 8l-176 -4q-4 0 -4 2t2.5 5l7 8t6.5 9q3 4 6 12q5 14 10 14zM216 334l362 -8l180 4q4 0 4 -2t-1 -4t-4 -7t-5 -11q-2 -4 -4 -12q-4 -14 -8 -14l-376 8l-176 -4q-4 0 -4 2t2.5 5l7 8
t6.5 9q3 4 6 12q5 14 10 14z" />
    <glyph glyph-name="greater" unicode="&#x3e;" horiz-adv-x="490" 
d="M109.5 82.5q5.5 5.5 142 113.5t155.5 126t19 32t-67 121t-67 113t5 8.5t13 5t22 9.5t21 7t70 -107.5t63 -131t-30 -47.5q-51 -34 -196 -150t-150.5 -116t-5.5 5.5t5.5 11z" />
    <glyph glyph-name="question" unicode="?" horiz-adv-x="518" 
d="M124 28q0 33 27 62.5t61 29.5t34 -36q0 -30 -29.5 -61t-52.5 -31q-40 0 -40 36zM622 808q-34 30 -78 30t-86 -21t-69 -42q-29 -21 -35 -21t-6 4t6 10q64 54 124 86t124 32t98 -32t34 -88q0 -72 -86 -131q-36 -25 -86 -50q-153 -77 -198 -122q-46 -44 -46 -89
q0 -32 56 -100q18 -22 18 -26t-7 -8t-21 -8l-18 -4q-24 -8 -34 -8t-38 47q-26 46 -26 77q0 32 22 65q20 33 60 63q82 62 194 116q100 50 122 96q10 22 10 50q0 44 -34 74z" />
    <glyph glyph-name="at" unicode="@" horiz-adv-x="926" 
d="M600 288q35 115 126 222q-16 48 -70 48q-72 0 -142 -89.5t-70 -168.5q0 -22 10.5 -42t31.5 -20q37 0 114 50zM712 230q47 0 88 22t69 56.5t48 75.5q39 80 39 146q0 102 -81.5 163t-187.5 61t-199.5 -42t-152 -111.5t-90 -154.5t-31.5 -174q0 -113 75 -187.5t175 -74.5
q247 0 388 130q11 9 29 18.5t24.5 9.5t6.5 -2q-22 -25 -74.5 -63.5t-104 -64.5t-134 -47t-169.5 -21q-116 0 -199 78.5t-83 182t35.5 192.5t96 155t138.5 116q157 100 334 100q64 0 124 -25t103 -79t43 -132.5t-50 -166t-134 -144.5t-174 -57q-31 0 -51.5 17t-20.5 43
q0 2 1 7t1 7q-81 -56 -144 -56q-34 0 -57 24t-23 60q0 98 90 186t178.5 88t103.5 -42q14 14 32 20q20 10 40 10q6 0 6 -4t-14 -18q-46 -46 -93 -125t-47 -137q0 -17 13.5 -28.5t32.5 -11.5z" />
    <glyph glyph-name="A" unicode="A" 
d="M404 342h34q40 0 117 -12t106 -12t45 2q14 114 37 216l35 153t20 81.5t8 34t-2 3.5q-8 0 -28 -28zM372 306q-192 -219 -270 -284q-29 -22 -86 -28q-3 0 -22.5 -4t-31.5 -4t-12 8q0 10 16 14q38 13 64 36q151 132 315 297.5t401 442.5l26.5 30.5t21.5 22.5l16 14.5
t15.5 10.5t13.5 8q13 6 26.5 10.5t31 13t24.5 8.5t7 -8v-2q0 -11 -11 -35.5t-11 -26.5q-28 -76 -62.5 -222t-51.5 -276q68 17 124 62q18 14 22 14t4 -5.5t-22 -23t-59.5 -37.5t-70.5 -28q-10 -87 -10 -136q0 -152 64 -152q37 0 95.5 35.5t118 87.5t90.5 99q4 6 8 6t4 -3
t-2 -7q-54 -72 -107.5 -119t-127 -90t-134.5 -43t-79 37.5t-18 117t10 149.5q-90 -10 -125.5 -10t-101.5 11t-81.5 11t-21.5 -2z" />
    <glyph glyph-name="B" unicode="B" horiz-adv-x="900" 
d="M342 158l-6 -12q0 -56 49 -101t117 -45q43 0 95.5 26.5t100.5 72.5t80 118t32 153q-2 46 -28.5 76t-72 30t-85.5 -17t-47.5 -17t-12 7.5t-8.5 11t-4 8.5t11.5 8t29 5t23.5 4q77 26 147.5 110t70.5 166q0 37 -27 58.5t-65.5 21.5t-79.5 -26q-41 -28 -96 -90
q-113 -128 -282 -468q-102 -207 -158 -368q-4 -11 -21.5 -15.5t-38.5 -12.5t-22 -8q-8 0 -8 8.5t86.5 175l115.5 222.5q156 303 297.5 464.5t276.5 161.5q46 0 80 -21.5t34 -68.5q0 -99 -86.5 -190t-179.5 -120q60 6 76 6q72 0 118 -35t46 -117q0 -120 -158 -254
q-130 -110 -294 -110q-75 0 -128.5 46t-53.5 102q0 5 17.5 10.5t25.5 10t15 9t9.5 6.5t5.5 2t3 -4z" />
    <glyph glyph-name="C" unicode="C" horiz-adv-x="860" 
d="M971.5 777q-20.5 -21 -26.5 -31t-11.5 -10t-5.5 8q0 34 -46 66t-98 32q-100 0 -192 -54q-141 -92 -238.5 -242.5t-97.5 -317.5q0 -92 57 -156t143 -64q144 0 224.5 58.5t109.5 149.5q7 24 12 24q10 0 21 -17.5t11 -29.5t-16 -37t-51 -56t-81.5 -58.5t-116.5 -46.5
t-147 -19q-113 0 -187.5 73.5t-74.5 184.5q0 156 121.5 316.5t296.5 259.5q132 76 270 76q79 0 123 -46q21 -22 21 -32t-20.5 -31z" />
    <glyph glyph-name="D" unicode="D" horiz-adv-x="1194" 
d="M480 186q-53 74 -76 92t-44 18q-59 0 -116.5 -73.5t-57.5 -132.5q0 -64 80 -64q42 0 100.5 39.5t113.5 120.5zM558 240q10 -18 28 -57t32 -64.5t36 -54.5q45 -58 127.5 -58t157.5 47t124.5 121.5t78 164.5t28.5 177q0 284 -266 338q-83 -165 -184.5 -347.5t-161.5 -266.5
zM392 614q0 -12 6 -28q0 -4 -7 -4t-19 12t-20 18q-16 12 -16 24q0 69 68.5 128t166.5 90.5t195 31.5q44 0 64 -2q10 23 10 44q0 42 -23.5 60t-65 18t-73 -13t-51 -26t-21.5 -13q-6 0 -6 6q0 4 22 20t65 33t81.5 17t68.5 -7.5t56.5 -32t26.5 -64.5q0 -22 -10 -52
q346 -57 346 -406q0 -94 -38 -184t-102 -156.5t-152.5 -107t-183.5 -40.5q-70 0 -132 28q-22 10 -49.5 36.5t-42 43.5t-34 42.5t-24.5 31.5q-53 -60 -95 -95.5t-92.5 -59t-87.5 -23.5t-65 18t-28 56t31 90.5t75 97t97.5 75.5t94.5 31q52 0 106 -76q90 159 169 323.5
t119 266.5q-20 2 -62 2q-82 0 -168 -36.5t-143 -96.5t-57 -121z" />
    <glyph glyph-name="E" unicode="E" horiz-adv-x="834" 
d="M778 250l-4 26q0 6 4 6l24 -16q2 -1 4.5 -3.5t4 -3.5t3.5 -3q1 0 2 -2q2 -3 2 -10q0 -30 -26.5 -73.5t-73 -88t-123.5 -75.5t-171 -31t-180 60t-86 154q0 68 29.5 126t73.5 93.5t96 64t96 42.5q103 34 103 38q0 8 -12 16q-60 41 -60 112.5t80.5 137.5t217.5 66
q49 0 104 -12q108 -25 108 -68q0 -12 -11 -29.5t-18 -32t-11 -14.5t-8 12q-12 41 -61.5 80.5t-119 39.5t-113.5 -14q-45 -12 -65 -34q-35 -38 -35 -76.5t21.5 -78.5t54.5 -59q40 -19 40 -24q0 -17 -8 -27t-34 -13q-88 -10 -155 -36t-106.5 -58.5t-64.5 -74.5
q-42 -71 -42 -163q0 -50 21 -88t55 -58q94 -37 140 -40q139 0 221.5 71t82.5 161z" />
    <glyph glyph-name="F" unicode="F" horiz-adv-x="768" 
d="M726 830q-48 -131 -184 -386l190 8q4 0 4 -2q0 -5 -16 -18q-17 -12 -24 -16q-23 -12 -176 -12l-143 -256.5t-91 -149.5q-16 -20 -32 -20q-48 -6 -98 -6h-8q-6 0 -6 6q0 2 7 4q27 10 43 34q113 157 242 386q-130 0 -175 -20q-9 -4 -12 -4t-3 2q0 16 70 46q10 4 47.5 10
t94.5 6q137 253 184 386q-28 0 -94.5 -3.5t-117 -11.5t-74 -16.5t-37 -16.5t-18.5 -13t-7 -5q-6 0 -6 6t22 28q42 42 118 56.5t228 17.5q14 45 14 78q0 118 -98 118q-28 0 -44.5 -6l-24.5 -9t-16.5 -9.5l-12.5 -9.5q-2 -2 -10 -9l-8 -7q-14 -14 -16 -14q-6 0 -6 4t16 20
q64 60 138 60q166 0 166 -148q0 -34 -10 -66q175 3 334 22q28 4 46 4h8q12 0 12 -3.5t-6 -6.5q-49 -33 -145 -43.5t-265 -14.5z" />
    <glyph glyph-name="G" unicode="G" horiz-adv-x="1110" 
d="M734 -88q-247 -43 -347.5 -83t-170.5 -112t-98 -149.5t-28 -163.5q0 -194 134 -194q149 0 246 170q111 191 264 532zM1044 724l2 34q0 40 -29 74t-81 34q-87 0 -224 -78.5t-244 -185.5q-87 -85 -152 -209t-66 -223q0 -77 37.5 -122.5t104.5 -45.5q66 0 172 54
q174 90 340 244q35 35 114.5 173t135.5 263q14 34 24.5 34t42 -18t31.5 -34q0 -33 -37 -100t-87 -124q-41 -48 -65 -92.5l-47.5 -90.5t-29.5 -57l-158 -304q192 55 352 192q67 59 98 106q4 6 8 6t4 -3t-2 -7q-54 -72 -107.5 -119t-124.5 -89q-128 -74 -240 -106l-81 -170.5
t-123 -239.5q-84 -134 -117 -170.5t-65 -66.5t-62 -48q-73 -43 -146 -43q-94 0 -151 68t-57 172q1 77 37 148q35 71 95 124q121 108 268 156q90 30 328 72q68 142 170 330q-71 -59 -151 -116t-192.5 -112.5t-193.5 -55.5t-146 52.5t-65 149.5q0 76 34 163q96 244 397 426
q191 115 365 115q39 0 90.5 -18.5t51.5 -51.5q0 -7 -10 -23t-14 -24.5t-8 -22.5q-9 -26 -14 -26q-12 0 -12 6z" />
    <glyph glyph-name="H" unicode="H" horiz-adv-x="1044" 
d="M984 36q-104 -60 -200 -60q-60 0 -83 28.5t-23 67.5q0 74 136 334q-196 -38 -358 -38q-43 0 -76 6q-147 -274 -188 -364q-7 -12 -35.5 -15t-40 -5.5t-18 -6t-11.5 -3.5t-5 5t66 121l174 304q-8 16 -8 30t14.5 23t27.5 9q140 249 140 310q0 30 -19 53t-62 23t-80.5 -16.5
t-80.5 -59.5q-5 -5 -10 -11q-9 -11 -12 -11q-6 0 -6 7t22 29q87 90 206 90q60 0 90 -28t30 -72q0 -28 -13 -60t-23 -53.5t-18 -37l-22.5 -43l-24.5 -45.5l-57 -105q76 -38 179 -38t233 28l226 410q8 12 18 15t24.5 6t22.5 5t27 10t27.5 8t8.5 -6q0 -12 -35 -55l-17 -21
q-78 -117 -208 -350q56 13 68.5 18.5t15.5 5.5q6 0 6 -6.5t-5.5 -12t-18 -10t-22 -7.5t-29 -7.5t-27.5 -6.5q-132 -259 -132 -326q0 -78 78 -78q80 0 148 42l25 16q32 20 83 60q40 34 100 106q4 6 8 6t4 -3t-2 -7q-53 -71 -104 -114.5t-134 -93.5z" />
    <glyph glyph-name="I" unicode="I" horiz-adv-x="690" 
d="M564 796q38 55 38 86.5t-22 49.5t-63 18t-81 -23.5t-40 -72.5q0 -23 12 -31t20 -12.5t22.5 -7t25 -4t28.5 -2.5q20 -1 30 -1h30zM166 230q-20 -24 -20 -73.5t42.5 -100t95 -50.5t96 50.5t90.5 151.5q161 338 350 602q-33 -10 -116.5 -21t-127.5 -13q-26 -33 -90 -95.5
t-116 -106.5q-16 -16 -22 -16t-6 4q0 7 23 25.5t88 85t95 103.5q-208 0 -208 68q0 38 43.5 69.5t94 46t86.5 14.5q84 0 84 -56q0 -33 -56 -120q136 7 220 38q18 7 61.5 13.5t58 6.5t14.5 -6q0 -2 -12.5 -10.5t-15.5 -13.5q-108 -155 -181.5 -282.5t-168.5 -319.5
q-116 -236 -326 -236q-64 0 -115 40.5t-51 107.5q0 6 19 25t33.5 36.5l22 27t9.5 9.5q6 0 6 -4z" />
    <glyph glyph-name="J" unicode="J" horiz-adv-x="704" 
d="M352 -58q-152 -37 -230 -76q-201 -104 -289 -217.5t-89 -290.5q0 -83 27.5 -130.5t81.5 -47.5t99.5 37t93.5 107q64 96 122 208q60 112 88 178q66 154 96 232zM806 836q18 7 61.5 13.5t58 6.5t14.5 -6q0 -3 -4 -6l-12 -8q-24 -16 -114 -146q-19 -28 -45 -73l-37.5 -65
t-40 -77.5l-36 -73.5l-41.5 -88l-42 -89l-110 -234q124 30 184.5 61.5t131.5 90.5q67 59 98 106q4 6 8 6t4 -3t-2 -7q-56 -74 -109 -121.5t-125.5 -86.5t-203.5 -72q-207 -429 -352 -632q-129 -180 -274 -180q-72 0 -112 53t-40 159q0 139 106 279q53 70 142 136t196 113.5
t254 77.5q52 130 106 238q135 286 252 462l92 140q-33 -10 -116.5 -21t-127.5 -13q-26 -33 -90 -95.5t-116 -106.5q-16 -16 -22 -16t-6 4q0 7 23 25.5t88 85t95 103.5q-208 0 -208 68q0 38 43.5 69.5t94 46t86.5 14.5q84 0 84 -56q0 -33 -56 -120q136 7 220 38zM558 796
q38 55 38 86.5t-22 49.5t-63 18t-81 -23.5t-40 -72.5q0 -23 12 -31t20 -12.5t22.5 -7t25 -4t28.5 -2.5q20 -1 30 -1h30z" />
    <glyph glyph-name="K" unicode="K" horiz-adv-x="814" 
d="M370 448l26 46q-31 -8 -46 -16q7 -13 20 -30zM248 450l-20 -4q-8 0 -8 8.5t194 73.5q86 157 86 230q0 100 -82 100q-46 0 -83.5 -16.5t-80.5 -59.5q-5 -5 -10 -11q-9 -11 -12 -11q-6 0 -6 7t22 29q87 90 206 90q60 0 94 -28.5t34 -71.5q0 -72 -76 -220
q138 62 297.5 142.5t212.5 119.5q19 14 50.5 31t38.5 17t7 -4q0 -7 -35 -37.5t-99.5 -72.5t-129.5 -68l-358 -160l-82 -150l46 -78l46 -80q51 -85 118.5 -188t106.5 -143q76 -79 165.5 -79t183.5 72q4 4 7 4t3 -2q0 -29 -72.5 -62.5t-145.5 -33.5q-113 0 -179.5 43.5
t-142.5 158.5q-99 152 -182 304q-113 -201 -190 -302q-8 -8 -14 -12q-20 -14 -116 -14q-14 0 -14 6q0 2 6 5q28 13 46 33q116 133 244 352q-16 27 -40 54.5t-36 27.5z" />
    <glyph glyph-name="L" unicode="L" horiz-adv-x="768" 
d="M482 782q-5 -5 -10 -11q-9 -11 -12 -11q-6 0 -6 7t22 29q86 90 182 90q39 0 69.5 -20.5t30.5 -69.5q0 -79 -111.5 -283.5t-194.5 -318.5q58 -174 230.5 -311t343.5 -137q117 0 192 72q8 8 15.5 18.5t12 16t8.5 5.5t4 -6q0 -17 -28 -50q-90 -106 -260 -106q-124 0 -246 58
q-68 32 -126 81.5t-109 127.5t-81 175q-56 -68 -122.5 -115t-129 -47t-62.5 40q0 46 49.5 117t115.5 124t109 53q38 0 68 -72q118 186 181 335t63 203q0 72 -52 72q-80 0 -146 -66zM396 178q-9 33 -26 55.5t-36 22.5q-56 0 -118 -69.5t-62 -130.5q0 -16 10 -27t28 -11
q56 0 103 42t101 118z" />
    <glyph glyph-name="M" unicode="M" horiz-adv-x="1170" 
d="M536 706q46 47 75 74t77 55.5t88 28.5q116 0 116 -144q99 91 185 135.5t135 44.5t82.5 -23.5t33.5 -65.5t-33.5 -103t-81 -130.5t-95 -149t-81 -184t-33.5 -195.5t19 -149t51 -90q64 -64 152 -64q115 0 204 110q6 7 10.5 14l6.5 10q1 2 3 4q2 3 6 3.5t4 -9t-21 -39.5
t-54.5 -62t-86 -55.5t-106.5 -23.5q-118 0 -194 76t-76 214q0 99 32.5 199.5t79 179.5l92.5 150q112 170 112 255q0 41 -27.5 60.5t-60.5 19.5h-6q-47 -2 -105.5 -42t-158.5 -140q-20 -48 -32 -65t-47 -36t-46 -19t-11 4q0 18 60 78q8 21 8 58.5t-9 65t-25 39.5
q-27 21 -59.5 21t-103.5 -67t-123 -141q-81 -132 -190 -350q-131 -262 -147 -274q-17 -12 -113 -12q-14 0 -14 6q0 2 7 4q28 10 42 29t26 37l21 32.5t23.5 40.5l21.5 38.5l24 45l34 64l68 124l73 131.5l48 96q48 98 48 144t-19 66t-49 20q-74 0 -142 -68q-20 -20 -22 -20
q-6 0 -6 6t22 28q44 46 97 68t89 22q59 0 87.5 -28t28.5 -70.5t-14 -81.5z" />
    <glyph glyph-name="N" unicode="N" horiz-adv-x="910" 
d="M710 36q-12 -31 -34.5 -45.5t-41.5 -14.5q-40 0 -40 96l4 688q0 34 -1 41t-5 7q-12 0 -30 -36l-388 -736q-12 -24 -38 -36q-22 -11 -30 -21.5t-14 -10.5t-6 4t6 18q78 173 78 238.5t-16 65.5q-5 0 -13.5 -5t-12.5 -5t-4 6l32 20q5 3 12 8q14 10 22 10t22 -10
q28 -20 28 -70l308 566q12 25 37.5 41.5t62.5 16.5q34 0 34 -60l-6 -738q33 82 188 383.5t200 344.5q54 54 88 66q15 6 31.5 6t31.5 -7.5t15 -15.5t-15 -21l-30 -28q-33 -29 -34 -28q-5 0 -5 6t-7 12t-17 6q-29 0 -52 -34q-79 -115 -198.5 -367.5t-161.5 -360.5z" />
    <glyph glyph-name="O" unicode="O" horiz-adv-x="960" 
d="M1046.5 799q23.5 -89 23.5 -180.5t-41 -193t-108 -181t-148.5 -141t-167.5 -94.5t-160.5 -33t-140 30.5t-108 94t-42.5 153.5t48 204q108 253 324 366q118 62 242 62q54 0 111 -34.5t57 -73.5q0 -6 -9 -20t-13 -21q-2 -7 -8 -19q-11 -22 -16 -22q-10 0 -10 10
q0 41 -16 71.5t-41 45.5q-48 29 -97 29q-224 0 -370 -218q-120 -178 -120 -328q0 -120 65 -195t171 -75q128 0 252.5 79t204 209.5t79.5 269.5q0 51 -9.5 86.5t-16.5 57.5t-14 39t-13 29.5l-13 27.5q0 6 20.5 30t31.5 24q29 0 52.5 -89z" />
    <glyph glyph-name="P" unicode="P" horiz-adv-x="840" 
d="M364 364q146 38 266.5 83t210 122.5t89.5 150.5q0 44 -29 77t-81 33q-203 0 -456 -466zM378 635l-26 -1q-10 0 -10 7.5t59.5 20t73 12.5t13.5 -9t-70 -149q39 71 88 134q81 99 182.5 167.5t187.5 68.5q61 0 99.5 -32.5t38.5 -86t-26 -98.5t-64 -80t-90 -68
q-91 -57 -187.5 -94.5t-290.5 -94.5q-124 -248 -156 -328q-4 -10 -17 -11.5t-36.5 -2.5t-38 -6.5t-21.5 -10.5t-14 -5t-7 4.5t6 15.5l16 26q103 168 139 234l59 109.5l39 74.5l37 74q44 90 44 114q0 15 -28 15z" />
    <glyph glyph-name="Q" unicode="Q" horiz-adv-x="960" 
d="M954 -372q-116 0 -211 91.5t-159 282.5q-78 -26 -146 -26t-133.5 30.5t-108 94t-42.5 153.5t48 204q108 253 324 366q118 62 242 62q54 0 111 -34.5t57 -73.5q0 -6 -9 -20t-13 -21q-2 -7 -8 -19q-11 -22 -16 -22q-10 0 -10 10q0 41 -16 71.5t-41 45.5q-48 29 -97 29
q-224 0 -370 -218q-120 -178 -120 -328q0 -120 65 -195t171 -75q50 0 98 12q-44 170 -44 324q0 6 29 23t38 17t9 -4q-6 -63 -6 -151.5t22 -192.5q161 59 275.5 209.5t114.5 320.5q0 51 -9.5 86.5t-16.5 57.5t-14 39t-13 29.5l-13 27.5q0 6 20.5 30t31.5 24q29 0 52.5 -89
t23.5 -179t-38 -188t-101 -176q-131 -162 -301 -236q37 -145 136.5 -242.5t235.5 -97.5q114 0 199 65t97 121q4 18 14 18q14 0 14 -12q0 -7 -13 -31.5t-43 -61t-71 -70t-106 -57.5t-139 -24z" />
    <glyph glyph-name="R" unicode="R" horiz-adv-x="780" 
d="M316 414l10 20l-20 -4q4 -6 10 -16zM430 478q172 38 265 78q49 22 96.5 49t75 61.5t27.5 74t-30.5 72.5t-85.5 33q-74 0 -132 -50q-30 -26 -55 -54.5t-55 -76.5q-44 -70 -106 -187zM103 -27q-7 -5 -14 -5t-7 6q0 4 18.5 31.5t21.5 32.5q67 123 109 208l67 132
q-28 56 -28 66q0 3 70 16q68 129 112 194q67 106 182 169t214 63q54 0 87 -28.5t33 -79.5q0 -102 -130 -183t-422 -143l-56 -108l222 -366q64 -115 122.5 -168.5t137.5 -53.5q107 0 168 86q14 14 30 14t16 -8v-6q-115 -108 -252 -108t-210 108q-44 66 -138.5 244.5
t-117.5 217.5q-36 -75 -75.5 -179.5t-45 -117.5t-18.5 -14.5t-36.5 -2.5t-38 -6.5t-21.5 -10.5z" />
    <glyph glyph-name="S" unicode="S" horiz-adv-x="752" 
d="M76 136q0 6 19 25t33.5 36.5l22 27t9.5 9.5q6 0 6 -4l-9 -14q-9 -14 -9 -26q0 -42 15.5 -75t39 -52.5t53.5 -32.5q51 -22 108 -22q115 0 187.5 73t72.5 147q0 80 -72 173l-62 77q-72 90 -72 158t54.5 127t130 91t143.5 32q82 0 132 -58q22 -26 22 -34t-7 -14
q-11 -9 -33.5 -24.5t-26 -15.5t-3.5 6q0 36 -42.5 66t-105.5 30q-90 0 -142 -49.5t-52 -112.5q0 -64 77 -153l64 -75q77 -91 77 -168.5t-66 -153.5t-161 -120t-183 -44q-58 0 -103 16q-45 18 -69 44q-48 52 -48 110z" />
    <glyph glyph-name="T" unicode="T" horiz-adv-x="728" 
d="M286 -2q-8 -8 -14 -12q-19 -13 -116 -14q-14 0 -14 6q0 2 7 4q27 10 43 34q105 139 246 390t198 422q-254 0 -342 -32q-41 -15 -50.5 -24.5t-11.5 -9.5q-6 0 -6 6t22 28q42 42 118 56t284 18q16 61 16 90.5t-4 46.5t-14 38q-22 43 -98 43q-53 0 -108 -26q-2 -1 -22 -15.5
t-29 -14.5t-9 6q0 14 50 36q63 30 128 30q94 0 143 -46t49 -126q0 -21 -12 -60q207 6 319 22q10 2 15 2t8.5 1t5.5 1h2q12 0 12 -3t-6 -7q-49 -33 -144.5 -43.5t-225.5 -14.5q-61 -159 -223 -456t-217 -376z" />
    <glyph glyph-name="U" unicode="U" horiz-adv-x="1016" 
d="M548.5 858q33.5 -28 33.5 -66.5t-29.5 -102t-71.5 -135.5l-84 -144q-101 -174 -101 -252q0 -63 32.5 -94.5t82.5 -31.5t106 26q57 26 109 70q93 78 172 174q102 219 156 314.5t124 183.5q47 58 82 58q12 0 12 -8q0 -48 -198 -348q-24 -36 -26 -38q-45 -68 -98.5 -197
t-53.5 -195q0 -21 13 -31.5t50.5 -10.5t101 34t109 71t76 68.5t38.5 44.5q4 6 8 6t4 -3t-2 -7q-59 -72 -116 -119.5t-136.5 -90t-149.5 -42.5q-37 0 -54.5 20t-17.5 52q0 52 46 156l-92 -85q-36 -30 -92 -71q-110 -80 -216 -80q-73 0 -118.5 42t-45.5 114q0 53 46 154
q46 102 102 194q148 244 148 292q0 78 -80 78q-46 0 -83.5 -16.5t-69 -48t-35.5 -31.5t-4 6t22 28q87 90 206 90q61 0 94.5 -28z" />
    <glyph glyph-name="V" unicode="V" horiz-adv-x="838" 
d="M362 162q198 272 486 514q186 157 310 210q20 8 28 8t8 -6q0 -2 -39.5 -22.5t-61.5 -33t-91 -63.5t-146 -119q-302 -269 -502 -557l-13 -18.5l-8.5 -12t-6 -9t-3.5 -5.5t-3 -5t-3 -5q-4 -6 -9 -15.5t-11.5 -14.5t-12.5 -8.5t-16 -8.5l-14 -7q-42 -18 -56 -18t-14 14
t16.5 48.5t43.5 80.5t34 61q184 384 184 582q0 49 -18 73.5t-48 24.5q-74 0 -142 -68q-20 -20 -22 -20q-6 0 -6 6t22 28q44 46 97 68t89 22q58 0 87 -40.5t29 -95.5q0 -170 -188 -588z" />
    <glyph glyph-name="W" unicode="W" horiz-adv-x="1202" 
d="M442 888q126 0 126 -112q0 -44 -24.5 -98t-43 -89.5t-56.5 -101.5l-69 -118l-195 -329q136 133 294 226q99 58 160 58q34 0 46.5 -8t16.5 -11t8.5 -9.5l6.5 -9.5t5 -11t3.5 -10t8 -27.5t17.5 -69t15.5 -69.5t15.5 -55q10 -28 22 -44q27 -36 88 -36t116 38.5t87 94
t54 121.5q36 113 36 202q0 110 -38 221q-22 64 -54.5 114.5t-88 84.5t-126.5 34t-115 -28q-13 -8 -27.5 -8t-14.5 10q-3 9 18 20q61 26 145.5 26t151.5 -28.5t107 -73t66 -104.5q46 -103 46 -232q0 -150 -60 -277q-32 -67 -76 -119t-110 -84t-132 -32h-5q-63 0 -99 16
q-38 16 -59 32t-39 60.5t-23.5 67.5t-12.5 59q-6 37 -10 53q-8 38 -41.5 38t-106 -41.5t-134 -88.5l-124.5 -97.5t-66 -52.5q-22 -14 -70 -14q-12 0 -12 16q0 6 19.5 44t118 209.5l131.5 228.5l61 108t53 110t25 87.5t-21 49.5t-61 21q-74 0 -142 -68q-20 -20 -22 -20
q-6 0 -6 6t22 28q45 47 98.5 69.5t95.5 22.5z" />
    <glyph glyph-name="X" unicode="X" horiz-adv-x="890" 
d="M42 77q6 5 9 5t7 -6t10 -14q15 -20 69.5 -20t82.5 22q63 37 152 129l202 219q-20 228 -33 288q-25 120 -83 132q-8 2 -18 2q-46 0 -98 -52q-20 -20 -22 -20q-6 0 -6 6t22 28q84 90 156 90q46 0 80 -38q24 -26 44 -105q17 -64 34 -247q123 135 200 208.5t138 117.5
q102 64 160 64q22 0 38 -8q24 -11 24 -26q0 -6 -2.5 -9t-11 -9.5t-14 -11.5t-18 -17.5t-21.5 -20.5t-13 -8t-4 3t4 8.5t4 16.5t-15.5 22.5t-38 11.5t-38 -7.5t-44.5 -32.5q-108 -88 -344 -350q28 -313 60 -394q43 -112 154 -112q66 0 98 32q14 14 18 14q8 0 8 -9t-25 -29
t-72 -38t-95 -18q-131 0 -174 148q-26 91 -48 320q-207 -235 -350 -318q-95 -52 -170 -52q-36 0 -67 18q-11 6 -11 10t19.5 18.5t28 24t14.5 14.5z" />
    <glyph glyph-name="Y" unicode="Y" horiz-adv-x="1016" 
d="M582 -168q-250 -125 -382 -219q-152 -109 -229 -207q-42 -54 -69.5 -117.5t-27.5 -117.5q0 -107 92 -107q203 0 382 330q166 297 234 438zM944 464q-55 -90 -140 -285t-128 -275q234 110 402 238q37 30 67.5 61.5t38.5 44.5q4 6 8 6t4 -3t-2 -7q-60 -75 -119.5 -124
t-175.5 -118.5t-241 -131.5q-83 -166 -262 -468q-76 -126 -184 -234q-60 -60 -132 -97t-147.5 -37t-116 36.5t-40.5 99t33 128t83.5 121.5t126.5 115.5t145.5 103.5t158.5 93q120 66 277 139l166 350q-115 -108 -159 -143q-122 -93 -229 -93q-74 0 -119 40t-45 112
q0 54 44.5 156t98.5 195q143 246 143 293q0 35 -20.5 56.5t-64 21.5t-81 -16.5t-80.5 -59.5q-5 -5 -10 -11q-9 -11 -12 -11q-6 0 -6 7t22 29q87 90 206 90q60 0 93 -28.5t33 -71.5q0 -49 -136 -286q-51 -89 -93.5 -189t-42.5 -159.5t32 -89.5t84 -30q150 0 374 270
l53.5 115.5l46.5 100l36.5 76.5t35.5 70.5l30 53.5q30 53 56 85q26 31 32 37q18 18 35 18t17 -8q0 -36 -78.5 -181t-117.5 -205z" />
    <glyph glyph-name="Z" unicode="Z" horiz-adv-x="834" 
d="M655 840q93 -22 143 -22t87 4.5t51 10.5q34 15 51.5 15t30 -7.5t12.5 -12.5t-0.5 -6.5t-2.5 -4t-5 -4.5l-9.5 -6.5l-14.5 -10.5q-25 -19 -50 -42l-728 -670q51 6 96.5 6t111.5 -22.5t125 -55l119 -64.5q143 -78 258 -78q86 0 146 36t60 64q0 10 6 10q4 0 14 -20t10 -26
q-16 -39 -56 -73q-18 -15 -47.5 -27t-64.5 -12q-79 0 -177.5 32.5t-176 71.5t-167 71.5t-150.5 32.5t-103.5 -8.5t-65.5 -17t-34.5 -8.5t-31 9.5t-28 11.5l-10.5 2.5t-2 4.5t18 22l830 750q-67 -14 -135 -14t-142.5 19t-142 19t-108.5 -38q-20 -20 -22 -20q-6 0 -6 6t22 28
q64 66 172 66q24 0 117 -22z" />
    <glyph glyph-name="bracketleft" unicode="[" horiz-adv-x="540" 
d="M364 -126q20 0 20 -8t-20 -8h-310q-10 0 -10 8q0 4 22.5 47.5t25.5 48.5l526 1000q24 52 40 52h266q10 0 10 -6q0 -10 -20 -10q-65 0 -135.5 -11t-80.5 -29l-530 -1004q-18 -36 -18 -44t29 -16q67 -20 185 -20z" />
    <glyph glyph-name="backslash" unicode="\" horiz-adv-x="356" 
d="M48 1064q0 3 13 11.5t21 8.5h2l388 -1200q0 -3 -14 -12.5t-18 -9.5l-2 2z" />
    <glyph glyph-name="bracketright" unicode="]" horiz-adv-x="540" 
d="M462 998q-20 0 -20 8t20 8h310q10 0 10 -8q0 -4 -22.5 -47.5t-25.5 -48.5l-526 -1000q-24 -52 -40 -52h-266q-10 0 -10 6q0 10 20 10q65 0 135.5 11t80.5 29l530 1004q18 36 18 44t-29 16q-67 20 -185 20z" />
    <glyph glyph-name="asciicircum" unicode="^" horiz-adv-x="506" 
d="M436 856q6 10 26.5 21t25.5 11q1 0 6 -12q36 -85 81 -158t71 -107t26 -35q0 -8 -23.5 -20t-32.5 -12q-102 142 -166 284q-99 -125 -178 -248q-3 -6 -24.5 -18t-25.5 -12t-4 2t2 3q49 49 216 301z" />
    <glyph glyph-name="underscore" unicode="_" horiz-adv-x="634" 
d="M602 -100h-634q-8 0 -8 3t1 4t2.5 1.5t4 3t7.5 11.5q9 17 35 17h634q6 0 6 -10.5t-15.5 -20t-32.5 -9.5z" />
    <glyph glyph-name="grave" unicode="`" horiz-adv-x="252" 
d="M410 553q2 -4 2 -5.5t-6 -1.5t-10 8l-112 184q-2 2 -2 13.5t6 24t14.5 12.5t13.5 -10l86 -208q1 -2 3.5 -7.5t4.5 -9.5z" />
    <glyph glyph-name="a" unicode="a" horiz-adv-x="612" 
d="M434 168q102 102 102 136q0 8 -8 8q-20 0 -94 -144zM414 438q-63 0 -128.5 -56t-105.5 -134t-40 -146t56 -68q62 0 138 56q21 74 86 162q60 85 100 100q-34 86 -106 86zM410 462q96 0 126 -106q26 0 26 -22q0 -27 -9 -44.5l-13.5 -26t-15.5 -21.5q-12 -13 -16 -18
q-41 -46 -86 -86q-16 -52 -16 -70q0 -42 67 -42t166.5 80t140.5 142q4 6 8 6t4 -3t-2 -7q-54 -72 -107.5 -119t-131 -92t-141.5 -45q-80 0 -80 64q0 3 1 9t1 9q-113 -70 -186 -70q-84 0 -84 102q0 74 52.5 158.5t135 143t160.5 58.5z" />
    <glyph glyph-name="b" unicode="b" horiz-adv-x="662" 
d="M282 350q-72 -121 -72 -206q0 -51 33 -87.5t84 -36.5t119.5 53t116 136.5t47.5 162.5q0 47 -28.5 66.5t-61.5 19.5q-88 0 -238 -108zM328 538q-204 -147 -205 -146q-3 0 -3 4t6 8q181 131 216 160l174 330l46.5 87.5l49.5 93t48 81.5q32 54 58 85q72 88 140 135
q69 52 124 52q18 0 26 -15t8 -29q0 -166 -149 -351q-50 -62 -95 -110q-44 -48 -112 -109q-84 -76 -234 -198l-128 -236q169 118 286 118q39 0 66.5 -24.5t27.5 -65.5q0 -61 -40 -137.5t-99.5 -140t-132.5 -107t-133.5 -43.5t-98.5 38.5t-38 102t32 132t160 285.5zM442 648
l143.5 123.5t131 130.5t114.5 141.5t75 145t30 151.5q0 17 -7 28.5t-19 11.5q-45 0 -134 -128.5t-188 -319.5z" />
    <glyph glyph-name="c" unicode="c" horiz-adv-x="468" 
d="M177 244.5q-33 -73.5 -33 -127t23.5 -84.5t86.5 -31t141.5 42t144 99.5t96.5 104.5q4 6 8 6t4 -3t-2 -7q-43 -57 -100 -108q-176 -158 -330 -158q-64 0 -106 28t-42 88q0 62 39 134q38 71 91.5 122.5t111 84.5t90 33t46.5 -16t14 -38.5t-6 -31t-29 -20.5t-29 -12t-6 2
t1 4q3 8 3 26t-15 32t-31 14q-40 0 -89 -55t-82 -128.5z" />
    <glyph glyph-name="d" unicode="d" horiz-adv-x="682" 
d="M530 326l-54 -112q102 112 246.5 297t209.5 294t133.5 259t68.5 210q0 28 -18 28q-35 0 -86 -55t-103 -141q-91 -152 -155 -284l-232 -478q2 -8 2 -16t-6 -8q-3 0 -6 6zM502 388q-32 50 -91.5 50t-125 -56t-105.5 -134t-40 -146t56 -68q75 0 190 96q17 61 116 258z
M512 410l190 382q88 180 118.5 227l63 94.5t60.5 77.5q77 81 142 119q34 20 56 20q36 0 36 -50q0 -114 -59 -239.5t-159 -268.5q-68 -99 -238.5 -302t-257.5 -290q-20 -51 -20 -90q0 -64 71 -64t172.5 79.5t142.5 142.5q4 6 8 6t4 -3t-2 -7q-54 -72 -107.5 -119t-127 -90
t-125 -43t-77 23.5t-25.5 62.5q0 18 4 34q-135 -112 -236 -112q-84 0 -84 102q0 74 52.5 158.5t135 143t154.5 58.5t108 -52z" />
    <glyph glyph-name="e" unicode="e" horiz-adv-x="434" 
d="M68 128l-40 -32q-2 0 -2 4t7 11t39 31q23 72 69 136t94 103.5t91 62t68 22.5q52 0 52 -40q0 -15 -11 -30.5t-40.5 -38.5t-56 -41.5l-84 -57.5l-98.5 -68q-18 -51 -18 -94.5t23.5 -64.5t79 -21t128 39t137.5 95.5t96 103.5q4 6 8 6t4 -3t-2 -7q-111 -144 -268 -224
q-76 -36 -148 -36q-136 0 -136 94q0 14 8 50zM164 208q118 85 168 131.5t50 72.5t-22 26q-49 0 -105 -70.5t-91 -159.5z" />
    <glyph glyph-name="f" unicode="f" horiz-adv-x="400" 
d="M76 66q-516 -380 -724 -626q-67 -80 -99 -128.5t-50 -96t-20.5 -67t-2.5 -45t5 -62.5t15.5 -81.5t33.5 -75t54 -30.5q43 0 125.5 62.5t120.5 123.5q83 129 270.5 503t271.5 523zM526 404q9 6 11.5 6t2.5 -4t-6 -8q-66 -41 -338 -240q-574 -1066 -646 -1152.5t-170.5 -144
t-136 -57.5t-63.5 32q-27 30 -40 80q-24 91 -24 192q0 110 96 240q48 64 101.5 124.5t131 129.5l140 122t149 118.5l138 103l128 92l98.5 70.5q81 169 294 570.5t316 555.5t183 214t173 60q32 0 54 -22q34 -36 34 -80t-10 -71.5t-34 -66.5q-8 -16 -39 -30q-17 -7 -23 -7
q-3 0 -3 2q0 1 1 3q23 37 31.5 63.5t8.5 66.5t-24 71t-56.5 31t-62 -13t-65 -50.5t-69 -85t-83.5 -136.5q-95 -167 -228 -429l-284 -564z" />
    <glyph glyph-name="g" unicode="g" horiz-adv-x="580" 
d="M544 322q-27 48 -67 82t-87.5 34t-106 -52.5t-102 -135.5t-43.5 -158q0 -23 17 -40.5t41 -17.5q108 0 278 176q23 23 70 112zM-325 -1026q-93 -40 -180 -40t-155 31.5t-115 96.5t-47 151t35 165.5t94.5 141.5t138 116.5t164.5 96t174 76.5q132 52 314 107q5 4 18.5 4
t13.5 -10t-21 -17.5t-89.5 -28t-119 -37t-145.5 -52.5t-154 -67t-134 -81.5t-117.5 -102.5t-73 -123t-30.5 -149q0 -118 85.5 -199t200.5 -81t238 110t220 284l470 812q-69 -74 -157 -126t-161 -52q-80 0 -80 104q0 69 51 154t129 145.5t146 60.5q102 0 162 -132l6 12
q11 20 28 24q8 2 12 5t8 3q2 0 2 -6t-4 -10t-38 -62q6 -12 6 -19t-4 -7l-8 16l-492 -914q-91 -167 -225 -292q-73 -68 -166 -108z" />
    <glyph glyph-name="h" unicode="h" horiz-adv-x="670" 
d="M442 648l143.5 123.5t131 130.5t114.5 141.5t75 145t30 151.5q0 17 -7 28.5t-19 11.5q-45 0 -134 -128.5t-188 -319.5zM328 538q-204 -147 -205 -146q-3 0 -3 4t6 8q181 131 216 160l174 330l39 75t42.5 80l40 71t47.5 75.5l49 63.5q52 66 124 117q69 52 124 52
q18 0 26 -15t8 -29q0 -166 -149 -351q-50 -62 -95 -110q-44 -48 -112 -109q-84 -76 -234 -198l-142 -286q42 42 93.5 81t79.5 56q68 41 117 41q32 0 52 -23t20 -62.5t-34 -105l-68 -135.5t-34 -122q0 -34 30 -34q33 0 93.5 36.5t119 87.5t89.5 98q4 6 8 6t4 -3t-2 -7
q-54 -72 -107.5 -119t-127 -90t-121.5 -43q-68 0 -68 74q0 48 37 122t74 140t37 89t-12 37t-32 14q-53 0 -144 -79.5t-126 -132.5q-111 -165 -128 -250q-2 -8 -20 -8t-30 -3t-14 -3q-18 0 -18 14q0 10 43 95l77 147q121 231 156 290z" />
    <glyph glyph-name="i" unicode="i" horiz-adv-x="374" 
d="M134 398q-9 -6 -11.5 -6t-2.5 4t6 8q64 44 110 44q68 0 68 -62q0 -22 -34 -81.5l-68 -124.5t-34 -102q0 -52 70 -52q34 0 89.5 32t97.5 67t74 70t39.5 47t11.5 12t4 -3t-2 -7q-49 -66 -108 -118q-64 -61 -140 -97.5t-121 -36.5t-70 20t-25 60t37 108t74 126.5t37 78
t-8.5 30.5t-21.5 11q-30 0 -72 -28zM358 666q0 22 20 46q18 24 36 24t27 -10.5t9 -29.5t-18 -42.5t-42 -23.5q-32 0 -32 36z" />
    <glyph glyph-name="j" unicode="j" horiz-adv-x="348" 
d="M20 -42l-118 -20q-168 -28 -253.5 -56.5t-167 -68t-160.5 -95.5t-137 -120.5t-94 -146.5t-36 -177.5t64.5 -170.5t171.5 -75q49 0 102 24.5t97 63.5q43 38 87 88q77 90 132 190zM298 446q24 0 24 -20q0 -24 -80.5 -182.5t-135.5 -251.5q68 16 157 55.5t156 97.5t97 103
q4 6 8 6t4 -3t-2 -7q-50 -65 -100 -110q-126 -111 -330 -162l-336 -570q-87 -150 -211 -268q-66 -62 -146.5 -98t-164.5 -36q-110 0 -187 72.5t-77 183.5q0 154 84 276q110 161 330 271q187 93 383 131q66 12 144.5 23.5t114.5 18.5q202 380 202 430q0 14 -32.5 14
t-65.5 -22q-9 -6 -11.5 -6t-2.5 4t6 8q63 42 172 42zM358 666q0 22 20 46q18 24 36 24t27 -10.5t9 -29.5t-18 -42.5t-42 -23.5q-32 0 -32 36z" />
    <glyph glyph-name="k" unicode="k" horiz-adv-x="574" 
d="M442 648l143.5 123.5t131 130.5t114.5 141.5t75 145t30 151.5q0 17 -7 28.5t-19 11.5q-45 0 -134 -128.5t-188 -319.5zM556 406q-14 4 -28 4q-52 0 -116.5 -34.5t-113 -93.5t-48.5 -118q0 -46 20 -90q12 -26 41.5 -42t72.5 -16q115 0 260 126q67 59 98 106q4 6 8 6t4 -3
t-2 -7q-46 -62 -96 -106q-156 -156 -312 -156q-81 0 -121.5 39t-40.5 107l2 16l-26 -48l-27 -50q-11 -20 -15 -32q-6 -10 -18 -12.5t-29 -7t-19 -4.5q-16 0 -16 7q0 13 26 57l108 194q10 14 160 290q-204 -147 -205 -146q-3 0 -3 4t6 8q181 131 216 160l174 330l39 75
t42.5 80l40 71t47.5 75.5l49 63.5q52 66 124 117q69 52 124 52q18 0 26 -15t8 -29q0 -166 -149 -351q-50 -62 -95 -110q-44 -48 -112 -109q-84 -76 -234 -198l-172 -342q77 81 176.5 128.5t157.5 47.5q32 0 32 -6.5t-24.5 -22t-39.5 -15.5z" />
    <glyph glyph-name="l" unicode="l" horiz-adv-x="436" 
d="M436 648l143.5 123.5t131 130.5t114.5 141.5t75 145t30 151.5q0 17 -7 28.5t-19 11.5q-45 0 -134 -128.5t-188 -319.5zM322 538q-101 -73 -138 -102q-56 -44 -60 -44t-4 4t6 8q122 88 210 160l174 330l44.5 87.5l47.5 93.5t47 81t59 85q70 86 144 135q69 52 124 52
q18 0 26 -15t8 -29q0 -166 -149 -351q-50 -62 -95 -110q-44 -48 -112 -109q-84 -76 -234 -198l-136 -266l-55.5 -111.5t-39 -91.5t-19.5 -78t16 -44.5t42 -18.5q63 0 140 41t142 97.5t96 103.5q4 6 8 6t4 -3t-2 -7q-54 -72 -107.5 -119t-113.5 -82t-115.5 -50t-96.5 -15
t-65 21.5t-24 53.5t10.5 62.5t21 51.5l42.5 81z" />
    <glyph glyph-name="m" unicode="m" horiz-adv-x="736" 
d="M132 394q-4 -2 -8 -2t-4 4t45 34t78.5 30t47 -10.5t13.5 -42.5t-44 -105q6 5 23 21.5t26 24.5l25.5 22t27.5 22q12 8 27 16q29 16 55 16q32 0 32 -52q0 -34 -20 -74l-6 -14q15 15 54 46q38 30 68 49q79 51 130.5 51t51.5 -46q0 -24 -34.5 -81.5l-75.5 -120t-75.5 -153
t-34.5 -170t39.5 -140.5t114 -61t173.5 70.5t149 143.5q4 6 8 6t4 -3t-2 -7q-70 -95 -169.5 -163.5t-185.5 -68.5t-141.5 59t-55.5 147.5t30.5 178t66.5 148.5l66.5 112.5t30.5 75t-24 21.5q-38 0 -98.5 -44t-100.5 -92t-83 -48q-6 0 -6 8t3 12.5t9 7t8 4.5q40 86 40 115
t-16 29q-41 0 -140 -106q-25 -27 -83 -127.5t-62.5 -106.5t-11 -10t-17 -8.5t-29.5 -15t-26 -10.5t-7 8t10.5 19.5t34 50.5l60 104t43.5 76.5t15 26l12 21.5l10.5 19l10 18.5l8.5 16t7 15.5q3 6 5 13q4 13 4 24q0 34 -30 34q-21 0 -76 -38z" />
    <glyph glyph-name="n" unicode="n" horiz-adv-x="628" 
d="M214 428q-35 0 -80 -30q-9 -6 -11.5 -6t-2.5 4t6 8q69 52 126 52q25 0 39.5 -14t14.5 -35t-40 -93q161 138 250 138q31 0 44.5 -21.5t13.5 -54t-68 -157.5t-68 -161q0 -16 9 -27t23 -11q89 0 218 112q34 30 65.5 64t39 46t11.5 12t4 -3t-2 -7q-36 -48 -108.5 -119.5
t-150 -108t-129.5 -36.5t-52 46q0 41 34 109.5l68 132.5t34 96q0 50 -38 50q-35 0 -121.5 -62.5t-94.5 -77.5l-146 -266q-5 -8 -18.5 -10.5t-28 -8t-19.5 -5.5q-12 0 -12 10q0 4 58 102q156 268 156 306q0 26 -24 26z" />
    <glyph glyph-name="o" unicode="o" horiz-adv-x="536" 
d="M450 400l-6 2q0 -21 16.5 -39.5t39.5 -24.5q2 13 2 33v11q0 28 -17 59t-27 31q-14 0 -14 -40q6 -2 12 -8t6 -11t-5 -9t-7 -4zM496 320q-40 2 -71.5 31t-34.5 69q-59 0 -119.5 -55t-97.5 -134t-37 -149q0 -27 16.5 -50.5t47.5 -23.5q90 0 181.5 100t114.5 212zM676 406
q0 -4 -6.5 -8t-25 -17.5t-30 -21t-29.5 -17.5q-35 -19 -69 -22q-25 -128 -127.5 -233t-214.5 -105t-112 102q0 82 48.5 166t125.5 138t154 54q2 25 15 49.5t37 24.5q37 0 58.5 -37t21.5 -95q0 -16 -4 -48q45 0 144 68q9 6 11.5 6t2.5 -4z" />
    <glyph glyph-name="p" unicode="p" horiz-adv-x="524" 
d="M148 176l-74 -138q79 16 158.5 58.5t134 92t89 96.5t34.5 75q0 58 -44 58q-37 0 -134 -80.5t-164 -161.5zM156 -50q-62 0 -118 28q-103 -189 -238 -466t-238 -460q-16 -29 -41 -52t-47 -35q-23 -11 -46 -19q-35 -12 -49.5 -12t-14.5 5.5t4.5 8.5t19 11t33 22.5t50 58
t167.5 280l374 676.5q-6 6 -6 9.5t9 11t13 7.5q118 217 118 286t-20 76q-8 3 -8 6.5t2.5 5.5t7.5 5t10 7l11.5 9.5t8.5 8.5q5 6 18 6q16 0 26 -29.5t10 -65.5t-24 -87q107 106 192 161t136.5 55t51.5 -63t-65 -139.5t-176 -145.5t-229 -100q56 -30 120 -30t122 13t106 39
q119 64 205 157q32 35 38.5 45t10.5 10t4 -3t-2 -7q-51 -69 -108 -120q-194 -174 -438 -174z" />
    <glyph glyph-name="q" unicode="q" horiz-adv-x="632" 
d="M800 248q4 6 8 6t4 -3q0 -4 -10 -17.5t-53.5 -59l-91 -94.5l-143 -147l-147.5 -151l-109 -114q-101 -106 -134.5 -154.5t-113.5 -184.5l-146 -245.5t-75.5 -109.5t-21 14.5t-11.5 23.5q0 42 60 133t110 151q101 121 140.5 195t205 359t204.5 360q-33 -50 -122 -124
q-44 -36 -97 -62t-95.5 -26t-69 27.5t-26.5 72.5q0 75 53 161.5t131 145.5t146 59q44 0 66 -24t22 -58.5t-12 -67.5q-4 -12 -16 -12t-12 10q0 6 12 35t12 48.5t-19 33t-43 13.5q-47 0 -109.5 -53t-109.5 -137t-47 -160q0 -23 17 -40.5t43 -17.5q64 0 148.5 70t131.5 168
q7 14 14.5 37.5t9.5 24.5q16 8 40.5 8t39 -6t14.5 -14.5t-22 -36.5q-80 -104 -102 -143l-294 -514l142 148.5l388 381.5z" />
    <glyph glyph-name="r" unicode="r" horiz-adv-x="440" 
d="M278.5 432q15.5 -16 15.5 -33t-8 -37t-17 -37l-19.5 -35.5t-11.5 -21.5q60 69 148 132q63 44 164 84q12 4 15 4t3 -3t-1.5 -4.5t-3.5 -2.5l-11.5 -6t-41.5 -32.5t-32 -48.5t18 -21q23 0 70 34q9 6 11.5 6t2.5 -4t-6 -8q-41 -30 -64.5 -41t-46.5 -11t-37 8t-14 23.5
t12 30.5q-46 -26 -108 -85.5t-124 -142.5q-92 -170 -104 -184t-17.5 -14t-8.5 2.5t-7.5 10.5t-12.5 19.5t-8 19t14 29t32.5 42t31.5 37.5q82 154 100 191.5t18 55t-8.5 26.5t-28.5 9t-59 -26q-9 -6 -11.5 -6t-2.5 4t6 8q64 44 108 44q29 0 44.5 -16z" />
    <glyph glyph-name="s" unicode="s" horiz-adv-x="504" 
d="M82 110l-2 -26q0 -39 21.5 -67.5t68 -28.5t116 54.5t121 138t51.5 155.5q0 94 -52 94q-30 0 -68 -24t-72 -60q-60 -62 -88 -102q-4 -6 -8 -6t-4 3t2 7q150 208 264 208q46 0 74 -36t28 -89t-39 -119t-96 -118t-124.5 -87t-114 -35t-94 16t-48.5 42q0 13 26.5 48.5
t35.5 35.5q2 0 2 -4z" />
    <glyph glyph-name="t" unicode="t" horiz-adv-x="460" 
d="M120 396q0 4 5 8l30.5 21t124.5 29l162 300q12 25 34 45q20 21 40 21h3q17 0 17 -8t-50 -93t-138 -255l188 30q6 0 6 -2q0 -6 -14.5 -15t-22.5 -9t-169 -26l-96 -200q-54 -120 -54 -156t21 -59t53 -23q78 0 128.5 28t106 77t90 87.5t41 48t10.5 9.5t4 -3t-2 -7
q-48 -63 -100 -112.5t-90.5 -78.5t-96 -50t-116 -21t-92 26t-33.5 82t58 158l96 178q-126 -25 -132.5 -29.5t-9 -4.5t-2.5 4z" />
    <glyph glyph-name="u" unicode="u" horiz-adv-x="642" 
d="M761 186q30 34 41.5 51t15.5 17t4 -3t-2 -7q-59 -95 -172 -179.5t-212 -84.5q-52 0 -52 46q0 30 16 72q-62 -46 -132.5 -80t-123.5 -34q-24 0 -47 15t-23 51.5t80 177t80 168.5t-30.5 28t-69.5 -26q-9 -6 -11.5 -6t-2.5 4t6 8q64 44 110 44q66 0 66 -58q0 -30 -76 -164.5
t-76 -158.5t17 -33.5t37 -9.5q51 0 114 40.5t98 77.5q22 48 78 148.5t70 117.5q35 38 64 38q8 0 8 -12t-46.5 -94.5t-103.5 -155.5q-34 -74 -34 -126q0 -16 9 -27t23 -11q50 0 104.5 26.5t98.5 66t74 73.5z" />
    <glyph glyph-name="v" unicode="v" horiz-adv-x="426" 
d="M244 452q25 0 36.5 -16.5t11.5 -42t-21 -79.5t-53 -123t-44 -101q5 6 34.5 44.5l38 49l38 47t42.5 51l42 47t47 49.5l46.5 44.5t51.5 45.5q58 46 106.5 74t61.5 28q4 0 4 -6q0 -2 -12 -9l-44 -25q-86 -54 -178 -146.5t-151 -171l-109 -148.5t-59 -79t-27 -9q-6 0 -10 12
t-4 22q0 64 76 238q54 132 54 155t-22 23q-24 0 -66 -28q-9 -6 -11.5 -6t-2.5 4t6 8q64 48 118 48z" />
    <glyph glyph-name="w" unicode="w" horiz-adv-x="758" 
d="M898 406q0 -4 -3.5 -6.5t-19 -12.5l-23.5 -15t-25.5 -15t-30.5 -16q-13 -7 -30 -13q-33 -12 -59 -12t-47 6q10 -47 10 -104t-24 -110q-24 -54 -58 -80q-95 -52 -115 -52h-3q-56 0 -70 35q-12 30 -12 79q0 132 -26 132q-18 0 -91.5 -59t-97 -80.5t-35.5 -34l-20 -20.5
t-18 -16q-18 -16 -28 -16q-16 0 -16 24q0 68 140 284q66 101 66 118q0 6 -7 13t-15 7q-40 0 -106 -44q-9 -6 -11.5 -6t-2.5 4t5 8t26.5 18.5t58 32t63 17.5t43 -15.5t16.5 -41.5t-30 -73l-82.5 -125.5t-87.5 -148.5q53 56 140.5 128t127.5 72q52 0 52 -162q0 -78 20 -96
q10 -8 26 -8q53 0 83.5 59t30.5 142t-40 181q-7 7 -23.5 27.5t-16.5 28.5q0 12 25 25t32.5 13t23.5 -26.5t27 -55.5q50 -50 106 -50q20 0 32.5 4t19.5 6t16.5 7t15.5 7.5t15.5 8.5t13.5 9q3 2 13 8q20 14 23 14t3 -4z" />
    <glyph glyph-name="x" unicode="x" horiz-adv-x="448" 
d="M181 457q3 3 8 3t5 -7q0 -2 1 -10t1.5 -14.5t1.5 -12.5q18 -136 66 -272q24 35 88 136q64 102 70 114q12 24 18 26q21 6 32.5 6t11.5 -3t-1 -4t-3.5 -2.5t-11 -11.5t-64.5 -99.5t-128 -185.5q37 -84 80 -84q35 0 140 86q83 71 120 126q4 6 8 6t4 -3t-2 -7
q-52 -73 -124 -138q-126 -112 -176 -112q-22 0 -32 10l-14 14q-4 4 -12 18l-24 42q-132 -157 -198 -220q-166 -166 -294 -264q-12 -8 -18 -10.5t-18.5 -3t-36 -4.5t-26.5 -4t-3 4q0 1 18 14q224 152 358 286q123 119 206 222q-42 79 -78 175t-36 131q0 5 18 17l24 16
t12 10.5t9 9.5z" />
    <glyph glyph-name="y" unicode="y" horiz-adv-x="604" 
d="M244 -166l-240 -139t-176 -104t-112 -75.5t-86 -73.5q-46 -42 -70 -79q-56 -87 -56 -167t51 -123t119 -43q43 0 82 28q47 33 80 76l56 75.5t55.5 86.5l60.5 102l70 126zM240 448q29 0 44.5 -15t15.5 -31.5t-4 -30.5t-14 -33q-8 -20 -16 -36q-26 -54 -37 -74l-23.5 -44.5
l-19 -37t-14.5 -30.5q-14 -35 -14 -55t17.5 -28.5t36.5 -8.5q75 0 182 90l110 208q8 18 16.5 41.5t12.5 32.5q11 24 45 27t39 3t5 -4t-14 -26q-58 -87 -72 -112l-204 -378l160 102q60 38 96 63.5t92 75.5t92 101q4 6 8 6t4 -3t-2 -7q-32 -43 -52.5 -66.5t-79.5 -72
t-150 -107.5l-184 -120l-89.5 -168.5l-97.5 -181.5l-97 -168.5t-103 -155.5t-97 -110q-100 -104 -218 -104q-86 0 -132 51t-46 109.5t18 111.5t47 96t79.5 88.5t100 80.5t125 80l137.5 79l317 178l118 220q-63 -51 -124.5 -75.5t-93.5 -24.5t-55 15t-23 53q0 30 18.5 67
l38.5 74l26 48.5l16 30.5t14.5 28.5l13 26.5t12.5 28q11 30 11 43q0 28 -24 28q-32 0 -74 -28q-9 -6 -11.5 -6t-2.5 4t6 8q64 44 114 44z" />
    <glyph glyph-name="z" unicode="z" horiz-adv-x="478" 
d="M274 -34q-16 -4 -65 -18q-101 -28 -184 -65.5t-166 -95t-151 -125t-109 -146t-41 -150.5q0 -37 22 -63.5t54 -26.5q64 0 128.5 28.5t118.5 73.5t108 108.5t95 125.5q40 60 80 132q63 112 110 222zM372 24q89 40 166 108.5t108 115.5q4 6 8 6t4 -3t-2 -7
q-61 -78 -106 -118q-81 -73 -186 -124q-64 -182 -207 -376q-75 -102 -159 -185t-184.5 -136t-195.5 -53q-53 0 -93.5 27.5t-40.5 87.5t36.5 131t92.5 130q57 59 127 113q130 100 254 153q79 33 292 98q18 40 18 79t-19.5 54t-68.5 15q-65 -60 -102 -60q-10 0 -10 6
q0 20 33 37.5t61 24.5q12 11 58.5 51l75.5 66t60 62.5t40 62.5q-130 -50 -210 -50q-47 0 -76.5 18.5t-29.5 35.5q0 5 27 21.5l35.5 22t12 8t5.5 2.5l2 -2q0 -2 -6 -8t-6 -13.5t9 -15.5t39 -17q30 -8 84 -8q64 0 165 47q24 11 28.5 11t4.5 -4q0 -16 -54 -77t-234 -209
q107 0 136 -36q14 -18 14 -43t-6 -49z" />
    <glyph glyph-name="braceleft" unicode="{" horiz-adv-x="540" 
d="M364 -126q20 0 20 -8t-20 -8q-242 0 -242 122q0 79 63 157l52 63q63 75 63 148q0 19 -16 43.5t-30 24.5q-4 0 -21 -3t-41 -3q-12 0 -12 18q0 4 8 12q26 26 54 26q14 0 36 -4t33 -4t42.5 22.5t58.5 55t50 81t38 91.5q16 44 36 88q43 97 140 162q91 56 248 56q10 0 10 -6
q0 -10 -20 -10q-75 0 -119.5 -8.5t-86.5 -38t-70 -74.5t-45.5 -94l-35.5 -98q-43 -118 -121 -177q-30 -22 -106 -60q34 -22 34 -69.5t-27 -92.5t-59 -80.5t-59 -90t-27 -109.5t53.5 -93.5t118.5 -38.5z" />
    <glyph glyph-name="bar" unicode="|" horiz-adv-x="524" 
d="M324 -100v1062q0 5 13 10t16 7.5t4 3.5t3 1t2 -4v-1062q0 -5 -9 -7q-20 -6 -22.5 -10.5t-4.5 -4.5t-2 4z" />
    <glyph glyph-name="braceright" unicode="}" horiz-adv-x="540" 
d="M462 998q-20 0 -20 8t20 8q242 0 242 -122q0 -79 -63 -157l-52 -63q-63 -75 -63 -148q0 -19 16 -43.5t30 -24.5q4 0 21 3t41 3q12 0 12 -18q0 -4 -8 -12q-26 -26 -54 -26q-14 0 -36 4t-33 4t-42.5 -22.5t-58.5 -55t-50 -81t-38 -91.5q-16 -44 -36 -88q-43 -97 -140 -162
q-91 -56 -248 -56q-10 0 -10 6q0 10 20 10q75 0 119.5 8.5t86.5 38t70 74.5t45.5 94l35.5 98q43 118 121 177q30 22 106 60q-34 22 -34 69.5t27 92.5t59 80.5t59 90t27 109.5t-53.5 93.5t-118.5 38.5z" />
    <glyph glyph-name="asciitilde" unicode="~" horiz-adv-x="640" 
d="M206 300l-28 -14q-4 -2 -11 -8t-9 -6t-2 4t18 28q33 46 80 82t90 36q46 0 88 -48l34 -38q41 -48 86 -48q32 0 52 33.5t20 70.5q0 7 18 17.5t30 10.5q4 0 4 -6q-5 -57 -58 -105.5t-116 -48.5q-30 0 -57 20.5t-44 44.5t-44 44.5t-55.5 20.5t-53.5 -27.5t-42 -62.5z" />
    <glyph glyph-name="exclamdown" unicode="&#xa1;" horiz-adv-x="436" 
d="M416 446q0 -33 -27 -62.5t-61 -29.5t-34 36q0 30 29.5 61t52.5 31q40 0 40 -36zM-118 -308q7 -2 12 -2q28 0 72 39t90 103q77 108 130 196q75 130 102 234q6 14 22 14t16 -14q0 -10 -38 -104t-68 -148q-40 -80 -104 -179t-114 -153q-18 -18 -64 -18q-16 0 -38 6t-22 18
q0 8 4 8z" />
    <glyph glyph-name="cent" unicode="&#xa2;" horiz-adv-x="618" 
d="M294 132l314 552q-14 4 -42 4q-75 0 -155 -78.5t-128.5 -181t-48.5 -178.5q0 -37 17 -71t43 -47zM294 84l-196 -356q-3 -8 -11.5 -16t-12.5 -8q-2 0 -2 6q0 12 6 24q74 147 190 350q-52 3 -93 43t-41 99q0 79 43 166.5t111 158.5t159.5 118.5t180.5 48.5l84 146
q71 124 130 124q4 0 4 -2q0 -5 -16 -22q-59 -65 -78 -96l-96 -152q41 -8 72.5 -33.5t31.5 -54.5q0 -13 -4 -18.5t-14.5 -9.5t-17 -7t-16.5 -9q-20 -12 -28 -12q-6 0 -6 8l5 11q5 11 5 29q0 36 -52 56q-162 -265 -318 -552q21 -8 66.5 -8t104.5 25t96 56t62 63.5t38 54
t15 21.5q6 0 6 -4q0 -18 -36 -66q-130 -178 -372 -182z" />
    <glyph glyph-name="sterling" unicode="&#xa3;" horiz-adv-x="904" 
d="M1034 739.5q-5 -3.5 -8.5 -3.5t-2.5 8t1 12q0 26 -30.5 53t-65.5 27t-58 -10.5t-39.5 -26t-36.5 -50.5q-22 -35 -36 -66l-98 -203q134 5 284 24q4 0 4 -5t-18.5 -18.5t-37.5 -14.5q-182 -5 -244 -8q-81 -152 -190 -280q64 -170 233 -301t335 -131q117 0 192 72
q8 8 15.5 18.5t12 16t8.5 5.5t4 -6q0 -17 -28 -50q-90 -106 -260 -106q-120 0 -240 56q-67 32 -125 79t-110 123.5t-83 171.5q-67 -67 -135 -108.5t-125.5 -41.5t-57.5 40q0 46 49.5 117t115.5 124t109.5 53t77.5 -96q64 90 132 240q-155 -10 -159.5 -10t-4.5 6
q0 3 21.5 14.5t26.5 11.5q82 0 126 2q0 1 10.5 23.5l18 39t23.5 48t31 55.5t37.5 56t44 56t50.5 49.5t57 41.5q66 37 134 37q48 0 78 -32t30 -66q0 -7 -14.5 -13.5t-22 -11t-17 -11.5zM334 256q-56 0 -118 -69.5t-62 -130.5q0 -16 10 -27t34 -11t88.5 42.5t115.5 97.5
q-9 36 -26 67t-42 31z" />
    <glyph glyph-name="currency" unicode="&#xa4;" horiz-adv-x="880" 
d="M408.5 667q-56.5 -75 -56.5 -183t79 -197t193 -89q95 0 154.5 74.5t59.5 186t-78.5 197.5t-191.5 86h-4q-99 0 -155.5 -75zM888 766q3 2 6.5 2t10.5 -2.5t7 -6t-9 -11l-31.5 -25.5t-43.5 -37q78 -84 78 -197t-78 -201l27 -28q55 -56 55 -65t-17.5 -20t-25.5 -11t-15.5 5
t-18.5 16.5l-17 18t-19.5 23t-14.5 17.5q-99 -80 -211 -80t-187 66q-18 -14 -37 -32q-43 -39 -45 -38q-6 0 -6 7.5t29.5 35.5t44.5 39q-86 86 -86 214q0 110 76 200q-16 21 -49 55t-33 36.5t21 19.5t30 17t17.5 -10.5l25 -32.5t34.5 -41q42 34 101.5 58t110.5 24
q109 0 198 -82q21 17 39 35t24 23.5t9 7.5z" />
    <glyph glyph-name="yen" unicode="&#xa5;" horiz-adv-x="776" 
d="M620 470h-32q-13 -38 -26 -70zM316 506l212 -6q30 90 30 154t-16 102q-18 38 -44 57q-49 35 -102 35q-76 0 -142 -66q-20 -20 -22 -20q-6 0 -6 6t22 28q44 46 97 68t89 22q82 0 139 -53.5t57 -162.5q0 -58 -32 -170h48q79 89 164.5 171.5t188 152.5t165.5 70q34 0 34 -6
q0 -3 -22 -10.5t-68 -29.5t-104.5 -59t-144.5 -113t-175 -176l204 2q6 0 6 -10.5t-16 -18t-51 -7.5t-171 4q-33 -37 -78 -94l252 2q8 0 8 -6q0 -4 -6.5 -8.5t-9.5 -7.5q-14 -14 -40 -14q-1 0 -72.5 3t-153.5 3q-41 -52 -56 -78q-96 -192 -140 -260q-6 -10 -15 -12.5
t-27.5 -5.5t-33 -8.5t-21.5 -10.5t-14 -5t-7 6q0 2 8 12q32 40 40 54q112 181 174 308q-196 -4 -206 -4t-10 6l-3 21q0 9 6.5 9t35 -2t99.5 -2h92q29 65 40 96h-72l-168 -4q-8 0 -8 3t1.5 4t5 3t6.5 5t7 9q3 6 5 8q5 6 21 6z" />
    <glyph glyph-name="brokenbar" unicode="&#xa6;" horiz-adv-x="524" 
d="M324 502v460q0 5 13 10t16 7.5t4 3.5t3 1t2 -4v-460q0 -5 -9 -7q-20 -6 -22.5 -10.5t-4.5 -4.5t-2 4zM324 374q0 5 13 10t16 7.5t4 3.5t3 1t2 -4v-474q0 -5 -9 -7q-20 -6 -22.5 -10.5t-4.5 -4.5t-2 4v474z" />
    <glyph glyph-name="section" unicode="&#xa7;" horiz-adv-x="576" 
d="M506 240q25 20 38.5 55.5t13.5 68t-22.5 66.5t-50.5 59.5t-58 62.5t-41 72q-54 -32 -54 -88q0 -62 58 -115l49 -45.5t44.5 -58.5t22.5 -77zM128 188q-16 -20 -16 -34q0 -41 55 -89.5t135 -48.5q38 0 68 18q30 20 46 46q30 52 30 91.5t-17.5 77.5t-42.5 66.5l-50 54.5
q-60 64 -60 110.5t32 88t76 67.5q-4 20 -4 32q0 78 73 147t185 69q54 0 103 -34t49 -80q0 -8 -21.5 -32t-28.5 -24q-4 0 -4 6q0 44 -47.5 88t-110 44t-107.5 -44.5t-45 -113.5q0 -50 60 -112l52 -54q60 -66 60 -140q0 -40 -26.5 -85t-65.5 -79q0 -29 -19.5 -70t-51.5 -81.5
t-83 -68.5t-106 -28q-88 0 -145 44.5t-57 87.5q0 12 8 20q22 16 45.5 41t24.5 25q6 0 6 -6z" />
    <glyph glyph-name="dieresis" unicode="&#xa8;" horiz-adv-x="352" 
d="M280 602q0 22 20 46q18 24 36 24t27 -10.5t9 -29.5t-18 -42.5t-42 -23.5q-32 0 -32 36zM432 602q0 22 20 46q18 24 36 24t27 -10.5t9 -29.5t-18 -42.5t-42 -23.5q-32 0 -32 36z" />
    <glyph glyph-name="copyright" unicode="&#xa9;" horiz-adv-x="1072" 
d="M354 581q-64 -123 -64 -256q0 -131 81 -223q81 -94 216.5 -94t246.5 70.5t175.5 189t64.5 265t-79.5 237t-228.5 90.5q-128 0 -238.5 -78.5t-173.5 -200.5zM507.5 803.5q137.5 82.5 293.5 82.5t255.5 -95t99.5 -243q0 -109 -50.5 -214.5t-132.5 -183.5t-192 -126
t-225 -48q-160 0 -255 95t-95 240.5t82 277.5t219.5 214.5zM734 676q-106 0 -189 -106.5t-83 -237.5q0 -67 46 -116.5t106 -49.5q42 0 85 18.5t70 40.5t47.5 40.5t24 18.5t3.5 -12v-26q0 -12 -39 -36t-103 -45t-120 -21q-84 0 -135 51t-51 142.5t62.5 183t149.5 141.5
t166 50q46 0 86 -17.5t58 -35t18 -24.5t-2 -12t-6 -9l-11 -10q-12 -12 -15 -17q-7 -9 -11.5 -9t-4.5 10q-7 35 -53.5 61.5t-98.5 26.5z" />
    <glyph glyph-name="ordfeminine" unicode="&#xaa;" horiz-adv-x="444" 
d="M392 446q35 115 126 222q-16 48 -70 48q-72 0 -142 -89.5t-70 -168.5q0 -22 10.5 -42t31.5 -20q37 0 114 50zM598 690q-46 -46 -93 -125t-47 -137q0 -38 38 -38q34 0 68 21t54 57q0 2 4 4t8 2t4 -2q0 -31 -62.5 -75.5t-119.5 -44.5q-31 0 -49.5 15t-18.5 41q0 2 1 7t1 7
q-81 -56 -144 -56q-34 0 -57 24t-23 60q0 64 45.5 131t112.5 110t131 43t83 -52q14 14 32 20q20 10 40 10q6 0 6 -4t-14 -18z" />
    <glyph glyph-name="guillemotleft" unicode="&#xab;" horiz-adv-x="626" 
d="M686 448q6 0 6 -6.5t-12 -15.5q-177 -134 -219.5 -170.5t-42.5 -53.5t24 -70.5t48 -99.5t24 -49.5t-27 -9t-34 -5.5t-11.5 7t-41 97t-36.5 111.5t16 34.5l159.5 121l109.5 85.5t37 23.5zM560.5 478q5.5 0 5.5 -6q0 -9 -14 -18l-165 -131t-108 -87t-15 -28t41 -125
t41 -117t-3.5 -7.5t-14 -3.5t-23 -5.5t-20 -3.5t-9.5 4q-12 24 -40 128.5t-28 116t6 17.5q51 34 196 150t150.5 116z" />
    <glyph glyph-name="logicalnot" unicode="&#xac;" horiz-adv-x="716" 
d="M200 350l314 -4l150 2q12 0 12 -8q0 -10 -88 -166q-2 -4 -56 -12l-18 -2q-14 0 -6 16q63 118 70 134l-406 -6q-4 0 -4 4t12 23t20 19z" />
    <glyph glyph-name="uni00AD" unicode="&#xad;" horiz-adv-x="496" 
d="M200 352l240 -6l92 2q4 0 4 -2t-1 -4t-4 -7t-5 -10t-4 -12q-3 -11 -7.5 -11t-82 4t-134.5 4l-126 -4q-4 0 -4 2t2 4q14 14 19 25q6 15 11 15z" />
    <glyph glyph-name="registered" unicode="&#xae;" horiz-adv-x="1072" 
d="M584 490q214 48 271 100q25 22 25 49t-16.5 49t-55.5 22q-103 0 -224 -220zM507.5 803.5q137.5 82.5 293.5 82.5t255.5 -95t99.5 -238t-75.5 -268t-200.5 -207q37 -20 79 -20t72.5 14t50 28t27 14t7.5 -6q0 -25 -57 -53.5t-113 -28.5t-110 24q-138 -74 -289 -74t-246 95
t-95 240.5t82 277.5t219.5 214.5zM862 734q40 0 70 -21t30 -51q0 -120 -386 -200q99 -156 164.5 -246t113.5 -124q101 72 160.5 186t59.5 244q0 157 -79.5 247.5t-228.5 90.5q-128 0 -238.5 -78.5t-173.5 -200.5q-64 -123 -64 -256q0 -131 81 -223q81 -94 225 -94
q112 0 212 56q-23 12 -45 38l-35.5 42.5t-32 42l-31 43l-32 47l-30 45l-30 46t-26.5 40.5q-22 -44 -48 -102q-50 -111 -56 -112q-22 0 -46.5 -4t-33 -4t-8.5 8l228 400q41 58 125.5 99t154.5 41z" />
    <glyph glyph-name="macron" unicode="&#xaf;" horiz-adv-x="330" 
d="M434 644l-194 -2q-14 0 -14 15t8 15l102 -2l222 2q16 0 16 -12q0 -18 -38 -18z" />
    <glyph glyph-name="degree" unicode="&#xb0;" horiz-adv-x="334" 
d="M324.5 826q-18.5 -26 -18.5 -70.5t27.5 -76t74.5 -31.5q33 0 52.5 31t19.5 68.5t-28 71t-68.5 33.5t-59 -26zM291 653.5q-33 33.5 -33 88t54 98.5t112 44q39 0 72.5 -31t33.5 -88t-50 -101t-114 -44q-42 0 -75 33.5z" />
    <glyph glyph-name="plusminus" unicode="&#xb1;" horiz-adv-x="842" 
d="M502 298q-108 -8 -192 -51.5t-84 -104.5q0 -22 15.5 -38t40.5 -16q57 0 118.5 67.5t101.5 142.5zM822 354q0 -9 -29.5 -28.5t-36.5 -19.5q-104 0 -188 -4q-35 -69 -77.5 -117.5t-82.5 -70.5q-101 -39 -124 -38h-2q-32 0 -51 18.5t-19 41.5q0 67 77 128t233 76
q52 113 52 156q0 20 -15 35t-48 15t-67.5 -13.5t-54 -27t-22.5 -13.5t-3 4q0 7 27.5 26t80.5 38.5t106 19.5q22 0 44 -15.5t22 -42.5q0 -70 -54 -178q135 9 230 12q2 0 2 -2zM148 44l362 -8l180 4q4 0 4 -2t-1 -4t-4 -7t-5 -11q-2 -4 -4 -12q-4 -14 -8 -14l-376 8l-176 -4
q-4 0 -4 2t2.5 5l7 8t6.5 9q3 4 6 12q5 14 10 14z" />
    <glyph glyph-name="uni00B2" unicode="&#xb2;" horiz-adv-x="492" 
d="M624 500q4 0 4 -4.5t-27 -19.5t-68 -28.5t-72 -13.5t-110.5 46t-111 46t-73.5 -27t-49 -27t-7 5.5t44.5 33t114.5 64.5t111.5 57t78 41t52 41.5t15.5 45.5q0 84 -104 84q-53 0 -88 -42q-4 -6 -8 -6t-4 3t2 6.5t5.5 9t17 19t29.5 23.5q43 27 90 27t71.5 -9t35.5 -23
q19 -25 19 -54q-2 -44 -51.5 -88.5t-96.5 -69t-102.5 -50t-61.5 -28.5q46 0 92 -23t85 -46t71 -23t64 15z" />
    <glyph glyph-name="uni00B3" unicode="&#xb3;" horiz-adv-x="492" 
d="M429.5 877.5q27.5 8.5 71 8.5t68.5 -22t25 -47.5t-12 -44.5q-12 -18 -35 -32q-36 -21 -85 -38q32 -11 46 -27.5t14 -46.5q0 -63 -80.5 -113.5t-167.5 -50.5q-39 0 -75.5 22t-36.5 62q0 8 23.5 22t30 14t6.5 -2q0 -33 32 -57.5t68 -24.5q76 0 110 30t34 70q0 74 -108 74
q-13 0 6 16q20 16 48 22.5t53.5 18t36.5 24.5q18 21 18 44t-17.5 40t-49.5 17t-55 -12q-32 -16 -45 -31t-17 -15t-4 3t2 6.5t5.5 9t17 19t29.5 23.5t43.5 18.5z" />
    <glyph glyph-name="acute" unicode="&#xb4;" horiz-adv-x="316" 
d="M258 562l238 138q9 6 16 6q4 0 4 -8t-6.5 -20.5t-13.5 -15.5l-96 -44q-152 -72 -158 -72t-6 1.5t22 14.5z" />
    <glyph glyph-name="uni00B5" unicode="&#xb5;" horiz-adv-x="618" 
d="M268 432l28 14q8 0 10 -2.5t2 -10.5q0 -9 -22 -51q-56 -110 -170 -288q0 -13 2.5 -25.5t20 -28.5t49.5 -16q51 0 109 39t95 79q22 48 78 148.5t70 117.5q35 38 64 38q8 0 8 -12t-46.5 -94.5t-103.5 -155.5q-34 -74 -34 -126q0 -16 9 -27t23 -11q45 0 95 24t89.5 58.5
t72.5 69t53.5 58.5t24 24t3.5 -6t-102 -116q-73 -76 -153 -114t-131.5 -38t-51.5 46q0 30 16 72q-152 -114 -248 -114q-47 0 -66 30q-131 -192 -266 -354t-235.5 -257.5t-185.5 -163t-129.5 -93.5t-51 -26t-6.5 2.5t37.5 25.5t116 84t177 154.5t242 268t291.5 393.5
q0 46 75 186t109 174q16 16 32 24z" />
    <glyph glyph-name="paragraph" unicode="&#xb6;" horiz-adv-x="670" 
d="M444 332q-90 6 -162 48q-38 22 -60 63t-22 87.5t18.5 90t61.5 91t104.5 86t157 63.5t187.5 25t151 -16t63.5 -16t4.5 -3t-3.5 -6l-11 -9t-21.5 -20t-18 -14t-13 7q-28 22 -95 31q-70 -126 -242 -470q120 0 228 34q4 2 8 2t4 -2.5t-20.5 -12.5t-95 -31t-144.5 -28
q-131 -257 -160 -328q-4 -10 -15.5 -11.5t-33.5 -2.5t-36.5 -6.5t-21.5 -10.5t-14 -5t-7 4.5t6 15.5l16 26zM272 576q0 -85 57 -131.5t143 -64.5l68 119q81 141 186 347q-111 0 -195.5 -18t-132.5 -45.5t-77.5 -65.5t-39 -71t-9.5 -70z" />
    <glyph glyph-name="periodcentered" unicode="&#xb7;" horiz-adv-x="438" 
d="M290 358q0 22 20 46q18 24 36 24t27 -10.5t9 -29.5t-18 -42.5t-42 -23.5q-32 0 -32 36z" />
    <glyph glyph-name="cedilla" unicode="&#xb8;" horiz-adv-x="400" 
d="M172 0q0 -4 -54 -94q62 0 89 -27t27 -64.5t-34 -71t-78.5 -33.5t-72 22t-27.5 40q0 3 10 7.5t16 4.5q2 0 9.5 -16t24 -32t44.5 -16t49 22t21 47t-10 38.5t-28 18.5q-29 8 -52.5 8t-27.5 -4t-11 -4t-7 2q0 4 14 26q48 75 78 126q2 2 11 2t9 -2z" />
    <glyph glyph-name="uni00B9" unicode="&#xb9;" horiz-adv-x="366" 
d="M198 742l18 -4q105 0 206 86q28 33 52.5 47.5t33 14.5t8.5 -10q0 -29 -48 -74q-44 -64 -136 -262q-27 -59 -28.5 -61.5t-5.5 -5.5t-6 -3q-4 1 -29 -3.5t-35 -4.5t-10 6.5t18 27.5q21 22 44 60.5t62.5 115t57.5 108.5q-105 -54 -164 -54q-10 0 -26 4t-16 8t4 4z" />
    <glyph glyph-name="ordmasculine" unicode="&#xba;" horiz-adv-x="396" 
d="M234 526q0 -52 34.5 -86t94 -34t97.5 53t38 106.5t-34.5 87t-83 33.5t-83 -28.5t-49 -64t-14.5 -67.5zM213.5 405q-37.5 35 -37.5 92t40.5 111.5t99 85t114.5 30.5t94 -36t38 -88q0 -90 -85.5 -160t-174.5 -70q-51 0 -88.5 35z" />
    <glyph glyph-name="guillemotright" unicode="&#xbb;" horiz-adv-x="478" 
d="M20 -26q-6 0 -6 6.5t12 15.5q177 134 219.5 170.5t42.5 53.5t-24 70.5t-48 99.5t-24 49.5t27 9t34 5.5t11.5 -7t41 -97t36.5 -111.5t-16 -34.5l-159.5 -121l-109.5 -85.5t-37 -23.5zM145.5 -56q-5.5 0 -5.5 6q0 9 14 18l165 131t108 87t15 28t-41 125t-41 117t3.5 7.5
t14 3.5t23 5.5t20 3.5t9.5 -4q12 -24 40 -128.5t28 -116t-6 -17.5q-51 -34 -196 -150t-150.5 -116z" />
    <glyph glyph-name="onequarter" unicode="&#xbc;" horiz-adv-x="886" 
d="M332 768l18 -4q105 0 206 86q28 33 52.5 47.5t33 14.5t8.5 -10q0 -29 -48 -74q-44 -64 -136 -262q-27 -59 -28.5 -61.5t-5.5 -5.5t-6 -3q-4 1 -29 -3.5t-35 -4.5t-10 6.5t18 27.5q21 22 44 60.5t62.5 115t57.5 108.5q-105 -54 -164 -54q-10 0 -26 4t-16 8t4 4z
M870.5 305.5q5.5 4.5 15.5 10.5l22 16q25 20 34.5 20t9.5 -4q0 -10 -15.5 -24.5t-20.5 -21.5l-178 -348q-8 -22 -16 -20q-4 1 -29 -3.5t-35 -4.5t-10 6.5t18 27.5q33 35 102 166q-88 -16 -154 -16q-25 0 -44.5 11t-19.5 34.5t22.5 50t79.5 72.5q28 24 52 56q14 18 58 18
q6 0 6 -6q0 -4 -40.5 -35.5t-81 -72.5t-40.5 -66q0 -28 98 -28q40 0 76 6l22.5 43.5l18.5 36l14.5 26.5t13 22t10.5 15t11.5 12.5zM270 226q-28 -15 -34 -15t-7 3q0 13 25 28l670 412q22 14 32 14t9 -4q0 -11 -25 -26z" />
    <glyph glyph-name="onehalf" unicode="&#xbd;" horiz-adv-x="886" 
d="M332 768l18 -4q105 0 206 86q28 33 52.5 47.5t33 14.5t8.5 -10q0 -29 -48 -74q-44 -64 -136 -262q-27 -59 -28.5 -61.5t-5.5 -5.5t-6 -3q-4 1 -29 -3.5t-35 -4.5t-10 6.5t18 27.5q21 22 44 60.5t62.5 115t57.5 108.5q-105 -54 -164 -54q-10 0 -26 4t-16 8t4 4zM904 -20
q4 0 4 -4.5t-27 -19.5t-68 -28.5t-72 -13.5t-110.5 46t-111 46t-73.5 -27t-49 -27t-7 5.5t44.5 33t114.5 64.5t111.5 57t78 41t52 41.5t15.5 45.5q0 84 -104 84q-53 0 -88 -42q-4 -6 -8 -6t-4 3t2 6.5t5.5 9t17 19t29.5 23.5q43 27 90 27t71.5 -9t35.5 -23q19 -25 19 -54
q-2 -44 -51.5 -88.5t-96.5 -69t-102.5 -50t-61.5 -28.5q46 0 92 -23t85 -46t71 -23t64 15zM270 226q-28 -15 -34 -15t-7 3q0 13 25 28l670 412q22 14 32 14t9 -4q0 -11 -25 -26z" />
    <glyph glyph-name="threequarters" unicode="&#xbe;" horiz-adv-x="886" 
d="M870.5 305.5q5.5 4.5 15.5 10.5l22 16q25 20 34.5 20t9.5 -4q0 -10 -15.5 -24.5t-20.5 -21.5l-178 -348q-8 -22 -16 -20q-4 1 -29 -3.5t-35 -4.5t-10 6.5t18 27.5q33 35 102 166q-88 -16 -154 -16q-25 0 -44.5 11t-19.5 34.5t22.5 50t79.5 72.5q28 24 52 56q14 18 58 18
q6 0 6 -6q0 -4 -40.5 -35.5t-81 -72.5t-40.5 -66q0 -28 98 -28q40 0 76 6l22.5 43.5l18.5 36l14.5 26.5t13 22t10.5 15t11.5 12.5zM503.5 903.5q27.5 8.5 71 8.5t68.5 -22t25 -47.5t-12 -44.5q-12 -18 -35 -32q-36 -21 -85 -38q32 -11 46 -27.5t14 -46.5q0 -63 -80.5 -113.5
t-167.5 -50.5q-39 0 -75.5 22t-36.5 62q0 8 23.5 22t30 14t6.5 -2q0 -33 32 -57.5t68 -24.5q76 0 110 30t34 70q0 74 -108 74q-13 0 6 16q20 16 48 22.5t53.5 18t36.5 24.5q18 21 18 44t-17.5 40t-49.5 17t-55 -12q-32 -16 -45 -31t-17 -15t-4 3t2 6.5t5.5 9t17 19
t29.5 23.5t43.5 18.5zM270 226q-28 -15 -34 -15t-7 3q0 13 25 28l670 412q22 14 32 14t9 -4q0 -11 -25 -26z" />
    <glyph glyph-name="questiondown" unicode="&#xbf;" horiz-adv-x="482" 
d="M528 476q0 -33 -27 -62.5t-61 -29.5t-34 36q0 30 29.5 61t52.5 31q40 0 40 -36zM30 -304q34 -30 78 -30t86 21t69 42q29 21 35 21t6 -4t-6 -10q-64 -54 -124 -86t-124 -32t-98 32t-34 88q0 72 86 131q36 25 86 50q153 77 198 122q46 44 46 89q0 32 -56 100q-18 22 -18 26
t7 8t21 8l18 4q24 8 34 8t38 -47q26 -46 26 -77q0 -32 -22 -65q-20 -33 -60 -63q-82 -62 -194 -116q-100 -50 -122 -96q-10 -22 -10 -50q0 -44 34 -74z" />
    <glyph glyph-name="Agrave" unicode="&#xc0;" 
d="M404 342h34q40 0 117 -12t106 -12t45 2q14 114 37 216l35 153t20 81.5t8 34t-2 3.5q-8 0 -28 -28zM372 306q-192 -219 -270 -284q-29 -22 -86 -28q-3 0 -22.5 -4t-31.5 -4t-12 8q0 10 16 14q38 13 64 36q151 132 315 297.5t401 442.5l26.5 30.5t21.5 22.5l16 14.5
t15.5 10.5t13.5 8q13 6 26.5 10.5t31 13t24.5 8.5t7 -8v-2q0 -11 -11 -35.5t-11 -26.5q-28 -76 -62.5 -222t-51.5 -276q68 17 124 62q18 14 22 14t4 -5.5t-22 -23t-59.5 -37.5t-70.5 -28q-10 -87 -10 -136q0 -152 64 -152q37 0 95.5 35.5t118 87.5t90.5 99q4 6 8 6t4 -3
t-2 -7q-54 -72 -107.5 -119t-127 -90t-134.5 -43t-79 37.5t-18 117t10 149.5q-90 -10 -125.5 -10t-101.5 11t-81.5 11t-21.5 -2zM954 1007q2 -4 2 -5.5t-6 -1.5t-10 8l-112 184q-2 2 -2 13.5t6 24t14.5 12.5t13.5 -10l86 -208q1 -2 3.5 -7.5t4.5 -9.5z" />
    <glyph glyph-name="Aacute" unicode="&#xc1;" 
d="M404 342h34q40 0 117 -12t106 -12t45 2q14 114 37 216l35 153t20 81.5t8 34t-2 3.5q-8 0 -28 -28zM372 306q-192 -219 -270 -284q-29 -22 -86 -28q-3 0 -22.5 -4t-31.5 -4t-12 8q0 10 16 14q38 13 64 36q151 132 315 297.5t401 442.5l26.5 30.5t21.5 22.5l16 14.5
t15.5 10.5t13.5 8q13 6 26.5 10.5t31 13t24.5 8.5t7 -8v-2q0 -11 -11 -35.5t-11 -26.5q-28 -76 -62.5 -222t-51.5 -276q68 17 124 62q18 14 22 14t4 -5.5t-22 -23t-59.5 -37.5t-70.5 -28q-10 -87 -10 -136q0 -152 64 -152q37 0 95.5 35.5t118 87.5t90.5 99q4 6 8 6t4 -3
t-2 -7q-54 -72 -107.5 -119t-127 -90t-134.5 -43t-79 37.5t-18 117t10 149.5q-90 -10 -125.5 -10t-101.5 11t-81.5 11t-21.5 -2zM866 1016l238 138q9 6 16 6q4 0 4 -8t-6.5 -20.5t-13.5 -15.5l-96 -44q-152 -72 -158 -72t-6 1.5t22 14.5z" />
    <glyph glyph-name="Acircumflex" unicode="&#xc2;" 
d="M404 342h34q40 0 117 -12t106 -12t45 2q14 114 37 216l35 153t20 81.5t8 34t-2 3.5q-8 0 -28 -28zM372 306q-192 -219 -270 -284q-29 -22 -86 -28q-3 0 -22.5 -4t-31.5 -4t-12 8q0 10 16 14q38 13 64 36q151 132 315 297.5t401 442.5l26.5 30.5t21.5 22.5l16 14.5
t15.5 10.5t13.5 8q13 6 26.5 10.5t31 13t24.5 8.5t7 -8v-2q0 -11 -11 -35.5t-11 -26.5q-28 -76 -62.5 -222t-51.5 -276q68 17 124 62q18 14 22 14t4 -5.5t-22 -23t-59.5 -37.5t-70.5 -28q-10 -87 -10 -136q0 -152 64 -152q37 0 95.5 35.5t118 87.5t90.5 99q4 6 8 6t4 -3
t-2 -7q-54 -72 -107.5 -119t-127 -90t-134.5 -43t-79 37.5t-18 117t10 149.5q-90 -10 -125.5 -10t-101.5 11t-81.5 11t-21.5 -2zM1006 1150q21 16 30 16t11 -6t27.5 -56.5t25.5 -76.5q0 -2 -12 -7.5t-20 -12.5t-10 -7l-2 -1v1q-23 57 -52 118l-192 -106q-18 -10 -30 -10
l-2 2q0 2 20 14z" />
    <glyph glyph-name="Atilde" unicode="&#xc3;" 
d="M404 342h34q40 0 117 -12t106 -12t45 2q14 114 37 216l35 153t20 81.5t8 34t-2 3.5q-8 0 -28 -28zM372 306q-192 -219 -270 -284q-29 -22 -86 -28q-3 0 -22.5 -4t-31.5 -4t-12 8q0 10 16 14q38 13 64 36q151 132 315 297.5t401 442.5l26.5 30.5t21.5 22.5l16 14.5
t15.5 10.5t13.5 8q13 6 26.5 10.5t31 13t24.5 8.5t7 -8v-2q0 -11 -11 -35.5t-11 -26.5q-28 -76 -62.5 -222t-51.5 -276q68 17 124 62q18 14 22 14t4 -5.5t-22 -23t-59.5 -37.5t-70.5 -28q-10 -87 -10 -136q0 -152 64 -152q37 0 95.5 35.5t118 87.5t90.5 99q4 6 8 6t4 -3
t-2 -7q-54 -72 -107.5 -119t-127 -90t-134.5 -43t-79 37.5t-18 117t10 149.5q-90 -10 -125.5 -10t-101.5 11t-81.5 11t-21.5 -2zM936 1128q21 0 39 -15t28.5 -33t27.5 -33t37 -15q35 0 92 70q19 24 22.5 24t3.5 -4q0 -19 -57.5 -71.5t-104.5 -52.5q-23 0 -41.5 15t-28.5 33
q-28 48 -62.5 48t-91.5 -70q-19 -24 -22.5 -24t-3.5 4q0 19 57.5 71.5t104.5 52.5z" />
    <glyph glyph-name="Adieresis" unicode="&#xc4;" 
d="M404 342h34q40 0 117 -12t106 -12t45 2q14 114 37 216l35 153t20 81.5t8 34t-2 3.5q-8 0 -28 -28zM372 306q-192 -219 -270 -284q-29 -22 -86 -28q-3 0 -22.5 -4t-31.5 -4t-12 8q0 10 16 14q38 13 64 36q151 132 315 297.5t401 442.5l26.5 30.5t21.5 22.5l16 14.5
t15.5 10.5t13.5 8q13 6 26.5 10.5t31 13t24.5 8.5t7 -8v-2q0 -11 -11 -35.5t-11 -26.5q-28 -76 -62.5 -222t-51.5 -276q68 17 124 62q18 14 22 14t4 -5.5t-22 -23t-59.5 -37.5t-70.5 -28q-10 -87 -10 -136q0 -152 64 -152q37 0 95.5 35.5t118 87.5t90.5 99q4 6 8 6t4 -3
t-2 -7q-54 -72 -107.5 -119t-127 -90t-134.5 -43t-79 37.5t-18 117t10 149.5q-90 -10 -125.5 -10t-101.5 11t-81.5 11t-21.5 -2zM856 1054q0 22 20 46q18 24 36 24t27 -10.5t9 -29.5t-18 -42.5t-42 -23.5q-32 0 -32 36zM1008 1054q0 22 20 46q18 24 36 24t27 -10.5t9 -29.5
t-18 -42.5t-42 -23.5q-32 0 -32 36z" />
    <glyph glyph-name="Aring" unicode="&#xc5;" 
d="M404 342h34q40 0 117 -12t106 -12t45 2q14 114 37 216l35 153t20 81.5t8 34t-2 3.5q-8 0 -28 -28zM834 884q-26 19 -26 58.5t36 73.5t76 34t61 -19t21 -52.5t-27.5 -66.5t-66.5 -42q0 -2 -49 -200.5t-67 -337.5q68 17 124 62q18 14 22 14t4 -5.5t-22 -23t-59.5 -37.5
t-70.5 -28q-10 -87 -10 -136q0 -152 64 -152q37 0 95.5 35.5t118 87.5t90.5 99q4 6 8 6t4 -3t-2 -7q-54 -72 -107.5 -119t-127 -90t-134.5 -43t-79 37.5t-18 117t10 149.5q-90 -10 -125.5 -10t-101.5 11t-81.5 11t-21.5 -2q-192 -219 -270 -284q-29 -22 -86 -28
q-3 0 -22.5 -4t-31.5 -4t-12 8q0 10 16 14q38 13 64 36q151 132 315 297.5t401 442.5zM949.5 1006q-16.5 20 -43.5 20t-45.5 -23.5t-18.5 -50t17.5 -44.5t42 -18t44.5 21t20 48t-16.5 47z" />
    <glyph glyph-name="AE" unicode="&#xc6;" horiz-adv-x="1360" 
d="M1304 250l-4 26q0 6 4 6l24 -16q2 -1 4.5 -3.5t4 -3.5t3.5 -3q1 0 2 -2q2 -3 2 -10q0 -30 -26.5 -73.5t-73 -88t-123.5 -75.5t-165 -31q-138 0 -199 59.5t-61 172.5q0 40 6 88q-90 -10 -125.5 -10t-101.5 11t-81.5 11t-21.5 -2q-192 -219 -270 -284q-29 -22 -86 -28
q-3 0 -22.5 -4t-31.5 -4t-12 8q0 10 16 14q38 13 64 36q151 132 315 297.5t401 442.5l26.5 30.5t21.5 22.5l16 14.5t15.5 10.5t13.5 8q13 6 26.5 10.5t31 13t24.5 8.5t7 -8v-2q0 -11 -11 -35.5t-11 -26.5q-54 -144 -100 -404q51 40 120.5 69.5t112.5 42t43 16.5q0 8 -12 16
q-60 41 -60 112.5t80.5 137.5t217.5 66q49 0 104 -12q108 -25 108 -68q0 -12 -11 -29.5t-18 -32t-11 -14.5t-8 12q-12 41 -61.5 80.5t-119 39.5t-113.5 -14q-45 -12 -65 -34q-35 -38 -35 -76.5t21.5 -78.5t54.5 -59q40 -19 40 -24q0 -17 -8 -27t-34 -13q-88 -10 -155 -36
t-106.5 -58.5t-64.5 -74.5q-42 -71 -42 -163q0 -50 21 -88t55 -58q67 -40 140 -40q139 0 221.5 71t82.5 161zM404 342h34q40 0 117 -12t106 -12t45 2q14 114 37 216l35 153t20 81.5t8 34t-2 3.5q-8 0 -28 -28z" />
    <glyph glyph-name="Ccedilla" unicode="&#xc7;" horiz-adv-x="860" 
d="M971.5 777q-20.5 -21 -26.5 -31t-11.5 -10t-5.5 8q0 34 -46 66t-98 32q-100 0 -192 -54q-141 -92 -238.5 -242.5t-97.5 -317.5q0 -92 57 -156t143 -64q144 0 224.5 58.5t109.5 149.5q7 24 12 24q10 0 21 -17.5t11 -29.5t-16 -37t-51 -56t-81.5 -58.5t-116.5 -46.5
t-147 -19q-113 0 -187.5 73.5t-74.5 184.5q0 156 121.5 316.5t296.5 259.5q132 76 270 76q79 0 123 -46q21 -22 21 -32t-20.5 -31zM426 0q0 -4 -54 -94q62 0 89 -27t27 -64.5t-34 -71t-78.5 -33.5t-72 22t-27.5 40q0 3 10 7.5t16 4.5q2 0 9.5 -16t24 -32t44.5 -16t49 22
t21 47t-10 38.5t-28 18.5q-29 8 -52.5 8t-27.5 -4t-11 -4t-7 2q0 4 14 26q48 75 78 126q2 2 11 2t9 -2z" />
    <glyph glyph-name="Egrave" unicode="&#xc8;" horiz-adv-x="834" 
d="M778 250l-4 26q0 6 4 6l24 -16q2 -1 4.5 -3.5t4 -3.5t3.5 -3q1 0 2 -2q2 -3 2 -10q0 -30 -26.5 -73.5t-73 -88t-123.5 -75.5t-171 -31t-180 60t-86 154q0 68 29.5 126t73.5 93.5t96 64t96 42.5q103 34 103 38q0 8 -12 16q-60 41 -60 112.5t80.5 137.5t217.5 66
q49 0 104 -12q108 -25 108 -68q0 -12 -11 -29.5t-18 -32t-11 -14.5t-8 12q-12 41 -61.5 80.5t-119 39.5t-113.5 -14q-45 -12 -65 -34q-35 -38 -35 -76.5t21.5 -78.5t54.5 -59q40 -19 40 -24q0 -17 -8 -27t-34 -13q-88 -10 -155 -36t-106.5 -58.5t-64.5 -74.5
q-42 -71 -42 -163q0 -50 21 -88t55 -58q94 -37 140 -40q139 0 221.5 71t82.5 161zM858 1007q2 -4 2 -5.5t-6 -1.5t-10 8l-112 184q-2 2 -2 13.5t6 24t14.5 12.5t13.5 -10l86 -208q1 -2 3.5 -7.5t4.5 -9.5z" />
    <glyph glyph-name="Eacute" unicode="&#xc9;" horiz-adv-x="834" 
d="M778 250l-4 26q0 6 4 6l24 -16q2 -1 4.5 -3.5t4 -3.5t3.5 -3q1 0 2 -2q2 -3 2 -10q0 -30 -26.5 -73.5t-73 -88t-123.5 -75.5t-171 -31t-180 60t-86 154q0 68 29.5 126t73.5 93.5t96 64t96 42.5q103 34 103 38q0 8 -12 16q-60 41 -60 112.5t80.5 137.5t217.5 66
q49 0 104 -12q108 -25 108 -68q0 -12 -11 -29.5t-18 -32t-11 -14.5t-8 12q-12 41 -61.5 80.5t-119 39.5t-113.5 -14q-45 -12 -65 -34q-35 -38 -35 -76.5t21.5 -78.5t54.5 -59q40 -19 40 -24q0 -17 -8 -27t-34 -13q-88 -10 -155 -36t-106.5 -58.5t-64.5 -74.5
q-42 -71 -42 -163q0 -50 21 -88t55 -58q94 -37 140 -40q139 0 221.5 71t82.5 161zM724 1016l238 138q9 6 16 6q4 0 4 -8t-6.5 -20.5t-13.5 -15.5l-96 -44q-152 -72 -158 -72t-6 1.5t22 14.5z" />
    <glyph glyph-name="Ecircumflex" unicode="&#xca;" horiz-adv-x="834" 
d="M778 250l-4 26q0 6 4 6l24 -16q2 -1 4.5 -3.5t4 -3.5t3.5 -3q1 0 2 -2q2 -3 2 -10q0 -30 -26.5 -73.5t-73 -88t-123.5 -75.5t-171 -31t-180 60t-86 154q0 68 29.5 126t73.5 93.5t96 64t96 42.5q103 34 103 38q0 8 -12 16q-60 41 -60 112.5t80.5 137.5t217.5 66
q49 0 104 -12q108 -25 108 -68q0 -12 -11 -29.5t-18 -32t-11 -14.5t-8 12q-12 41 -61.5 80.5t-119 39.5t-113.5 -14q-45 -12 -65 -34q-35 -38 -35 -76.5t21.5 -78.5t54.5 -59q40 -19 40 -24q0 -17 -8 -27t-34 -13q-88 -10 -155 -36t-106.5 -58.5t-64.5 -74.5
q-42 -71 -42 -163q0 -50 21 -88t55 -58q94 -37 140 -40q139 0 221.5 71t82.5 161zM910 1150q21 16 30 16t11 -6t27.5 -56.5t25.5 -76.5q0 -2 -12 -7.5t-20 -12.5t-10 -7l-2 -1v1q-23 57 -52 118l-192 -106q-18 -10 -30 -10l-2 2q0 2 20 14z" />
    <glyph glyph-name="Edieresis" unicode="&#xcb;" horiz-adv-x="834" 
d="M778 250l-4 26q0 6 4 6l24 -16q2 -1 4.5 -3.5t4 -3.5t3.5 -3q1 0 2 -2q2 -3 2 -10q0 -30 -26.5 -73.5t-73 -88t-123.5 -75.5t-171 -31t-180 60t-86 154q0 68 29.5 126t73.5 93.5t96 64t96 42.5q103 34 103 38q0 8 -12 16q-60 41 -60 112.5t80.5 137.5t217.5 66
q49 0 104 -12q108 -25 108 -68q0 -12 -11 -29.5t-18 -32t-11 -14.5t-8 12q-12 41 -61.5 80.5t-119 39.5t-113.5 -14q-45 -12 -65 -34q-35 -38 -35 -76.5t21.5 -78.5t54.5 -59q40 -19 40 -24q0 -17 -8 -27t-34 -13q-88 -10 -155 -36t-106.5 -58.5t-64.5 -74.5
q-42 -71 -42 -163q0 -50 21 -88t55 -58q94 -37 140 -40q139 0 221.5 71t82.5 161zM760 1054q0 22 20 46q18 24 36 24t27 -10.5t9 -29.5t-18 -42.5t-42 -23.5q-32 0 -32 36zM912 1054q0 22 20 46q18 24 36 24t27 -10.5t9 -29.5t-18 -42.5t-42 -23.5q-32 0 -32 36z" />
    <glyph glyph-name="Igrave" unicode="&#xcc;" horiz-adv-x="690" 
d="M564 796q38 55 38 86.5t-22 49.5t-63 18t-81 -23.5t-40 -72.5q0 -23 12 -31t20 -12.5t22.5 -7t25 -4t28.5 -2.5q20 -1 30 -1h30zM166 230q-20 -24 -20 -73.5t42.5 -100t95 -50.5t96 50.5t90.5 151.5q161 338 350 602q-33 -10 -116.5 -21t-127.5 -13q-26 -33 -90 -95.5
t-116 -106.5q-16 -16 -22 -16t-6 4q0 7 23 25.5t88 85t95 103.5q-208 0 -208 68q0 38 43.5 69.5t94 46t86.5 14.5q84 0 84 -56q0 -33 -56 -120q136 7 220 38q18 7 61.5 13.5t58 6.5t14.5 -6q0 -2 -12.5 -10.5t-15.5 -13.5q-108 -155 -181.5 -282.5t-168.5 -319.5
q-116 -236 -326 -236q-64 0 -115 40.5t-51 107.5q0 6 19 25t33.5 36.5l22 27t9.5 9.5q6 0 6 -4zM820 1007q2 -4 2 -5.5t-6 -1.5t-10 8l-112 184q-2 2 -2 13.5t6 24t14.5 12.5t13.5 -10l86 -208q1 -2 3.5 -7.5t4.5 -9.5z" />
    <glyph glyph-name="Iacute" unicode="&#xcd;" horiz-adv-x="690" 
d="M564 796q38 55 38 86.5t-22 49.5t-63 18t-81 -23.5t-40 -72.5q0 -23 12 -31t20 -12.5t22.5 -7t25 -4t28.5 -2.5q20 -1 30 -1h30zM166 230q-20 -24 -20 -73.5t42.5 -100t95 -50.5t96 50.5t90.5 151.5q161 338 350 602q-33 -10 -116.5 -21t-127.5 -13q-26 -33 -90 -95.5
t-116 -106.5q-16 -16 -22 -16t-6 4q0 7 23 25.5t88 85t95 103.5q-208 0 -208 68q0 38 43.5 69.5t94 46t86.5 14.5q84 0 84 -56q0 -33 -56 -120q136 7 220 38q18 7 61.5 13.5t58 6.5t14.5 -6q0 -2 -12.5 -10.5t-15.5 -13.5q-108 -155 -181.5 -282.5t-168.5 -319.5
q-116 -236 -326 -236q-64 0 -115 40.5t-51 107.5q0 6 19 25t33.5 36.5l22 27t9.5 9.5q6 0 6 -4zM720 1016l238 138q9 6 16 6q4 0 4 -8t-6.5 -20.5t-13.5 -15.5l-96 -44q-152 -72 -158 -72t-6 1.5t22 14.5z" />
    <glyph glyph-name="Icircumflex" unicode="&#xce;" horiz-adv-x="690" 
d="M564 796q38 55 38 86.5t-22 49.5t-63 18t-81 -23.5t-40 -72.5q0 -23 12 -31t20 -12.5t22.5 -7t25 -4t28.5 -2.5q20 -1 30 -1h30zM166 230q-20 -24 -20 -73.5t42.5 -100t95 -50.5t96 50.5t90.5 151.5q161 338 350 602q-33 -10 -116.5 -21t-127.5 -13q-26 -33 -90 -95.5
t-116 -106.5q-16 -16 -22 -16t-6 4q0 7 23 25.5t88 85t95 103.5q-208 0 -208 68q0 38 43.5 69.5t94 46t86.5 14.5q84 0 84 -56q0 -33 -56 -120q136 7 220 38q18 7 61.5 13.5t58 6.5t14.5 -6q0 -2 -12.5 -10.5t-15.5 -13.5q-108 -155 -181.5 -282.5t-168.5 -319.5
q-116 -236 -326 -236q-64 0 -115 40.5t-51 107.5q0 6 19 25t33.5 36.5l22 27t9.5 9.5q6 0 6 -4zM906 1150q21 16 30 16t11 -6t27.5 -56.5t25.5 -76.5q0 -2 -12 -7.5t-20 -12.5t-10 -7l-2 -1v1q-23 57 -52 118l-192 -106q-18 -10 -30 -10l-2 2q0 2 20 14z" />
    <glyph glyph-name="Idieresis" unicode="&#xcf;" horiz-adv-x="690" 
d="M564 796q38 55 38 86.5t-22 49.5t-63 18t-81 -23.5t-40 -72.5q0 -23 12 -31t20 -12.5t22.5 -7t25 -4t28.5 -2.5q20 -1 30 -1h30zM166 230q-20 -24 -20 -73.5t42.5 -100t95 -50.5t96 50.5t90.5 151.5q161 338 350 602q-33 -10 -116.5 -21t-127.5 -13q-26 -33 -90 -95.5
t-116 -106.5q-16 -16 -22 -16t-6 4q0 7 23 25.5t88 85t95 103.5q-208 0 -208 68q0 38 43.5 69.5t94 46t86.5 14.5q84 0 84 -56q0 -33 -56 -120q136 7 220 38q18 7 61.5 13.5t58 6.5t14.5 -6q0 -2 -12.5 -10.5t-15.5 -13.5q-108 -155 -181.5 -282.5t-168.5 -319.5
q-116 -236 -326 -236q-64 0 -115 40.5t-51 107.5q0 6 19 25t33.5 36.5l22 27t9.5 9.5q6 0 6 -4zM756 1054q0 22 20 46q18 24 36 24t27 -10.5t9 -29.5t-18 -42.5t-42 -23.5q-32 0 -32 36zM908 1054q0 22 20 46q18 24 36 24t27 -10.5t9 -29.5t-18 -42.5t-42 -23.5
q-32 0 -32 36z" />
    <glyph glyph-name="Eth" unicode="&#xd0;" horiz-adv-x="1370" 
d="M480 186q-53 74 -76 92t-44 18q-59 0 -116.5 -73.5t-57.5 -132.5q0 -64 80 -64q42 0 100.5 39.5t113.5 120.5zM558 240q10 -18 28 -57t32 -64.5t36 -54.5q45 -58 127.5 -58t157.5 47t124.5 121.5t78 164.5t28.5 177q0 284 -266 338q-83 -165 -184.5 -347.5t-161.5 -266.5
zM392 614q0 -12 6 -28q0 -4 -7 -4t-19 12t-20 18q-16 12 -16 24q0 69 68.5 128t166.5 90.5t195 31.5q44 0 64 -2q10 23 10 44q0 42 -23.5 60t-65 18t-73 -13t-51 -26t-21.5 -13q-6 0 -6 6q0 4 22 20t65 33t81.5 17t68.5 -7.5t56.5 -32t26.5 -64.5q0 -22 -10 -52
q346 -57 346 -406q0 -94 -38 -184t-102 -156.5t-152.5 -107t-183.5 -40.5q-70 0 -132 28q-22 10 -49.5 36.5t-42 43.5t-34 42.5t-24.5 31.5q-53 -60 -95 -95.5t-92.5 -59t-87.5 -23.5t-65 18t-28 56t31 90.5t75 97t97.5 75.5t94.5 31q52 0 106 -76q90 159 169 323.5
t119 266.5q-20 2 -62 2q-82 0 -168 -36.5t-143 -96.5t-57 -121zM916 500q4 0 4 -5t-36 -25q-29 -18 -36 -18q-48 -1 -176 -2t-224 -6q-4 0 -4 2q0 6 32 26t44 20q176 8 396 8z" />
    <glyph glyph-name="Ntilde" unicode="&#xd1;" horiz-adv-x="910" 
d="M710 36q-12 -31 -34.5 -45.5t-41.5 -14.5q-40 0 -40 96l4 688q0 34 -1 41t-5 7q-12 0 -30 -36l-388 -736q-12 -24 -38 -36q-22 -11 -30 -21.5t-14 -10.5t-6 4t6 18q78 173 78 238.5t-16 65.5q-5 0 -13.5 -5t-12.5 -5t-4 6l32 20q5 3 12 8q14 10 22 10t22 -10
q28 -20 28 -70l308 566q12 25 37.5 41.5t62.5 16.5q34 0 34 -60l-6 -738q33 82 188 383.5t200 344.5q54 54 88 66q15 6 31.5 6t31.5 -7.5t15 -15.5t-15 -21l-30 -28q-33 -29 -34 -28q-5 0 -5 6t-7 12t-17 6q-29 0 -52 -34q-79 -115 -198.5 -367.5t-161.5 -360.5zM908 1128
q21 0 39 -15t28.5 -33t27.5 -33t37 -15q35 0 92 70q19 24 22.5 24t3.5 -4q0 -19 -57.5 -71.5t-104.5 -52.5q-23 0 -41.5 15t-28.5 33q-28 48 -62.5 48t-91.5 -70q-19 -24 -22.5 -24t-3.5 4q0 19 57.5 71.5t104.5 52.5z" />
    <glyph glyph-name="Ograve" unicode="&#xd2;" horiz-adv-x="960" 
d="M1046.5 799q23.5 -89 23.5 -180.5t-41 -193t-108 -181t-148.5 -141t-167.5 -94.5t-160.5 -33t-140 30.5t-108 94t-42.5 153.5t48 204q108 253 324 366q118 62 242 62q54 0 111 -34.5t57 -73.5q0 -6 -9 -20t-13 -21q-2 -7 -8 -19q-11 -22 -16 -22q-10 0 -10 10
q0 41 -16 71.5t-41 45.5q-48 29 -97 29q-224 0 -370 -218q-120 -178 -120 -328q0 -120 65 -195t171 -75q128 0 252.5 79t204 209.5t79.5 269.5q0 51 -9.5 86.5t-16.5 57.5t-14 39t-13 29.5l-13 27.5q0 6 20.5 30t31.5 24q29 0 52.5 -89zM854 1007q2 -4 2 -5.5t-6 -1.5t-10 8
l-112 184q-2 2 -2 13.5t6 24t14.5 12.5t13.5 -10l86 -208q1 -2 3.5 -7.5t4.5 -9.5z" />
    <glyph glyph-name="Oacute" unicode="&#xd3;" horiz-adv-x="960" 
d="M1046.5 799q23.5 -89 23.5 -180.5t-41 -193t-108 -181t-148.5 -141t-167.5 -94.5t-160.5 -33t-140 30.5t-108 94t-42.5 153.5t48 204q108 253 324 366q118 62 242 62q54 0 111 -34.5t57 -73.5q0 -6 -9 -20t-13 -21q-2 -7 -8 -19q-11 -22 -16 -22q-10 0 -10 10
q0 41 -16 71.5t-41 45.5q-48 29 -97 29q-224 0 -370 -218q-120 -178 -120 -328q0 -120 65 -195t171 -75q128 0 252.5 79t204 209.5t79.5 269.5q0 51 -9.5 86.5t-16.5 57.5t-14 39t-13 29.5l-13 27.5q0 6 20.5 30t31.5 24q29 0 52.5 -89zM766 1016l238 138q9 6 16 6q4 0 4 -8
t-6.5 -20.5t-13.5 -15.5l-96 -44q-152 -72 -158 -72t-6 1.5t22 14.5z" />
    <glyph glyph-name="Ocircumflex" unicode="&#xd4;" horiz-adv-x="960" 
d="M1046.5 799q23.5 -89 23.5 -180.5t-41 -193t-108 -181t-148.5 -141t-167.5 -94.5t-160.5 -33t-140 30.5t-108 94t-42.5 153.5t48 204q108 253 324 366q118 62 242 62q54 0 111 -34.5t57 -73.5q0 -6 -9 -20t-13 -21q-2 -7 -8 -19q-11 -22 -16 -22q-10 0 -10 10
q0 41 -16 71.5t-41 45.5q-48 29 -97 29q-224 0 -370 -218q-120 -178 -120 -328q0 -120 65 -195t171 -75q128 0 252.5 79t204 209.5t79.5 269.5q0 51 -9.5 86.5t-16.5 57.5t-14 39t-13 29.5l-13 27.5q0 6 20.5 30t31.5 24q29 0 52.5 -89zM906 1150q21 16 30 16t11 -6
t27.5 -56.5t25.5 -76.5q0 -2 -12 -7.5t-20 -12.5t-10 -7l-2 -1v1q-23 57 -52 118l-192 -106q-18 -10 -30 -10l-2 2q0 2 20 14z" />
    <glyph glyph-name="Otilde" unicode="&#xd5;" horiz-adv-x="960" 
d="M1046.5 799q23.5 -89 23.5 -180.5t-41 -193t-108 -181t-148.5 -141t-167.5 -94.5t-160.5 -33t-140 30.5t-108 94t-42.5 153.5t48 204q108 253 324 366q118 62 242 62q54 0 111 -34.5t57 -73.5q0 -6 -9 -20t-13 -21q-2 -7 -8 -19q-11 -22 -16 -22q-10 0 -10 10
q0 41 -16 71.5t-41 45.5q-48 29 -97 29q-224 0 -370 -218q-120 -178 -120 -328q0 -120 65 -195t171 -75q128 0 252.5 79t204 209.5t79.5 269.5q0 51 -9.5 86.5t-16.5 57.5t-14 39t-13 29.5l-13 27.5q0 6 20.5 30t31.5 24q29 0 52.5 -89zM836 1128q21 0 39 -15t28.5 -33
t27.5 -33t37 -15q35 0 92 70q19 24 22.5 24t3.5 -4q0 -19 -57.5 -71.5t-104.5 -52.5q-23 0 -41.5 15t-28.5 33q-28 48 -62.5 48t-91.5 -70q-19 -24 -22.5 -24t-3.5 4q0 19 57.5 71.5t104.5 52.5z" />
    <glyph glyph-name="Odieresis" unicode="&#xd6;" horiz-adv-x="960" 
d="M1046.5 799q23.5 -89 23.5 -180.5t-41 -193t-108 -181t-148.5 -141t-167.5 -94.5t-160.5 -33t-140 30.5t-108 94t-42.5 153.5t48 204q108 253 324 366q118 62 242 62q54 0 111 -34.5t57 -73.5q0 -6 -9 -20t-13 -21q-2 -7 -8 -19q-11 -22 -16 -22q-10 0 -10 10
q0 41 -16 71.5t-41 45.5q-48 29 -97 29q-224 0 -370 -218q-120 -178 -120 -328q0 -120 65 -195t171 -75q128 0 252.5 79t204 209.5t79.5 269.5q0 51 -9.5 86.5t-16.5 57.5t-14 39t-13 29.5l-13 27.5q0 6 20.5 30t31.5 24q29 0 52.5 -89zM756 1054q0 22 20 46q18 24 36 24
t27 -10.5t9 -29.5t-18 -42.5t-42 -23.5q-32 0 -32 36zM908 1054q0 22 20 46q18 24 36 24t27 -10.5t9 -29.5t-18 -42.5t-42 -23.5q-32 0 -32 36z" />
    <glyph glyph-name="multiply" unicode="&#xd7;" horiz-adv-x="826" 
d="M484 244l-75 -70.5l-64.5 -62l-48.5 -45.5q-57 -42 -65 -42h-1q-2 0 -4 2t-2 4q0 20 157 166l79 74l-70 67q-168 160 -168 177q0 7 8.5 14t16 14.5t17.5 7.5q8 0 180 -182l58 -60l93.5 95l85 88t43.5 36t25 5t20.5 -5t8.5 -11l-254 -236q16 -20 122 -124.5t114 -115.5
t8 -16q0 -10 -14 -10t-24 4q-18 6 -189 171z" />
    <glyph glyph-name="Oslash" unicode="&#xd8;" horiz-adv-x="960" 
d="M1046.5 799q23.5 -89 23.5 -180.5t-41 -193t-108 -181t-148.5 -141t-167.5 -94.5t-160.5 -33t-140 30.5t-108 94t-42.5 153.5t48 204q108 253 324 366q118 62 242 62q54 0 111 -34.5t57 -73.5q0 -6 -9 -20t-13 -21q-2 -7 -8 -19q-11 -22 -16 -22q-10 0 -10 10
q0 41 -16 71.5t-41 45.5q-48 29 -97 29q-224 0 -370 -218q-120 -178 -120 -328q0 -120 65 -195t171 -75q128 0 252.5 79t204 209.5t79.5 269.5q0 51 -9.5 86.5t-16.5 57.5t-14 39t-13 29.5l-13 27.5q0 6 20.5 30t31.5 24q29 0 52.5 -89zM1198 780q8 0 8 -6t-4 -8t-46 -26
q-44 -24 -120 -72l-826 -512q-126 -80 -140 -80t-14 10q0 4 3 6t41 23t108 63l824 514q111 72 134 80q24 8 32 8z" />
    <glyph glyph-name="Ugrave" unicode="&#xd9;" horiz-adv-x="1016" 
d="M548.5 858q33.5 -28 33.5 -66.5t-29.5 -102t-71.5 -135.5l-84 -144q-101 -174 -101 -252q0 -63 32.5 -94.5t82.5 -31.5t106 26q57 26 109 70q93 78 172 174q102 219 156 314.5t124 183.5q47 58 82 58q12 0 12 -8q0 -48 -198 -348q-24 -36 -26 -38q-45 -68 -98.5 -197
t-53.5 -195q0 -21 13 -31.5t50.5 -10.5t101 34t109 71t76 68.5t38.5 44.5q4 6 8 6t4 -3t-2 -7q-59 -72 -116 -119.5t-136.5 -90t-149.5 -42.5q-37 0 -54.5 20t-17.5 52q0 52 46 156l-92 -85q-36 -30 -92 -71q-110 -80 -216 -80q-73 0 -118.5 42t-45.5 114q0 53 46 154
q46 102 102 194q148 244 148 292q0 78 -80 78q-46 0 -83.5 -16.5t-69 -48t-35.5 -31.5t-4 6t22 28q87 90 206 90q61 0 94.5 -28zM884 1007q2 -4 2 -5.5t-6 -1.5t-10 8l-112 184q-2 2 -2 13.5t6 24t14.5 12.5t13.5 -10l86 -208q1 -2 3.5 -7.5t4.5 -9.5z" />
    <glyph glyph-name="Uacute" unicode="&#xda;" horiz-adv-x="1016" 
d="M548.5 858q33.5 -28 33.5 -66.5t-29.5 -102t-71.5 -135.5l-84 -144q-101 -174 -101 -252q0 -63 32.5 -94.5t82.5 -31.5t106 26q57 26 109 70q93 78 172 174q102 219 156 314.5t124 183.5q47 58 82 58q12 0 12 -8q0 -48 -198 -348q-24 -36 -26 -38q-45 -68 -98.5 -197
t-53.5 -195q0 -21 13 -31.5t50.5 -10.5t101 34t109 71t76 68.5t38.5 44.5q4 6 8 6t4 -3t-2 -7q-59 -72 -116 -119.5t-136.5 -90t-149.5 -42.5q-37 0 -54.5 20t-17.5 52q0 52 46 156l-92 -85q-36 -30 -92 -71q-110 -80 -216 -80q-73 0 -118.5 42t-45.5 114q0 53 46 154
q46 102 102 194q148 244 148 292q0 78 -80 78q-46 0 -83.5 -16.5t-69 -48t-35.5 -31.5t-4 6t22 28q87 90 206 90q61 0 94.5 -28zM796 1016l238 138q9 6 16 6q4 0 4 -8t-6.5 -20.5t-13.5 -15.5l-96 -44q-152 -72 -158 -72t-6 1.5t22 14.5z" />
    <glyph glyph-name="Ucircumflex" unicode="&#xdb;" horiz-adv-x="1016" 
d="M548.5 858q33.5 -28 33.5 -66.5t-29.5 -102t-71.5 -135.5l-84 -144q-101 -174 -101 -252q0 -63 32.5 -94.5t82.5 -31.5t106 26q57 26 109 70q93 78 172 174q102 219 156 314.5t124 183.5q47 58 82 58q12 0 12 -8q0 -48 -198 -348q-24 -36 -26 -38q-45 -68 -98.5 -197
t-53.5 -195q0 -21 13 -31.5t50.5 -10.5t101 34t109 71t76 68.5t38.5 44.5q4 6 8 6t4 -3t-2 -7q-59 -72 -116 -119.5t-136.5 -90t-149.5 -42.5q-37 0 -54.5 20t-17.5 52q0 52 46 156l-92 -85q-36 -30 -92 -71q-110 -80 -216 -80q-73 0 -118.5 42t-45.5 114q0 53 46 154
q46 102 102 194q148 244 148 292q0 78 -80 78q-46 0 -83.5 -16.5t-69 -48t-35.5 -31.5t-4 6t22 28q87 90 206 90q61 0 94.5 -28zM936 1150q21 16 30 16t11 -6t27.5 -56.5t25.5 -76.5q0 -2 -12 -7.5t-20 -12.5t-10 -7l-2 -1v1q-23 57 -52 118l-192 -106q-18 -10 -30 -10l-2 2
q0 2 20 14z" />
    <glyph glyph-name="Udieresis" unicode="&#xdc;" horiz-adv-x="1016" 
d="M548.5 858q33.5 -28 33.5 -66.5t-29.5 -102t-71.5 -135.5l-84 -144q-101 -174 -101 -252q0 -63 32.5 -94.5t82.5 -31.5t106 26q57 26 109 70q93 78 172 174q102 219 156 314.5t124 183.5q47 58 82 58q12 0 12 -8q0 -48 -198 -348q-24 -36 -26 -38q-45 -68 -98.5 -197
t-53.5 -195q0 -21 13 -31.5t50.5 -10.5t101 34t109 71t76 68.5t38.5 44.5q4 6 8 6t4 -3t-2 -7q-59 -72 -116 -119.5t-136.5 -90t-149.5 -42.5q-37 0 -54.5 20t-17.5 52q0 52 46 156l-92 -85q-36 -30 -92 -71q-110 -80 -216 -80q-73 0 -118.5 42t-45.5 114q0 53 46 154
q46 102 102 194q148 244 148 292q0 78 -80 78q-46 0 -83.5 -16.5t-69 -48t-35.5 -31.5t-4 6t22 28q87 90 206 90q61 0 94.5 -28zM786 1054q0 22 20 46q18 24 36 24t27 -10.5t9 -29.5t-18 -42.5t-42 -23.5q-32 0 -32 36zM938 1054q0 22 20 46q18 24 36 24t27 -10.5t9 -29.5
t-18 -42.5t-42 -23.5q-32 0 -32 36z" />
    <glyph glyph-name="Yacute" unicode="&#xdd;" horiz-adv-x="1016" 
d="M582 -168q-250 -125 -382 -219q-152 -109 -229 -207q-42 -54 -69.5 -117.5t-27.5 -117.5q0 -107 92 -107q203 0 382 330q166 297 234 438zM944 464q-55 -90 -140 -285t-128 -275q234 110 402 238q37 30 67.5 61.5t38.5 44.5q4 6 8 6t4 -3t-2 -7q-60 -75 -119.5 -124
t-175.5 -118.5t-241 -131.5q-83 -166 -262 -468q-76 -126 -184 -234q-60 -60 -132 -97t-147.5 -37t-116 36.5t-40.5 99t33 128t83.5 121.5t126.5 115.5t145.5 103.5t158.5 93q120 66 277 139l166 350q-115 -108 -159 -143q-122 -93 -229 -93q-74 0 -119 40t-45 112
q0 54 44.5 156t98.5 195q143 246 143 293q0 35 -20.5 56.5t-64 21.5t-81 -16.5t-80.5 -59.5q-5 -5 -10 -11q-9 -11 -12 -11q-6 0 -6 7t22 29q87 90 206 90q60 0 93 -28.5t33 -71.5q0 -49 -136 -286q-51 -89 -93.5 -189t-42.5 -159.5t32 -89.5t84 -30q150 0 374 270
l53.5 115.5l46.5 100l36.5 76.5t35.5 70.5l30 53.5q30 53 56 85q26 31 32 37q18 18 35 18t17 -8q0 -36 -78.5 -181t-117.5 -205zM796 1016l238 138q9 6 16 6q4 0 4 -8t-6.5 -20.5t-13.5 -15.5l-96 -44q-152 -72 -158 -72t-6 1.5t22 14.5z" />
    <glyph glyph-name="Thorn" unicode="&#xde;" horiz-adv-x="716" 
d="M280 194q564 147 564 354q0 44 -29 77t-80.5 33t-107.5 -33t-103.5 -81.5t-96.5 -115.5q-73 -100 -147 -234zM422 476q188 238 368 238q61 0 99.5 -32.5t38.5 -93.5q0 -110 -128 -204q-77 -56 -150.5 -89t-114.5 -48.5t-91 -32.5q-50 -16 -78 -24q-94 -26 -100 -28
q-42 -81 -68 -156q-5 -12 -11.5 -14.5t-32.5 -4.5t-35.5 -4.5t-13 -4t-6 -3t-3.5 -1.5q-10 0 -10 6q0 4 3 8q15 22 105 193.5l173 338t95 201t12 64t-21 47.5t-53 18q-78 0 -146 -68q-20 -20 -22 -20q-6 0 -6 6t22 28q44 46 97 68t89 22q60 0 91 -28.5t31 -71.5
q0 -85 -134 -310z" />
    <glyph glyph-name="germandbls" unicode="&#xdf;" horiz-adv-x="666" 
d="M-536 -684l-4 -8q0 -32 20.5 -51t47.5 -19q88 0 202 178q95 149 216 392l322 626q-24 8 -38 8t-27 -4l-25 -12q-18 -10 -35.5 -22t-20 -12t-2.5 4t6 8q1 0 13 9t23.5 16.5t27.5 16.5q36 20 55 20t37 -6q3 6 22.5 41.5l30 55l32 57.5l39 67.5l40.5 66.5q55 88 94 142
q95 132 192 203t158 71q17 0 26.5 -19t9.5 -44t-11.5 -58.5t-25 -56t-35.5 -54.5q-60 -78 -210 -213q-46 -42 -82 -92t-36 -89q0 -19 12.5 -33t31.5 -21t41 -18t41 -24.5t31.5 -41.5t12.5 -75t-39 -113t-96 -118t-124.5 -87t-114 -35t-94 16t-48.5 42q0 13 26.5 48.5
t35.5 35.5q2 0 2 -4l-2 -26q0 -39 21.5 -67.5t66.5 -28.5t112.5 50.5t118.5 130t51 151.5q0 41 -16.5 66t-39.5 35t-46 17q-56 17 -56 55t18 71t54 70t77.5 75t102.5 103.5t116 137.5q38 51 38 122q0 19 -9 35.5t-21 16.5q-36 0 -83 -47.5t-134 -170t-180.5 -291.5
l-218 -412t-172.5 -329.5l-79.5 -145.5l-50 -92l-50.5 -88.5t-55.5 -89.5l-56.5 -78.5t-63 -71.5t-64 -52.5t-70 -37.5t-73 -12t-62.5 23t-25.5 49q0 4 20 14t26.5 14t10 6.5t5.5 4.5q3 3 6.5 3t3.5 -4z" />
    <glyph glyph-name="agrave" unicode="&#xe0;" horiz-adv-x="612" 
d="M434 168q102 102 102 136q0 8 -8 8q-20 0 -94 -144zM414 438q-63 0 -128.5 -56t-105.5 -134t-40 -146t56 -68q62 0 138 56q21 74 86 162q60 85 100 100q-34 86 -106 86zM410 462q96 0 126 -106q26 0 26 -22q0 -27 -9 -44.5l-13.5 -26t-15.5 -21.5q-12 -13 -16 -18
q-41 -46 -86 -86q-16 -52 -16 -70q0 -42 67 -42t166.5 80t140.5 142q4 6 8 6t4 -3t-2 -7q-54 -72 -107.5 -119t-131 -92t-141.5 -45q-80 0 -80 64q0 3 1 9t1 9q-113 -70 -186 -70q-84 0 -84 102q0 74 52.5 158.5t135 143t160.5 58.5zM494 555q2 -4 2 -5.5t-6 -1.5t-10 8
l-112 184q-2 2 -2 13.5t6 24t14.5 12.5t13.5 -10l86 -208q1 -2 3.5 -7.5t4.5 -9.5z" />
    <glyph glyph-name="aacute" unicode="&#xe1;" horiz-adv-x="612" 
d="M434 168q102 102 102 136q0 8 -8 8q-20 0 -94 -144zM414 438q-63 0 -128.5 -56t-105.5 -134t-40 -146t56 -68q62 0 138 56q21 74 86 162q60 85 100 100q-34 86 -106 86zM410 462q96 0 126 -106q26 0 26 -22q0 -27 -9 -44.5l-13.5 -26t-15.5 -21.5q-12 -13 -16 -18
q-41 -46 -86 -86q-16 -52 -16 -70q0 -42 67 -42t166.5 80t140.5 142q4 6 8 6t4 -3t-2 -7q-54 -72 -107.5 -119t-131 -92t-141.5 -45q-80 0 -80 64q0 3 1 9t1 9q-113 -70 -186 -70q-84 0 -84 102q0 74 52.5 158.5t135 143t160.5 58.5zM406 564l238 138q9 6 16 6q4 0 4 -8
t-6.5 -20.5t-13.5 -15.5l-96 -44q-152 -72 -158 -72t-6 1.5t22 14.5z" />
    <glyph glyph-name="acircumflex" unicode="&#xe2;" horiz-adv-x="612" 
d="M434 168q102 102 102 136q0 8 -8 8q-20 0 -94 -144zM414 438q-63 0 -128.5 -56t-105.5 -134t-40 -146t56 -68q62 0 138 56q21 74 86 162q60 85 100 100q-34 86 -106 86zM410 462q96 0 126 -106q26 0 26 -22q0 -27 -9 -44.5l-13.5 -26t-15.5 -21.5q-12 -13 -16 -18
q-41 -46 -86 -86q-16 -52 -16 -70q0 -42 67 -42t166.5 80t140.5 142q4 6 8 6t4 -3t-2 -7q-54 -72 -107.5 -119t-131 -92t-141.5 -45q-80 0 -80 64q0 3 1 9t1 9q-113 -70 -186 -70q-84 0 -84 102q0 74 52.5 158.5t135 143t160.5 58.5zM546 698q21 16 30 16t11 -6t27.5 -56.5
t25.5 -76.5q0 -2 -12 -7.5t-20 -12.5t-10 -7l-2 -1v1q-23 57 -52 118l-192 -106q-18 -10 -30 -10l-2 2q0 2 20 14z" />
    <glyph glyph-name="atilde" unicode="&#xe3;" horiz-adv-x="612" 
d="M434 168q102 102 102 136q0 8 -8 8q-20 0 -94 -144zM414 438q-63 0 -128.5 -56t-105.5 -134t-40 -146t56 -68q62 0 138 56q21 74 86 162q60 85 100 100q-34 86 -106 86zM410 462q96 0 126 -106q26 0 26 -22q0 -27 -9 -44.5l-13.5 -26t-15.5 -21.5q-12 -13 -16 -18
q-41 -46 -86 -86q-16 -52 -16 -70q0 -42 67 -42t166.5 80t140.5 142q4 6 8 6t4 -3t-2 -7q-54 -72 -107.5 -119t-131 -92t-141.5 -45q-80 0 -80 64q0 3 1 9t1 9q-113 -70 -186 -70q-84 0 -84 102q0 74 52.5 158.5t135 143t160.5 58.5zM476 676q21 0 39 -15t28.5 -33t27.5 -33
t37 -15q35 0 92 70q19 24 22.5 24t3.5 -4q0 -19 -57.5 -71.5t-104.5 -52.5q-23 0 -41.5 15t-28.5 33q-28 48 -62.5 48t-91.5 -70q-19 -24 -22.5 -24t-3.5 4q0 19 57.5 71.5t104.5 52.5z" />
    <glyph glyph-name="adieresis" unicode="&#xe4;" horiz-adv-x="612" 
d="M434 168q102 102 102 136q0 8 -8 8q-20 0 -94 -144zM414 438q-63 0 -128.5 -56t-105.5 -134t-40 -146t56 -68q62 0 138 56q21 74 86 162q60 85 100 100q-34 86 -106 86zM410 462q96 0 126 -106q26 0 26 -22q0 -27 -9 -44.5l-13.5 -26t-15.5 -21.5q-12 -13 -16 -18
q-41 -46 -86 -86q-16 -52 -16 -70q0 -42 67 -42t166.5 80t140.5 142q4 6 8 6t4 -3t-2 -7q-54 -72 -107.5 -119t-131 -92t-141.5 -45q-80 0 -80 64q0 3 1 9t1 9q-113 -70 -186 -70q-84 0 -84 102q0 74 52.5 158.5t135 143t160.5 58.5zM396 602q0 22 20 46q18 24 36 24
t27 -10.5t9 -29.5t-18 -42.5t-42 -23.5q-32 0 -32 36zM548 602q0 22 20 46q18 24 36 24t27 -10.5t9 -29.5t-18 -42.5t-42 -23.5q-32 0 -32 36z" />
    <glyph glyph-name="aring" unicode="&#xe5;" horiz-adv-x="612" 
d="M434 168q102 102 102 136q0 8 -8 8q-20 0 -94 -144zM414 438q-63 0 -128.5 -56t-105.5 -134t-40 -146t56 -68q62 0 138 56q21 74 86 162q60 85 100 100q-34 86 -106 86zM410 462q96 0 126 -106q26 0 26 -22q0 -27 -9 -44.5l-13.5 -26t-15.5 -21.5q-12 -13 -16 -18
q-41 -46 -86 -86q-16 -52 -16 -70q0 -42 67 -42t166.5 80t140.5 142q4 6 8 6t4 -3t-2 -7q-54 -72 -107.5 -119t-131 -92t-141.5 -45q-80 0 -80 64q0 3 1 9t1 9q-113 -70 -186 -70q-84 0 -84 102q0 74 52.5 158.5t135 143t160.5 58.5zM557.5 686q-16.5 20 -43.5 20
t-45.5 -23.5t-18.5 -50t17.5 -44.5t42 -18t44.5 21t20 48t-16.5 47zM416 616q0 46 36 80t76 34t61 -19t21 -56t-35 -72t-74.5 -35t-62 19t-22.5 49z" />
    <glyph glyph-name="ae" unicode="&#xe6;" horiz-adv-x="738" 
d="M532 374q47 43 93.5 67.5t72.5 24.5q52 0 52 -40q0 -15 -11 -30.5t-40.5 -38.5t-56 -41.5l-84 -57.5l-98.5 -68q-18 -51 -18 -91t24.5 -63.5t79.5 -23.5t127.5 38t137 94.5t95.5 103.5q4 6 8 6t4 -3t-2 -7q-39 -52 -104 -110q-103 -91 -174 -116.5t-160 -25.5
q-51 0 -88 35q-22 21 -22 50t4 47q-143 -124 -228 -124q-82 0 -82 102q0 74 53 158.5t136 143t165.5 58.5t115.5 -88zM518 360q-33 78 -99 78t-132 -56t-107.5 -134t-41.5 -146t56 -68q53 0 182 108q40 123 142 218zM468 208q118 85 168 131.5t50 72.5t-22 26
q-49 0 -105 -70.5t-91 -159.5z" />
    <glyph glyph-name="ccedilla" unicode="&#xe7;" horiz-adv-x="468" 
d="M177 244.5q-33 -73.5 -33 -127t23.5 -84.5t86.5 -31t141.5 42t144 99.5t96.5 104.5q4 6 8 6t4 -3t-2 -7q-43 -57 -100 -108q-176 -158 -330 -158q-64 0 -106 28t-42 88q0 62 39 134q38 71 91.5 122.5t111 84.5t90 33t46.5 -16t14 -38.5t-6 -31t-29 -20.5t-29 -12t-6 2
t1 4q3 8 3 26t-15 32t-31 14q-40 0 -89 -55t-82 -128.5zM216 0q0 -4 -54 -94q62 0 89 -27t27 -64.5t-34 -71t-78.5 -33.5t-72 22t-27.5 40q0 3 10 7.5t16 4.5q2 0 9.5 -16t24 -32t44.5 -16t49 22t21 47t-10 38.5t-28 18.5q-29 8 -52.5 8t-27.5 -4t-11 -4t-7 2q0 4 14 26
q48 75 78 126q2 2 11 2t9 -2z" />
    <glyph glyph-name="egrave" unicode="&#xe8;" horiz-adv-x="434" 
d="M68 128l-40 -32q-2 0 -2 4t7 11t39 31q23 72 69 136t94 103.5t91 62t68 22.5q52 0 52 -40q0 -15 -11 -30.5t-40.5 -38.5t-56 -41.5l-84 -57.5l-98.5 -68q-18 -51 -18 -94.5t23.5 -64.5t79 -21t128 39t137.5 95.5t96 103.5q4 6 8 6t4 -3t-2 -7q-111 -144 -268 -224
q-76 -36 -148 -36q-136 0 -136 94q0 14 8 50zM164 208q118 85 168 131.5t50 72.5t-22 26q-49 0 -105 -70.5t-91 -159.5zM428 555q2 -4 2 -5.5t-6 -1.5t-10 8l-112 184q-2 2 -2 13.5t6 24t14.5 12.5t13.5 -10l86 -208q1 -2 3.5 -7.5t4.5 -9.5z" />
    <glyph glyph-name="eacute" unicode="&#xe9;" horiz-adv-x="434" 
d="M68 128l-40 -32q-2 0 -2 4t7 11t39 31q23 72 69 136t94 103.5t91 62t68 22.5q52 0 52 -40q0 -15 -11 -30.5t-40.5 -38.5t-56 -41.5l-84 -57.5l-98.5 -68q-18 -51 -18 -94.5t23.5 -64.5t79 -21t128 39t137.5 95.5t96 103.5q4 6 8 6t4 -3t-2 -7q-111 -144 -268 -224
q-76 -36 -148 -36q-136 0 -136 94q0 14 8 50zM164 208q118 85 168 131.5t50 72.5t-22 26q-49 0 -105 -70.5t-91 -159.5zM340 564l238 138q9 6 16 6q4 0 4 -8t-6.5 -20.5t-13.5 -15.5l-96 -44q-152 -72 -158 -72t-6 1.5t22 14.5z" />
    <glyph glyph-name="ecircumflex" unicode="&#xea;" horiz-adv-x="434" 
d="M68 128l-40 -32q-2 0 -2 4t7 11t39 31q23 72 69 136t94 103.5t91 62t68 22.5q52 0 52 -40q0 -15 -11 -30.5t-40.5 -38.5t-56 -41.5l-84 -57.5l-98.5 -68q-18 -51 -18 -94.5t23.5 -64.5t79 -21t128 39t137.5 95.5t96 103.5q4 6 8 6t4 -3t-2 -7q-111 -144 -268 -224
q-76 -36 -148 -36q-136 0 -136 94q0 14 8 50zM164 208q118 85 168 131.5t50 72.5t-22 26q-49 0 -105 -70.5t-91 -159.5zM480 698q21 16 30 16t11 -6t27.5 -56.5t25.5 -76.5q0 -2 -12 -7.5t-20 -12.5t-10 -7l-2 -1v1q-23 57 -52 118l-192 -106q-18 -10 -30 -10l-2 2
q0 2 20 14z" />
    <glyph glyph-name="edieresis" unicode="&#xeb;" horiz-adv-x="434" 
d="M68 128l-40 -32q-2 0 -2 4t7 11t39 31q23 72 69 136t94 103.5t91 62t68 22.5q52 0 52 -40q0 -15 -11 -30.5t-40.5 -38.5t-56 -41.5l-84 -57.5l-98.5 -68q-18 -51 -18 -94.5t23.5 -64.5t79 -21t128 39t137.5 95.5t96 103.5q4 6 8 6t4 -3t-2 -7q-111 -144 -268 -224
q-76 -36 -148 -36q-136 0 -136 94q0 14 8 50zM164 208q118 85 168 131.5t50 72.5t-22 26q-49 0 -105 -70.5t-91 -159.5zM330 602q0 22 20 46q18 24 36 24t27 -10.5t9 -29.5t-18 -42.5t-42 -23.5q-32 0 -32 36zM482 602q0 22 20 46q18 24 36 24t27 -10.5t9 -29.5t-18 -42.5
t-42 -23.5q-32 0 -32 36z" />
    <glyph glyph-name="igrave" unicode="&#xec;" horiz-adv-x="374" 
d="M134 398q-9 -6 -11.5 -6t-2.5 4t6 8q64 44 110 44q68 0 68 -62q0 -22 -34 -81.5l-68 -124.5t-34 -102q0 -52 70 -52q34 0 89.5 32t97.5 67t74 70t39.5 47t11.5 12t4 -3t-2 -7q-49 -66 -108 -118q-64 -61 -140 -97.5t-121 -36.5t-70 20t-25 60t37 108t74 126.5t37 78
t-8.5 30.5t-21.5 11q-30 0 -72 -28zM384 619q2 -4 2 -5.5t-6 -1.5t-10 8l-112 184q-2 2 -2 13.5t6 24t14.5 12.5t13.5 -10l86 -208q1 -2 3.5 -7.5t4.5 -9.5z" />
    <glyph glyph-name="iacute" unicode="&#xed;" horiz-adv-x="374" 
d="M134 398q-9 -6 -11.5 -6t-2.5 4t6 8q64 44 110 44q68 0 68 -62q0 -22 -34 -81.5l-68 -124.5t-34 -102q0 -52 70 -52q34 0 89.5 32t97.5 67t74 70t39.5 47t11.5 12t4 -3t-2 -7q-49 -66 -108 -118q-64 -61 -140 -97.5t-121 -36.5t-70 20t-25 60t37 108t74 126.5t37 78
t-8.5 30.5t-21.5 11q-30 0 -72 -28zM296 628l238 138q9 6 16 6q4 0 4 -8t-6.5 -20.5t-13.5 -15.5l-96 -44q-152 -72 -158 -72t-6 1.5t22 14.5z" />
    <glyph glyph-name="icircumflex" unicode="&#xee;" horiz-adv-x="374" 
d="M134 398q-9 -6 -11.5 -6t-2.5 4t6 8q64 44 110 44q68 0 68 -62q0 -22 -34 -81.5l-68 -124.5t-34 -102q0 -52 70 -52q34 0 89.5 32t97.5 67t74 70t39.5 47t11.5 12t4 -3t-2 -7q-49 -66 -108 -118q-64 -61 -140 -97.5t-121 -36.5t-70 20t-25 60t37 108t74 126.5t37 78
t-8.5 30.5t-21.5 11q-30 0 -72 -28zM436 762q21 16 30 16t11 -6t27.5 -56.5t25.5 -76.5q0 -2 -12 -7.5t-20 -12.5t-10 -7l-2 -1v1q-23 57 -52 118l-192 -106q-18 -10 -30 -10l-2 2q0 2 20 14z" />
    <glyph glyph-name="idieresis" unicode="&#xef;" horiz-adv-x="374" 
d="M134 398q-9 -6 -11.5 -6t-2.5 4t6 8q64 44 110 44q68 0 68 -62q0 -22 -34 -81.5l-68 -124.5t-34 -102q0 -52 70 -52q34 0 89.5 32t97.5 67t74 70t39.5 47t11.5 12t4 -3t-2 -7q-49 -66 -108 -118q-64 -61 -140 -97.5t-121 -36.5t-70 20t-25 60t37 108t74 126.5t37 78
t-8.5 30.5t-21.5 11q-30 0 -72 -28zM286 666q0 22 20 46q18 24 36 24t27 -10.5t9 -29.5t-18 -42.5t-42 -23.5q-32 0 -32 36zM438 666q0 22 20 46q18 24 36 24t27 -10.5t9 -29.5t-18 -42.5t-42 -23.5q-32 0 -32 36z" />
    <glyph glyph-name="eth" unicode="&#xf0;" horiz-adv-x="518" 
d="M320 904q-127 -72 -130 -72h-6q-8 0 -14 7t-6 13q0 3 13 9l51 23.5l78 37.5q-52 78 -100 126q-2 2 -6 4q-6 5 -6 8.5t18.5 14.5t33 11t22.5 -8q56 -56 98 -128q109 46 114 46q16 0 16 -6q0 -4 -19.5 -11t-100.5 -47q66 -115 102 -251t36 -237.5t-25.5 -177.5t-65 -126.5
t-87.5 -86.5q-92 -69 -172 -69q-44 0 -75 25.5t-31 74.5q0 79 62 164t142.5 137.5t139.5 52.5q42 0 68 -26q0 250 -150 492zM462 316q-7 40 -33.5 64t-60.5 24q-73 0 -152.5 -104.5t-79.5 -198t64 -93.5q29 0 68.5 22.5t78 61t71 98.5t44.5 126z" />
    <glyph glyph-name="ntilde" unicode="&#xf1;" horiz-adv-x="628" 
d="M214 428q-35 0 -80 -30q-9 -6 -11.5 -6t-2.5 4t6 8q69 52 126 52q25 0 39.5 -14t14.5 -35t-40 -93q161 138 250 138q31 0 44.5 -21.5t13.5 -54t-68 -157.5t-68 -161q0 -16 9 -27t23 -11q89 0 218 112q34 30 65.5 64t39 46t11.5 12t4 -3t-2 -7q-36 -48 -108.5 -119.5
t-150 -108t-129.5 -36.5t-52 46q0 41 34 109.5l68 132.5t34 96q0 50 -38 50q-35 0 -121.5 -62.5t-94.5 -77.5l-146 -266q-5 -8 -18.5 -10.5t-28 -8t-19.5 -5.5q-12 0 -12 10q0 4 58 102q156 268 156 306q0 26 -24 26zM452 676q21 0 39 -15t28.5 -33t27.5 -33t37 -15
q35 0 92 70q19 24 22.5 24t3.5 -4q0 -19 -57.5 -71.5t-104.5 -52.5q-23 0 -41.5 15t-28.5 33q-28 48 -62.5 48t-91.5 -70q-19 -24 -22.5 -24t-3.5 4q0 19 57.5 71.5t104.5 52.5z" />
    <glyph glyph-name="ograve" unicode="&#xf2;" horiz-adv-x="536" 
d="M450 400l-6 2q0 -21 16.5 -39.5t39.5 -24.5q2 13 2 33v11q0 28 -17 59t-27 31q-14 0 -14 -40q6 -2 12 -8t6 -11t-5 -9t-7 -4zM496 320q-40 2 -71.5 31t-34.5 69q-59 0 -119.5 -55t-97.5 -134t-37 -149q0 -27 16.5 -50.5t47.5 -23.5q90 0 181.5 100t114.5 212zM676 406
q0 -4 -6.5 -8t-25 -17.5t-30 -21t-29.5 -17.5q-35 -19 -69 -22q-25 -128 -127.5 -233t-214.5 -105t-112 102q0 82 48.5 166t125.5 138t154 54q2 25 15 49.5t37 24.5q37 0 58.5 -37t21.5 -95q0 -16 -4 -48q45 0 144 68q9 6 11.5 6t2.5 -4zM492 555q2 -4 2 -5.5t-6 -1.5t-10 8
l-112 184q-2 2 -2 13.5t6 24t14.5 12.5t13.5 -10l86 -208q1 -2 3.5 -7.5t4.5 -9.5z" />
    <glyph glyph-name="oacute" unicode="&#xf3;" horiz-adv-x="536" 
d="M450 400l-6 2q0 -21 16.5 -39.5t39.5 -24.5q2 13 2 33v11q0 28 -17 59t-27 31q-14 0 -14 -40q6 -2 12 -8t6 -11t-5 -9t-7 -4zM496 320q-40 2 -71.5 31t-34.5 69q-59 0 -119.5 -55t-97.5 -134t-37 -149q0 -27 16.5 -50.5t47.5 -23.5q90 0 181.5 100t114.5 212zM676 406
q0 -4 -6.5 -8t-25 -17.5t-30 -21t-29.5 -17.5q-35 -19 -69 -22q-25 -128 -127.5 -233t-214.5 -105t-112 102q0 82 48.5 166t125.5 138t154 54q2 25 15 49.5t37 24.5q37 0 58.5 -37t21.5 -95q0 -16 -4 -48q45 0 144 68q9 6 11.5 6t2.5 -4zM404 564l238 138q9 6 16 6q4 0 4 -8
t-6.5 -20.5t-13.5 -15.5l-96 -44q-152 -72 -158 -72t-6 1.5t22 14.5z" />
    <glyph glyph-name="ocircumflex" unicode="&#xf4;" horiz-adv-x="536" 
d="M450 400l-6 2q0 -21 16.5 -39.5t39.5 -24.5q2 13 2 33v11q0 28 -17 59t-27 31q-14 0 -14 -40q6 -2 12 -8t6 -11t-5 -9t-7 -4zM496 320q-40 2 -71.5 31t-34.5 69q-59 0 -119.5 -55t-97.5 -134t-37 -149q0 -27 16.5 -50.5t47.5 -23.5q90 0 181.5 100t114.5 212zM676 406
q0 -4 -6.5 -8t-25 -17.5t-30 -21t-29.5 -17.5q-35 -19 -69 -22q-25 -128 -127.5 -233t-214.5 -105t-112 102q0 82 48.5 166t125.5 138t154 54q2 25 15 49.5t37 24.5q37 0 58.5 -37t21.5 -95q0 -16 -4 -48q45 0 144 68q9 6 11.5 6t2.5 -4zM544 698q21 16 30 16t11 -6
t27.5 -56.5t25.5 -76.5q0 -2 -12 -7.5t-20 -12.5t-10 -7l-2 -1v1q-23 57 -52 118l-192 -106q-18 -10 -30 -10l-2 2q0 2 20 14z" />
    <glyph glyph-name="otilde" unicode="&#xf5;" horiz-adv-x="536" 
d="M450 400l-6 2q0 -21 16.5 -39.5t39.5 -24.5q2 13 2 33v11q0 28 -17 59t-27 31q-14 0 -14 -40q6 -2 12 -8t6 -11t-5 -9t-7 -4zM496 320q-40 2 -71.5 31t-34.5 69q-59 0 -119.5 -55t-97.5 -134t-37 -149q0 -27 16.5 -50.5t47.5 -23.5q90 0 181.5 100t114.5 212zM676 406
q0 -4 -6.5 -8t-25 -17.5t-30 -21t-29.5 -17.5q-35 -19 -69 -22q-25 -128 -127.5 -233t-214.5 -105t-112 102q0 82 48.5 166t125.5 138t154 54q2 25 15 49.5t37 24.5q37 0 58.5 -37t21.5 -95q0 -16 -4 -48q45 0 144 68q9 6 11.5 6t2.5 -4zM474 676q21 0 39 -15t28.5 -33
t27.5 -33t37 -15q35 0 92 70q19 24 22.5 24t3.5 -4q0 -19 -57.5 -71.5t-104.5 -52.5q-23 0 -41.5 15t-28.5 33q-28 48 -62.5 48t-91.5 -70q-19 -24 -22.5 -24t-3.5 4q0 19 57.5 71.5t104.5 52.5z" />
    <glyph glyph-name="odieresis" unicode="&#xf6;" horiz-adv-x="536" 
d="M450 400l-6 2q0 -21 16.5 -39.5t39.5 -24.5q2 13 2 33v11q0 28 -17 59t-27 31q-14 0 -14 -40q6 -2 12 -8t6 -11t-5 -9t-7 -4zM496 320q-40 2 -71.5 31t-34.5 69q-59 0 -119.5 -55t-97.5 -134t-37 -149q0 -27 16.5 -50.5t47.5 -23.5q90 0 181.5 100t114.5 212zM676 406
q0 -4 -6.5 -8t-25 -17.5t-30 -21t-29.5 -17.5q-35 -19 -69 -22q-25 -128 -127.5 -233t-214.5 -105t-112 102q0 82 48.5 166t125.5 138t154 54q2 25 15 49.5t37 24.5q37 0 58.5 -37t21.5 -95q0 -16 -4 -48q45 0 144 68q9 6 11.5 6t2.5 -4zM394 602q0 22 20 46q18 24 36 24
t27 -10.5t9 -29.5t-18 -42.5t-42 -23.5q-32 0 -32 36zM546 602q0 22 20 46q18 24 36 24t27 -10.5t9 -29.5t-18 -42.5t-42 -23.5q-32 0 -32 36z" />
    <glyph glyph-name="divide" unicode="&#xf7;" horiz-adv-x="652" 
d="M306 212.5q18 17.5 35.5 17.5t27 -8.5t9.5 -26t-17 -34.5t-35.5 -17t-28 8.5t-9.5 25.5t18 34.5zM458 492.5q18 17.5 35.5 17.5t27 -8.5t9.5 -26t-17 -34.5t-35.5 -17t-28 8.5t-9.5 25.5t18 34.5zM200 354l338 -6l120 2q4 0 4 -2t-1 -4t-4 -7t-5 -11q-2 -4 -4 -12
q-4 -14 -8 -14l-328 8l-140 -4q-4 0 -4 2t2.5 5l7 8t6.5 9q3 4 6 12q5 14 10 14z" />
    <glyph glyph-name="oslash" unicode="&#xf8;" horiz-adv-x="536" 
d="M450 400l-6 2q0 -21 16.5 -39.5t39.5 -24.5q2 13 2 33v11q0 28 -17 59t-27 31q-14 0 -14 -40q6 -2 12 -8t6 -11t-5 -9t-7 -4zM496 320q-40 2 -71.5 31t-34.5 69q-59 0 -119.5 -55t-97.5 -134t-37 -149q0 -27 16.5 -50.5t47.5 -23.5q90 0 181.5 100t114.5 212zM676 406
q0 -4 -6.5 -8t-25 -17.5t-30 -21t-29.5 -17.5q-35 -19 -69 -22q-25 -128 -127.5 -233t-214.5 -105t-112 102q0 82 48.5 166t125.5 138t154 54q2 25 15 49.5t37 24.5q37 0 58.5 -37t21.5 -95q0 -16 -4 -48q45 0 144 68q9 6 11.5 6t2.5 -4zM674 582l-630 -688q-12 -12 -22 -12
t-10 2q0 4 6 10l632 692q14 14 20 14q10 0 10 -8q0 -4 -6 -10z" />
    <glyph glyph-name="ugrave" unicode="&#xf9;" horiz-adv-x="642" 
d="M761 186q30 34 41.5 51t15.5 17t4 -3t-2 -7q-59 -95 -172 -179.5t-212 -84.5q-52 0 -52 46q0 30 16 72q-62 -46 -132.5 -80t-123.5 -34q-24 0 -47 15t-23 51.5t80 177t80 168.5t-30.5 28t-69.5 -26q-9 -6 -11.5 -6t-2.5 4t6 8q64 44 110 44q66 0 66 -58q0 -30 -76 -164.5
t-76 -158.5t17 -33.5t37 -9.5q51 0 114 40.5t98 77.5q22 48 78 148.5t70 117.5q35 38 64 38q8 0 8 -12t-46.5 -94.5t-103.5 -155.5q-34 -74 -34 -126q0 -16 9 -27t23 -11q50 0 104.5 26.5t98.5 66t74 73.5zM464 555q2 -4 2 -5.5t-6 -1.5t-10 8l-112 184q-2 2 -2 13.5t6 24
t14.5 12.5t13.5 -10l86 -208q1 -2 3.5 -7.5t4.5 -9.5z" />
    <glyph glyph-name="uacute" unicode="&#xfa;" horiz-adv-x="642" 
d="M761 186q30 34 41.5 51t15.5 17t4 -3t-2 -7q-59 -95 -172 -179.5t-212 -84.5q-52 0 -52 46q0 30 16 72q-62 -46 -132.5 -80t-123.5 -34q-24 0 -47 15t-23 51.5t80 177t80 168.5t-30.5 28t-69.5 -26q-9 -6 -11.5 -6t-2.5 4t6 8q64 44 110 44q66 0 66 -58q0 -30 -76 -164.5
t-76 -158.5t17 -33.5t37 -9.5q51 0 114 40.5t98 77.5q22 48 78 148.5t70 117.5q35 38 64 38q8 0 8 -12t-46.5 -94.5t-103.5 -155.5q-34 -74 -34 -126q0 -16 9 -27t23 -11q50 0 104.5 26.5t98.5 66t74 73.5zM376 564l238 138q9 6 16 6q4 0 4 -8t-6.5 -20.5t-13.5 -15.5
l-96 -44q-152 -72 -158 -72t-6 1.5t22 14.5z" />
    <glyph glyph-name="ucircumflex" unicode="&#xfb;" horiz-adv-x="642" 
d="M761 186q30 34 41.5 51t15.5 17t4 -3t-2 -7q-59 -95 -172 -179.5t-212 -84.5q-52 0 -52 46q0 30 16 72q-62 -46 -132.5 -80t-123.5 -34q-24 0 -47 15t-23 51.5t80 177t80 168.5t-30.5 28t-69.5 -26q-9 -6 -11.5 -6t-2.5 4t6 8q64 44 110 44q66 0 66 -58q0 -30 -76 -164.5
t-76 -158.5t17 -33.5t37 -9.5q51 0 114 40.5t98 77.5q22 48 78 148.5t70 117.5q35 38 64 38q8 0 8 -12t-46.5 -94.5t-103.5 -155.5q-34 -74 -34 -126q0 -16 9 -27t23 -11q50 0 104.5 26.5t98.5 66t74 73.5zM516 698q21 16 30 16t11 -6t27.5 -56.5t25.5 -76.5q0 -2 -12 -7.5
t-20 -12.5t-10 -7l-2 -1v1q-23 57 -52 118l-192 -106q-18 -10 -30 -10l-2 2q0 2 20 14z" />
    <glyph glyph-name="udieresis" unicode="&#xfc;" horiz-adv-x="642" 
d="M761 186q30 34 41.5 51t15.5 17t4 -3t-2 -7q-59 -95 -172 -179.5t-212 -84.5q-52 0 -52 46q0 30 16 72q-62 -46 -132.5 -80t-123.5 -34q-24 0 -47 15t-23 51.5t80 177t80 168.5t-30.5 28t-69.5 -26q-9 -6 -11.5 -6t-2.5 4t6 8q64 44 110 44q66 0 66 -58q0 -30 -76 -164.5
t-76 -158.5t17 -33.5t37 -9.5q51 0 114 40.5t98 77.5q22 48 78 148.5t70 117.5q35 38 64 38q8 0 8 -12t-46.5 -94.5t-103.5 -155.5q-34 -74 -34 -126q0 -16 9 -27t23 -11q50 0 104.5 26.5t98.5 66t74 73.5zM366 602q0 22 20 46q18 24 36 24t27 -10.5t9 -29.5t-18 -42.5
t-42 -23.5q-32 0 -32 36zM518 602q0 22 20 46q18 24 36 24t27 -10.5t9 -29.5t-18 -42.5t-42 -23.5q-32 0 -32 36z" />
    <glyph glyph-name="yacute" unicode="&#xfd;" horiz-adv-x="604" 
d="M244 -166l-240 -139t-176 -104t-112 -75.5t-86 -73.5q-46 -42 -70 -79q-56 -87 -56 -167t51 -123t119 -43q43 0 82 28q47 33 80 76l56 75.5t55.5 86.5l60.5 102l70 126zM240 448q29 0 44.5 -15t15.5 -31.5t-4 -30.5t-14 -33q-8 -20 -16 -36q-26 -54 -37 -74l-23.5 -44.5
l-19 -37t-14.5 -30.5q-14 -35 -14 -55t17.5 -28.5t36.5 -8.5q75 0 182 90l110 208q8 18 16.5 41.5t12.5 32.5q11 24 45 27t39 3t5 -4t-14 -26q-58 -87 -72 -112l-204 -378l160 102q60 38 96 63.5t92 75.5t92 101q4 6 8 6t4 -3t-2 -7q-32 -43 -52.5 -66.5t-79.5 -72
t-150 -107.5l-184 -120l-89.5 -168.5l-97.5 -181.5l-97 -168.5t-103 -155.5t-97 -110q-100 -104 -218 -104q-86 0 -132 51t-46 109.5t18 111.5t47 96t79.5 88.5t100 80.5t125 80l137.5 79l317 178l118 220q-63 -51 -124.5 -75.5t-93.5 -24.5t-55 15t-23 53q0 30 18.5 67
l38.5 74l26 48.5l16 30.5t14.5 28.5l13 26.5t12.5 28q11 30 11 43q0 28 -24 28q-32 0 -74 -28q-9 -6 -11.5 -6t-2.5 4t6 8q64 44 114 44zM376 564l238 138q9 6 16 6q4 0 4 -8t-6.5 -20.5t-13.5 -15.5l-96 -44q-152 -72 -158 -72t-6 1.5t22 14.5z" />
    <glyph glyph-name="thorn" unicode="&#xfe;" horiz-adv-x="524" 
d="M378 726q0 26 -24 26q-35 0 -80 -30q-9 -6 -11.5 -6t-2.5 4t5 8t21.5 15t48 24t57 13t40 -14t14.5 -30t-7.5 -32t-43 -79l-59.5 -107l-148 -266q107 106 192 161t136.5 55t51.5 -68q0 -81 -140 -205.5t-330 -174.5q56 -30 120 -30t122 13t106 39q119 64 205 157
q32 35 38.5 45t10.5 10t4 -3t-2 -7q-51 -69 -108 -120q-194 -174 -438 -174q-62 0 -118 28q-103 -189 -238 -466t-238 -460q-16 -29 -41 -52t-47 -35q-23 -11 -46 -19q-35 -12 -49.5 -12t-14.5 5.5t4.5 8.5t19 11t33 22.5t50 58t167.5 280l374 676.5q-6 6 -6 9.5t9 11
t13 7.5q86 156 163.5 313.5l92.5 186.5l28 55l19.5 39.5l15.5 31.5t13 28q6 10 10 21q8 21 8 27zM148 176l-74 -138q79 16 158.5 58.5t134 92t89 96.5t34.5 75q0 58 -44 58q-37 0 -134 -80.5t-164 -161.5z" />
    <glyph glyph-name="ydieresis" unicode="&#xff;" horiz-adv-x="604" 
d="M244 -166l-240 -139t-176 -104t-112 -75.5t-86 -73.5q-46 -42 -70 -79q-56 -87 -56 -167t51 -123t119 -43q43 0 82 28q47 33 80 76l56 75.5t55.5 86.5l60.5 102l70 126zM240 448q29 0 44.5 -15t15.5 -31.5t-4 -30.5t-14 -33q-8 -20 -16 -36q-26 -54 -37 -74l-23.5 -44.5
l-19 -37t-14.5 -30.5q-14 -35 -14 -55t17.5 -28.5t36.5 -8.5q75 0 182 90l110 208q8 18 16.5 41.5t12.5 32.5q11 24 45 27t39 3t5 -4t-14 -26q-58 -87 -72 -112l-204 -378l160 102q60 38 96 63.5t92 75.5t92 101q4 6 8 6t4 -3t-2 -7q-32 -43 -52.5 -66.5t-79.5 -72
t-150 -107.5l-184 -120l-89.5 -168.5l-97.5 -181.5l-97 -168.5t-103 -155.5t-97 -110q-100 -104 -218 -104q-86 0 -132 51t-46 109.5t18 111.5t47 96t79.5 88.5t100 80.5t125 80l137.5 79l317 178l118 220q-63 -51 -124.5 -75.5t-93.5 -24.5t-55 15t-23 53q0 30 18.5 67
l38.5 74l26 48.5l16 30.5t14.5 28.5l13 26.5t12.5 28q11 30 11 43q0 28 -24 28q-32 0 -74 -28q-9 -6 -11.5 -6t-2.5 4t6 8q64 44 114 44zM366 602q0 22 20 46q18 24 36 24t27 -10.5t9 -29.5t-18 -42.5t-42 -23.5q-32 0 -32 36zM518 602q0 22 20 46q18 24 36 24t27 -10.5
t9 -29.5t-18 -42.5t-42 -23.5q-32 0 -32 36z" />
    <glyph glyph-name="Amacron" unicode="&#x100;" 
d="M404 342h34q40 0 117 -12t106 -12t45 2q14 114 37 216l35 153t20 81.5t8 34t-2 3.5q-8 0 -28 -28zM372 306q-192 -219 -270 -284q-29 -22 -86 -28q-3 0 -22.5 -4t-31.5 -4t-12 8q0 10 16 14q38 13 64 36q151 132 315 297.5t401 442.5l26.5 30.5t21.5 22.5l16 14.5
t15.5 10.5t13.5 8q13 6 26.5 10.5t31 13t24.5 8.5t7 -8v-2q0 -11 -11 -35.5t-11 -26.5q-28 -76 -62.5 -222t-51.5 -276q68 17 124 62q18 14 22 14t4 -5.5t-22 -23t-59.5 -37.5t-70.5 -28q-10 -87 -10 -136q0 -152 64 -152q37 0 95.5 35.5t118 87.5t90.5 99q4 6 8 6t4 -3
t-2 -7q-54 -72 -107.5 -119t-127 -90t-134.5 -43t-79 37.5t-18 117t10 149.5q-90 -10 -125.5 -10t-101.5 11t-81.5 11t-21.5 -2zM1100 1052l-282 2q-14 0 -14 14t8 14l330 -2q16 0 16 -10q0 -18 -58 -18z" />
    <glyph glyph-name="amacron" unicode="&#x101;" horiz-adv-x="612" 
d="M434 168q102 102 102 136q0 8 -8 8q-20 0 -94 -144zM414 438q-63 0 -128.5 -56t-105.5 -134t-40 -146t56 -68q62 0 138 56q21 74 86 162q60 85 100 100q-34 86 -106 86zM410 462q96 0 126 -106q26 0 26 -22q0 -27 -9 -44.5l-13.5 -26t-15.5 -21.5q-12 -13 -16 -18
q-41 -46 -86 -86q-16 -52 -16 -70q0 -42 67 -42t166.5 80t140.5 142q4 6 8 6t4 -3t-2 -7q-54 -72 -107.5 -119t-131 -92t-141.5 -45q-80 0 -80 64q0 3 1 9t1 9q-113 -70 -186 -70q-84 0 -84 102q0 74 52.5 158.5t135 143t160.5 58.5zM640 600l-282 2q-14 0 -14 14t8 14
l330 -2q16 0 16 -10q0 -18 -58 -18z" />
    <glyph glyph-name="Abreve" unicode="&#x102;" 
d="M404 342h34q40 0 117 -12t106 -12t45 2q14 114 37 216l35 153t20 81.5t8 34t-2 3.5q-8 0 -28 -28zM372 306q-192 -219 -270 -284q-29 -22 -86 -28q-3 0 -22.5 -4t-31.5 -4t-12 8q0 10 16 14q38 13 64 36q151 132 315 297.5t401 442.5l26.5 30.5t21.5 22.5l16 14.5
t15.5 10.5t13.5 8q13 6 26.5 10.5t31 13t24.5 8.5t7 -8v-2q0 -11 -11 -35.5t-11 -26.5q-28 -76 -62.5 -222t-51.5 -276q68 17 124 62q18 14 22 14t4 -5.5t-22 -23t-59.5 -37.5t-70.5 -28q-10 -87 -10 -136q0 -152 64 -152q37 0 95.5 35.5t118 87.5t90.5 99q4 6 8 6t4 -3
t-2 -7q-54 -72 -107.5 -119t-127 -90t-134.5 -43t-79 37.5t-18 117t10 149.5q-90 -10 -125.5 -10t-101.5 11t-81.5 11t-21.5 -2zM934 1174q-10 -26 -10 -51.5t22.5 -44t55.5 -18.5q84 0 144 88q5 5 22 15.5t26 10.5h2q0 -8 -34 -41.5t-93.5 -67t-108 -33.5t-66.5 21.5
t-18 45.5t10 51q3 7 20 16.5t26 9.5z" />
    <glyph glyph-name="abreve" unicode="&#x103;" horiz-adv-x="612" 
d="M434 168q102 102 102 136q0 8 -8 8q-20 0 -94 -144zM414 438q-63 0 -128.5 -56t-105.5 -134t-40 -146t56 -68q62 0 138 56q21 74 86 162q60 85 100 100q-34 86 -106 86zM410 462q96 0 126 -106q26 0 26 -22q0 -27 -9 -44.5l-13.5 -26t-15.5 -21.5q-12 -13 -16 -18
q-41 -46 -86 -86q-16 -52 -16 -70q0 -42 67 -42t166.5 80t140.5 142q4 6 8 6t4 -3t-2 -7q-54 -72 -107.5 -119t-131 -92t-141.5 -45q-80 0 -80 64q0 3 1 9t1 9q-113 -70 -186 -70q-84 0 -84 102q0 74 52.5 158.5t135 143t160.5 58.5zM474 722q-10 -26 -10 -51.5t22.5 -44
t55.5 -18.5q84 0 144 88q5 5 22 15.5t26 10.5h2q0 -8 -34 -41.5t-93.5 -67t-108 -33.5t-66.5 21.5t-18 45.5t10 51q3 7 20 16.5t26 9.5z" />
    <glyph glyph-name="Aogonek" unicode="&#x104;" 
d="M404 342h34q40 0 117 -12t106 -12t45 2q14 114 37 216l35 153t20 81.5t8 34t-2 3.5q-8 0 -28 -28zM372 306q-192 -219 -270 -284q-29 -22 -86 -28q-3 0 -22.5 -4t-31.5 -4t-12 8q0 10 16 14q38 13 64 36q151 132 315 297.5t401 442.5l26.5 30.5t21.5 22.5l16 14.5
t15.5 10.5t13.5 8q13 6 26.5 10.5t31 13t24.5 8.5t7 -8v-2q0 -11 -11 -35.5t-11 -26.5q-28 -76 -62.5 -222t-51.5 -276q68 17 124 62q18 14 22 14t4 -5.5t-22 -23t-59.5 -37.5t-70.5 -28q-10 -87 -10 -136q0 -152 64 -152q37 0 95.5 35.5t118 87.5t90.5 99q4 6 8 6t4 -3
t-2 -7q-54 -72 -107.5 -119t-127 -90t-134.5 -43t-79 37.5t-18 117t10 149.5q-90 -10 -125.5 -10t-101.5 11t-81.5 11t-21.5 -2zM746 -19.5q49 25.5 51.5 25.5t2.5 -4q0 -3 -34 -22t-40 -22q-84 -54 -84 -110q0 -24 18.5 -41t38 -17t33.5 4l14 4q8 0 8 -2t-16 -8
q-42 -14 -72 -14q-86 0 -86 56q0 27 19.5 52t39 38t39 24t68.5 36.5z" />
    <glyph glyph-name="aogonek" unicode="&#x105;" horiz-adv-x="612" 
d="M434 168q102 102 102 136q0 8 -8 8q-20 0 -94 -144zM414 438q-63 0 -128.5 -56t-105.5 -134t-40 -146t56 -68q62 0 138 56q21 74 86 162q60 85 100 100q-34 86 -106 86zM410 462q96 0 126 -106q26 0 26 -22q0 -27 -9 -44.5l-13.5 -26t-15.5 -21.5q-12 -13 -16 -18
q-41 -46 -86 -86q-16 -52 -16 -70q0 -42 67 -42t166.5 80t140.5 142q4 6 8 6t4 -3t-2 -7q-54 -72 -107.5 -119t-131 -92t-141.5 -45q-80 0 -80 64q0 3 1 9t1 9q-113 -70 -186 -70q-84 0 -84 102q0 74 52.5 158.5t135 143t160.5 58.5zM384 -19.5q49 25.5 51.5 25.5t2.5 -4
q0 -3 -34 -22t-40 -22q-84 -54 -84 -110q0 -24 18.5 -41t38 -17t33.5 4l14 4q8 0 8 -2t-16 -8q-42 -14 -72 -14q-86 0 -86 56q0 27 19.5 52t39 38t39 24t68.5 36.5z" />
    <glyph glyph-name="Cacute" unicode="&#x106;" horiz-adv-x="860" 
d="M971.5 777q-20.5 -21 -26.5 -31t-11.5 -10t-5.5 8q0 34 -46 66t-98 32q-100 0 -192 -54q-141 -92 -238.5 -242.5t-97.5 -317.5q0 -92 57 -156t143 -64q144 0 224.5 58.5t109.5 149.5q7 24 12 24q10 0 21 -17.5t11 -29.5t-16 -37t-51 -56t-81.5 -58.5t-116.5 -46.5
t-147 -19q-113 0 -187.5 73.5t-74.5 184.5q0 156 121.5 316.5t296.5 259.5q132 76 270 76q79 0 123 -46q21 -22 21 -32t-20.5 -31zM776 1016l238 138q9 6 16 6q4 0 4 -8t-6.5 -20.5t-13.5 -15.5l-96 -44q-152 -72 -158 -72t-6 1.5t22 14.5z" />
    <glyph glyph-name="cacute" unicode="&#x107;" horiz-adv-x="468" 
d="M177 244.5q-33 -73.5 -33 -127t23.5 -84.5t86.5 -31t141.5 42t144 99.5t96.5 104.5q4 6 8 6t4 -3t-2 -7q-43 -57 -100 -108q-176 -158 -330 -158q-64 0 -106 28t-42 88q0 62 39 134q38 71 91.5 122.5t111 84.5t90 33t46.5 -16t14 -38.5t-6 -31t-29 -20.5t-29 -12t-6 2
t1 4q3 8 3 26t-15 32t-31 14q-40 0 -89 -55t-82 -128.5zM334 564l238 138q9 6 16 6q4 0 4 -8t-6.5 -20.5t-13.5 -15.5l-96 -44q-152 -72 -158 -72t-6 1.5t22 14.5z" />
    <glyph glyph-name="Ccircumflex" unicode="&#x108;" horiz-adv-x="860" 
d="M971.5 777q-20.5 -21 -26.5 -31t-11.5 -10t-5.5 8q0 34 -46 66t-98 32q-100 0 -192 -54q-141 -92 -238.5 -242.5t-97.5 -317.5q0 -92 57 -156t143 -64q144 0 224.5 58.5t109.5 149.5q7 24 12 24q10 0 21 -17.5t11 -29.5t-16 -37t-51 -56t-81.5 -58.5t-116.5 -46.5
t-147 -19q-113 0 -187.5 73.5t-74.5 184.5q0 156 121.5 316.5t296.5 259.5q132 76 270 76q79 0 123 -46q21 -22 21 -32t-20.5 -31zM916 1150q21 16 30 16t11 -6t27.5 -56.5t25.5 -76.5q0 -2 -12 -7.5t-20 -12.5t-10 -7l-2 -1v1q-23 57 -52 118l-192 -106q-18 -10 -30 -10
l-2 2q0 2 20 14z" />
    <glyph glyph-name="ccircumflex" unicode="&#x109;" horiz-adv-x="468" 
d="M177 244.5q-33 -73.5 -33 -127t23.5 -84.5t86.5 -31t141.5 42t144 99.5t96.5 104.5q4 6 8 6t4 -3t-2 -7q-43 -57 -100 -108q-176 -158 -330 -158q-64 0 -106 28t-42 88q0 62 39 134q38 71 91.5 122.5t111 84.5t90 33t46.5 -16t14 -38.5t-6 -31t-29 -20.5t-29 -12t-6 2
t1 4q3 8 3 26t-15 32t-31 14q-40 0 -89 -55t-82 -128.5zM474 698q21 16 30 16t11 -6t27.5 -56.5t25.5 -76.5q0 -2 -12 -7.5t-20 -12.5t-10 -7l-2 -1v1q-23 57 -52 118l-192 -106q-18 -10 -30 -10l-2 2q0 2 20 14z" />
    <glyph glyph-name="Cdotaccent" unicode="&#x10a;" horiz-adv-x="860" 
d="M971.5 777q-20.5 -21 -26.5 -31t-11.5 -10t-5.5 8q0 34 -46 66t-98 32q-100 0 -192 -54q-141 -92 -238.5 -242.5t-97.5 -317.5q0 -92 57 -156t143 -64q144 0 224.5 58.5t109.5 149.5q7 24 12 24q10 0 21 -17.5t11 -29.5t-16 -37t-51 -56t-81.5 -58.5t-116.5 -46.5
t-147 -19q-113 0 -187.5 73.5t-74.5 184.5q0 156 121.5 316.5t296.5 259.5q132 76 270 76q79 0 123 -46q21 -22 21 -32t-20.5 -31zM838 1054q0 22 20 46q18 24 36 24t27 -10.5t9 -29.5t-18 -42.5t-42 -23.5q-32 0 -32 36z" />
    <glyph glyph-name="cdotaccent" unicode="&#x10b;" horiz-adv-x="468" 
d="M177 244.5q-33 -73.5 -33 -127t23.5 -84.5t86.5 -31t141.5 42t144 99.5t96.5 104.5q4 6 8 6t4 -3t-2 -7q-43 -57 -100 -108q-176 -158 -330 -158q-64 0 -106 28t-42 88q0 62 39 134q38 71 91.5 122.5t111 84.5t90 33t46.5 -16t14 -38.5t-6 -31t-29 -20.5t-29 -12t-6 2
t1 4q3 8 3 26t-15 32t-31 14q-40 0 -89 -55t-82 -128.5zM396 602q0 22 20 46q18 24 36 24t27 -10.5t9 -29.5t-18 -42.5t-42 -23.5q-32 0 -32 36z" />
    <glyph glyph-name="Ccaron" unicode="&#x10c;" horiz-adv-x="860" 
d="M971.5 777q-20.5 -21 -26.5 -31t-11.5 -10t-5.5 8q0 34 -46 66t-98 32q-100 0 -192 -54q-141 -92 -238.5 -242.5t-97.5 -317.5q0 -92 57 -156t143 -64q144 0 224.5 58.5t109.5 149.5q7 24 12 24q10 0 21 -17.5t11 -29.5t-16 -37t-51 -56t-81.5 -58.5t-116.5 -46.5
t-147 -19q-113 0 -187.5 73.5t-74.5 184.5q0 156 121.5 316.5t296.5 259.5q132 76 270 76q79 0 123 -46q21 -22 21 -32t-20.5 -31zM876 1044q-21 -16 -30 -16t-11 6t-27.5 56.5t-25.5 76.5q0 2 12 7.5t20 12.5t10 7l2 1v-1q23 -57 52 -118l192 106q18 10 30 10l2 -2
q0 -2 -20 -14z" />
    <glyph glyph-name="ccaron" unicode="&#x10d;" horiz-adv-x="468" 
d="M177 244.5q-33 -73.5 -33 -127t23.5 -84.5t86.5 -31t141.5 42t144 99.5t96.5 104.5q4 6 8 6t4 -3t-2 -7q-43 -57 -100 -108q-176 -158 -330 -158q-64 0 -106 28t-42 88q0 62 39 134q38 71 91.5 122.5t111 84.5t90 33t46.5 -16t14 -38.5t-6 -31t-29 -20.5t-29 -12t-6 2
t1 4q3 8 3 26t-15 32t-31 14q-40 0 -89 -55t-82 -128.5zM434 592q-21 -16 -30 -16t-11 6t-27.5 56.5t-25.5 76.5q0 2 12 7.5t20 12.5t10 7l2 1v-1q23 -57 52 -118l192 106q18 10 30 10l2 -2q0 -2 -20 -14z" />
    <glyph glyph-name="Dcaron" unicode="&#x10e;" horiz-adv-x="1194" 
d="M480 186q-53 74 -76 92t-44 18q-59 0 -116.5 -73.5t-57.5 -132.5q0 -64 80 -64q42 0 100.5 39.5t113.5 120.5zM558 240q10 -18 28 -57t32 -64.5t36 -54.5q45 -58 127.5 -58t157.5 47t124.5 121.5t78 164.5t28.5 177q0 284 -266 338q-83 -165 -184.5 -347.5t-161.5 -266.5
zM392 614q0 -12 6 -28q0 -4 -7 -4t-19 12t-20 18q-16 12 -16 24q0 69 68.5 128t166.5 90.5t195 31.5q44 0 64 -2q10 23 10 44q0 42 -23.5 60t-65 18t-73 -13t-51 -26t-21.5 -13q-6 0 -6 6q0 4 22 20t65 33t81.5 17t68.5 -7.5t56.5 -32t26.5 -64.5q0 -22 -10 -52
q346 -57 346 -406q0 -94 -38 -184t-102 -156.5t-152.5 -107t-183.5 -40.5q-70 0 -132 28q-22 10 -49.5 36.5t-42 43.5t-34 42.5t-24.5 31.5q-53 -60 -95 -95.5t-92.5 -59t-87.5 -23.5t-65 18t-28 56t31 90.5t75 97t97.5 75.5t94.5 31q52 0 106 -76q90 159 169 323.5
t119 266.5q-20 2 -62 2q-82 0 -168 -36.5t-143 -96.5t-57 -121zM942 1104q-21 -16 -30 -16t-11 6t-27.5 56.5t-25.5 76.5q0 2 12 7.5t20 12.5t10 7l2 1v-1q23 -57 52 -118l192 106q18 10 30 10l2 -2q0 -2 -20 -14z" />
    <glyph glyph-name="dcaron" unicode="&#x10f;" horiz-adv-x="682" 
d="M530 326l-54 -112q102 112 246.5 297t209.5 294t133.5 259t68.5 210q0 28 -18 28q-35 0 -86 -55t-103 -141q-91 -152 -155 -284l-232 -478q2 -8 2 -16t-6 -8q-3 0 -6 6zM502 388q-32 50 -91.5 50t-125 -56t-105.5 -134t-40 -146t56 -68q75 0 190 96q17 61 116 258z
M512 410l190 382q88 180 118.5 227l63 94.5t60.5 77.5q77 81 142 119q34 20 56 20q36 0 36 -50q0 -114 -59 -239.5t-159 -268.5q-68 -99 -238.5 -302t-257.5 -290q-20 -51 -20 -90q0 -64 71 -64t172.5 79.5t142.5 142.5q4 6 8 6t4 -3t-2 -7q-54 -72 -107.5 -119t-127 -90
t-125 -43t-77 23.5t-25.5 62.5q0 18 4 34q-135 -112 -236 -112q-84 0 -84 102q0 74 52.5 158.5t135 143t154.5 58.5t108 -52zM1338 1296q32 0 32 -72q-1 -37 -27.5 -78.5t-60 -71t-61 -49t-33.5 -19.5t-6 4t1.5 5t5.5 3t7 4q49 32 87.5 75t38.5 87q0 26 -17 53.5t-17 30.5
q0 9 21 18.5t29 9.5z" />
    <glyph glyph-name="Dcroat" unicode="&#x110;" horiz-adv-x="1370" 
d="M480 186q-53 74 -76 92t-44 18q-59 0 -116.5 -73.5t-57.5 -132.5q0 -64 80 -64q42 0 100.5 39.5t113.5 120.5zM558 240q10 -18 28 -57t32 -64.5t36 -54.5q45 -58 127.5 -58t157.5 47t124.5 121.5t78 164.5t28.5 177q0 284 -266 338q-83 -165 -184.5 -347.5t-161.5 -266.5
zM392 614q0 -12 6 -28q0 -4 -7 -4t-19 12t-20 18q-16 12 -16 24q0 69 68.5 128t166.5 90.5t195 31.5q44 0 64 -2q10 23 10 44q0 42 -23.5 60t-65 18t-73 -13t-51 -26t-21.5 -13q-6 0 -6 6q0 4 22 20t65 33t81.5 17t68.5 -7.5t56.5 -32t26.5 -64.5q0 -22 -10 -52
q346 -57 346 -406q0 -94 -38 -184t-102 -156.5t-152.5 -107t-183.5 -40.5q-70 0 -132 28q-22 10 -49.5 36.5t-42 43.5t-34 42.5t-24.5 31.5q-53 -60 -95 -95.5t-92.5 -59t-87.5 -23.5t-65 18t-28 56t31 90.5t75 97t97.5 75.5t94.5 31q52 0 106 -76q90 159 169 323.5
t119 266.5q-20 2 -62 2q-82 0 -168 -36.5t-143 -96.5t-57 -121zM916 500q4 0 4 -5t-36 -25q-29 -18 -36 -18q-48 -1 -176 -2t-224 -6q-4 0 -4 2q0 6 32 26t44 20q176 8 396 8z" />
    <glyph glyph-name="dcroat" unicode="&#x111;" horiz-adv-x="682" 
d="M530 326l-54 -112q102 112 246.5 297t209.5 294t133.5 259t68.5 210q0 28 -18 28q-35 0 -86 -55t-103 -141q-91 -152 -155 -284l-232 -478q2 -8 2 -16t-6 -8q-3 0 -6 6zM502 388q-32 50 -91.5 50t-125 -56t-105.5 -134t-40 -146t56 -68q75 0 190 96q17 61 116 258z
M512 410l190 382q88 180 118.5 227l63 94.5t60.5 77.5q77 81 142 119q34 20 56 20q36 0 36 -50q0 -114 -59 -239.5t-159 -268.5q-68 -99 -238.5 -302t-257.5 -290q-20 -51 -20 -90q0 -64 71 -64t172.5 79.5t142.5 142.5q4 6 8 6t4 -3t-2 -7q-54 -72 -107.5 -119t-127 -90
t-125 -43t-77 23.5t-25.5 62.5q0 18 4 34q-135 -112 -236 -112q-84 0 -84 102q0 74 52.5 158.5t135 143t154.5 58.5t108 -52zM876 772q4 0 4 -3t-10 -11t-25 -18q-16 -8 -29 -8q-268 -8 -280 -8h-4q-8 0 -8 2q0 8 19 23t31 15q176 8 302 8z" />
    <glyph glyph-name="Emacron" unicode="&#x112;" horiz-adv-x="834" 
d="M778 250l-4 26q0 6 4 6l24 -16q2 -1 4.5 -3.5t4 -3.5t3.5 -3q1 0 2 -2q2 -3 2 -10q0 -30 -26.5 -73.5t-73 -88t-123.5 -75.5t-171 -31t-180 60t-86 154q0 68 29.5 126t73.5 93.5t96 64t96 42.5q103 34 103 38q0 8 -12 16q-60 41 -60 112.5t80.5 137.5t217.5 66
q49 0 104 -12q108 -25 108 -68q0 -12 -11 -29.5t-18 -32t-11 -14.5t-8 12q-12 41 -61.5 80.5t-119 39.5t-113.5 -14q-45 -12 -65 -34q-35 -38 -35 -76.5t21.5 -78.5t54.5 -59q40 -19 40 -24q0 -17 -8 -27t-34 -13q-88 -10 -155 -36t-106.5 -58.5t-64.5 -74.5
q-42 -71 -42 -163q0 -50 21 -88t55 -58q94 -37 140 -40q139 0 221.5 71t82.5 161zM1004 1052l-282 2q-14 0 -14 14t8 14l330 -2q16 0 16 -10q0 -18 -58 -18z" />
    <glyph glyph-name="emacron" unicode="&#x113;" horiz-adv-x="434" 
d="M68 128l-40 -32q-2 0 -2 4t7 11t39 31q23 72 69 136t94 103.5t91 62t68 22.5q52 0 52 -40q0 -15 -11 -30.5t-40.5 -38.5t-56 -41.5l-84 -57.5l-98.5 -68q-18 -51 -18 -94.5t23.5 -64.5t79 -21t128 39t137.5 95.5t96 103.5q4 6 8 6t4 -3t-2 -7q-111 -144 -268 -224
q-76 -36 -148 -36q-136 0 -136 94q0 14 8 50zM164 208q118 85 168 131.5t50 72.5t-22 26q-49 0 -105 -70.5t-91 -159.5zM574 600l-282 2q-14 0 -14 14t8 14l330 -2q16 0 16 -10q0 -18 -58 -18z" />
    <glyph glyph-name="Ebreve" unicode="&#x114;" horiz-adv-x="834" 
d="M778 250l-4 26q0 6 4 6l24 -16q2 -1 4.5 -3.5t4 -3.5t3.5 -3q1 0 2 -2q2 -3 2 -10q0 -30 -26.5 -73.5t-73 -88t-123.5 -75.5t-171 -31t-180 60t-86 154q0 68 29.5 126t73.5 93.5t96 64t96 42.5q103 34 103 38q0 8 -12 16q-60 41 -60 112.5t80.5 137.5t217.5 66
q49 0 104 -12q108 -25 108 -68q0 -12 -11 -29.5t-18 -32t-11 -14.5t-8 12q-12 41 -61.5 80.5t-119 39.5t-113.5 -14q-45 -12 -65 -34q-35 -38 -35 -76.5t21.5 -78.5t54.5 -59q40 -19 40 -24q0 -17 -8 -27t-34 -13q-88 -10 -155 -36t-106.5 -58.5t-64.5 -74.5
q-42 -71 -42 -163q0 -50 21 -88t55 -58q94 -37 140 -40q139 0 221.5 71t82.5 161zM838 1174q-10 -26 -10 -51.5t22.5 -44t55.5 -18.5q84 0 144 88q5 5 22 15.5t26 10.5h2q0 -8 -34 -41.5t-93.5 -67t-108 -33.5t-66.5 21.5t-18 45.5t10 51q3 7 20 16.5t26 9.5z" />
    <glyph glyph-name="ebreve" unicode="&#x115;" horiz-adv-x="434" 
d="M68 128l-40 -32q-2 0 -2 4t7 11t39 31q23 72 69 136t94 103.5t91 62t68 22.5q52 0 52 -40q0 -15 -11 -30.5t-40.5 -38.5t-56 -41.5l-84 -57.5l-98.5 -68q-18 -51 -18 -94.5t23.5 -64.5t79 -21t128 39t137.5 95.5t96 103.5q4 6 8 6t4 -3t-2 -7q-111 -144 -268 -224
q-76 -36 -148 -36q-136 0 -136 94q0 14 8 50zM164 208q118 85 168 131.5t50 72.5t-22 26q-49 0 -105 -70.5t-91 -159.5zM408 722q-10 -26 -10 -51.5t22.5 -44t55.5 -18.5q84 0 144 88q5 5 22 15.5t26 10.5h2q0 -8 -34 -41.5t-93.5 -67t-108 -33.5t-66.5 21.5t-18 45.5t10 51
q3 7 20 16.5t26 9.5z" />
    <glyph glyph-name="Edotaccent" unicode="&#x116;" horiz-adv-x="834" 
d="M778 250l-4 26q0 6 4 6l24 -16q2 -1 4.5 -3.5t4 -3.5t3.5 -3q1 0 2 -2q2 -3 2 -10q0 -30 -26.5 -73.5t-73 -88t-123.5 -75.5t-171 -31t-180 60t-86 154q0 68 29.5 126t73.5 93.5t96 64t96 42.5q103 34 103 38q0 8 -12 16q-60 41 -60 112.5t80.5 137.5t217.5 66
q49 0 104 -12q108 -25 108 -68q0 -12 -11 -29.5t-18 -32t-11 -14.5t-8 12q-12 41 -61.5 80.5t-119 39.5t-113.5 -14q-45 -12 -65 -34q-35 -38 -35 -76.5t21.5 -78.5t54.5 -59q40 -19 40 -24q0 -17 -8 -27t-34 -13q-88 -10 -155 -36t-106.5 -58.5t-64.5 -74.5
q-42 -71 -42 -163q0 -50 21 -88t55 -58q94 -37 140 -40q139 0 221.5 71t82.5 161zM832 1054q0 22 20 46q18 24 36 24t27 -10.5t9 -29.5t-18 -42.5t-42 -23.5q-32 0 -32 36z" />
    <glyph glyph-name="edotaccent" unicode="&#x117;" horiz-adv-x="434" 
d="M68 128l-40 -32q-2 0 -2 4t7 11t39 31q23 72 69 136t94 103.5t91 62t68 22.5q52 0 52 -40q0 -15 -11 -30.5t-40.5 -38.5t-56 -41.5l-84 -57.5l-98.5 -68q-18 -51 -18 -94.5t23.5 -64.5t79 -21t128 39t137.5 95.5t96 103.5q4 6 8 6t4 -3t-2 -7q-111 -144 -268 -224
q-76 -36 -148 -36q-136 0 -136 94q0 14 8 50zM164 208q118 85 168 131.5t50 72.5t-22 26q-49 0 -105 -70.5t-91 -159.5zM402 602q0 22 20 46q18 24 36 24t27 -10.5t9 -29.5t-18 -42.5t-42 -23.5q-32 0 -32 36z" />
    <glyph glyph-name="Eogonek" unicode="&#x118;" horiz-adv-x="834" 
d="M778 250l-4 26q0 6 4 6l24 -16q2 -1 4.5 -3.5t4 -3.5t3.5 -3q1 0 2 -2q2 -3 2 -10q0 -30 -26.5 -73.5t-73 -88t-123.5 -75.5t-171 -31t-180 60t-86 154q0 68 29.5 126t73.5 93.5t96 64t96 42.5q103 34 103 38q0 8 -12 16q-60 41 -60 112.5t80.5 137.5t217.5 66
q49 0 104 -12q108 -25 108 -68q0 -12 -11 -29.5t-18 -32t-11 -14.5t-8 12q-12 41 -61.5 80.5t-119 39.5t-113.5 -14q-45 -12 -65 -34q-35 -38 -35 -76.5t21.5 -78.5t54.5 -59q40 -19 40 -24q0 -17 -8 -27t-34 -13q-88 -10 -155 -36t-106.5 -58.5t-64.5 -74.5
q-42 -71 -42 -163q0 -50 21 -88t55 -58q94 -37 140 -40q139 0 221.5 71t82.5 161zM388 -19.5q49 25.5 51.5 25.5t2.5 -4q0 -3 -34 -22t-40 -22q-84 -54 -84 -110q0 -24 18.5 -41t38 -17t33.5 4l14 4q8 0 8 -2t-16 -8q-42 -14 -72 -14q-86 0 -86 56q0 27 19.5 52t39 38t39 24
t68.5 36.5z" />
    <glyph glyph-name="eogonek" unicode="&#x119;" horiz-adv-x="434" 
d="M68 128l-40 -32q-2 0 -2 4t7 11t39 31q23 72 69 136t94 103.5t91 62t68 22.5q52 0 52 -40q0 -15 -11 -30.5t-40.5 -38.5t-56 -41.5l-84 -57.5l-98.5 -68q-18 -51 -18 -94.5t23.5 -64.5t79 -21t128 39t137.5 95.5t96 103.5q4 6 8 6t4 -3t-2 -7q-111 -144 -268 -224
q-76 -36 -152 -36q-98 -54 -120 -95q-10 -19 -10 -42t18.5 -40t45.5 -17q15 0 27 4t16.5 4t4.5 -2t-16 -8q-42 -14 -72 -14q-86 0 -86 56q0 43 38 73.5t136 80.5q-114 7 -114 94q0 14 8 50zM164 208q118 85 168 131.5t50 72.5t-22 26q-49 0 -105 -70.5t-91 -159.5z" />
    <glyph glyph-name="Ecaron" unicode="&#x11a;" horiz-adv-x="834" 
d="M778 250l-4 26q0 6 4 6l24 -16q2 -1 4.5 -3.5t4 -3.5t3.5 -3q1 0 2 -2q2 -3 2 -10q0 -30 -26.5 -73.5t-73 -88t-123.5 -75.5t-171 -31t-180 60t-86 154q0 68 29.5 126t73.5 93.5t96 64t96 42.5q103 34 103 38q0 8 -12 16q-60 41 -60 112.5t80.5 137.5t217.5 66
q49 0 104 -12q108 -25 108 -68q0 -12 -11 -29.5t-18 -32t-11 -14.5t-8 12q-12 41 -61.5 80.5t-119 39.5t-113.5 -14q-45 -12 -65 -34q-35 -38 -35 -76.5t21.5 -78.5t54.5 -59q40 -19 40 -24q0 -17 -8 -27t-34 -13q-88 -10 -155 -36t-106.5 -58.5t-64.5 -74.5
q-42 -71 -42 -163q0 -50 21 -88t55 -58q94 -37 140 -40q139 0 221.5 71t82.5 161zM870 1044q-21 -16 -30 -16t-11 6t-27.5 56.5t-25.5 76.5q0 2 12 7.5t20 12.5t10 7l2 1v-1q23 -57 52 -118l192 106q18 10 30 10l2 -2q0 -2 -20 -14z" />
    <glyph glyph-name="ecaron" unicode="&#x11b;" horiz-adv-x="434" 
d="M68 128l-40 -32q-2 0 -2 4t7 11t39 31q23 72 69 136t94 103.5t91 62t68 22.5q52 0 52 -40q0 -15 -11 -30.5t-40.5 -38.5t-56 -41.5l-84 -57.5l-98.5 -68q-18 -51 -18 -94.5t23.5 -64.5t79 -21t128 39t137.5 95.5t96 103.5q4 6 8 6t4 -3t-2 -7q-111 -144 -268 -224
q-76 -36 -148 -36q-136 0 -136 94q0 14 8 50zM164 208q118 85 168 131.5t50 72.5t-22 26q-49 0 -105 -70.5t-91 -159.5zM440 592q-21 -16 -30 -16t-11 6t-27.5 56.5t-25.5 76.5q0 2 12 7.5t20 12.5t10 7l2 1v-1q23 -57 52 -118l192 106q18 10 30 10l2 -2q0 -2 -20 -14z" />
    <glyph glyph-name="Gcircumflex" unicode="&#x11c;" horiz-adv-x="1110" 
d="M734 -88q-247 -43 -347.5 -83t-170.5 -112t-98 -149.5t-28 -163.5q0 -194 134 -194q149 0 246 170q111 191 264 532zM1044 724l2 34q0 40 -29 74t-81 34q-87 0 -224 -78.5t-244 -185.5q-87 -85 -152 -209t-66 -223q0 -77 37.5 -122.5t104.5 -45.5q66 0 172 54
q174 90 340 244q35 35 114.5 173t135.5 263q14 34 24.5 34t42 -18t31.5 -34q0 -33 -37 -100t-87 -124q-41 -48 -65 -92.5l-47.5 -90.5t-29.5 -57l-158 -304q192 55 352 192q67 59 98 106q4 6 8 6t4 -3t-2 -7q-54 -72 -107.5 -119t-124.5 -89q-128 -74 -240 -106l-81 -170.5
t-123 -239.5q-84 -134 -117 -170.5t-65 -66.5t-62 -48q-73 -43 -146 -43q-94 0 -151 68t-57 172q1 77 37 148q35 71 95 124q121 108 268 156q90 30 328 72q68 142 170 330q-71 -59 -151 -116t-192.5 -112.5t-193.5 -55.5t-146 52.5t-65 149.5q0 76 34 163q96 244 397 426
q191 115 365 115q39 0 90.5 -18.5t51.5 -51.5q0 -7 -10 -23t-14 -24.5t-8 -22.5q-9 -26 -14 -26q-12 0 -12 6zM1096 1150q21 16 30 16t11 -6t27.5 -56.5t25.5 -76.5q0 -2 -12 -7.5t-20 -12.5t-10 -7l-2 -1v1q-23 57 -52 118l-192 -106q-18 -10 -30 -10l-2 2q0 2 20 14z" />
    <glyph glyph-name="gcircumflex" unicode="&#x11d;" horiz-adv-x="580" 
d="M544 322q-27 48 -67 82t-87.5 34t-106 -52.5t-102 -135.5t-43.5 -158q0 -23 17 -40.5t41 -17.5q108 0 278 176q23 23 70 112zM-325 -1026q-93 -40 -180 -40t-155 31.5t-115 96.5t-47 151t35 165.5t94.5 141.5t138 116.5t164.5 96t174 76.5q132 52 314 107q5 4 18.5 4
t13.5 -10t-21 -17.5t-89.5 -28t-119 -37t-145.5 -52.5t-154 -67t-134 -81.5t-117.5 -102.5t-73 -123t-30.5 -149q0 -118 85.5 -199t200.5 -81t238 110t220 284l470 812q-69 -74 -157 -126t-161 -52q-80 0 -80 104q0 69 51 154t129 145.5t146 60.5q102 0 162 -132l6 12
q11 20 28 24q8 2 12 5t8 3q2 0 2 -6t-4 -10t-38 -62q6 -12 6 -19t-4 -7l-8 16l-492 -914q-91 -167 -225 -292q-73 -68 -166 -108zM544 698q21 16 30 16t11 -6t27.5 -56.5t25.5 -76.5q0 -2 -12 -7.5t-20 -12.5t-10 -7l-2 -1v1q-23 57 -52 118l-192 -106q-18 -10 -30 -10l-2 2
q0 2 20 14z" />
    <glyph glyph-name="Gbreve" unicode="&#x11e;" horiz-adv-x="1110" 
d="M734 -88q-247 -43 -347.5 -83t-170.5 -112t-98 -149.5t-28 -163.5q0 -194 134 -194q149 0 246 170q111 191 264 532zM1044 724l2 34q0 40 -29 74t-81 34q-87 0 -224 -78.5t-244 -185.5q-87 -85 -152 -209t-66 -223q0 -77 37.5 -122.5t104.5 -45.5q66 0 172 54
q174 90 340 244q35 35 114.5 173t135.5 263q14 34 24.5 34t42 -18t31.5 -34q0 -33 -37 -100t-87 -124q-41 -48 -65 -92.5l-47.5 -90.5t-29.5 -57l-158 -304q192 55 352 192q67 59 98 106q4 6 8 6t4 -3t-2 -7q-54 -72 -107.5 -119t-124.5 -89q-128 -74 -240 -106l-81 -170.5
t-123 -239.5q-84 -134 -117 -170.5t-65 -66.5t-62 -48q-73 -43 -146 -43q-94 0 -151 68t-57 172q1 77 37 148q35 71 95 124q121 108 268 156q90 30 328 72q68 142 170 330q-71 -59 -151 -116t-192.5 -112.5t-193.5 -55.5t-146 52.5t-65 149.5q0 76 34 163q96 244 397 426
q191 115 365 115q39 0 90.5 -18.5t51.5 -51.5q0 -7 -10 -23t-14 -24.5t-8 -22.5q-9 -26 -14 -26q-12 0 -12 6zM1024 1174q-10 -26 -10 -51.5t22.5 -44t55.5 -18.5q84 0 144 88q5 5 22 15.5t26 10.5h2q0 -8 -34 -41.5t-93.5 -67t-108 -33.5t-66.5 21.5t-18 45.5t10 51
q3 7 20 16.5t26 9.5z" />
    <glyph glyph-name="gbreve" unicode="&#x11f;" horiz-adv-x="580" 
d="M544 322q-27 48 -67 82t-87.5 34t-106 -52.5t-102 -135.5t-43.5 -158q0 -23 17 -40.5t41 -17.5q108 0 278 176q23 23 70 112zM-325 -1026q-93 -40 -180 -40t-155 31.5t-115 96.5t-47 151t35 165.5t94.5 141.5t138 116.5t164.5 96t174 76.5q132 52 314 107q5 4 18.5 4
t13.5 -10t-21 -17.5t-89.5 -28t-119 -37t-145.5 -52.5t-154 -67t-134 -81.5t-117.5 -102.5t-73 -123t-30.5 -149q0 -118 85.5 -199t200.5 -81t238 110t220 284l470 812q-69 -74 -157 -126t-161 -52q-80 0 -80 104q0 69 51 154t129 145.5t146 60.5q102 0 162 -132l6 12
q11 20 28 24q8 2 12 5t8 3q2 0 2 -6t-4 -10t-38 -62q6 -12 6 -19t-4 -7l-8 16l-492 -914q-91 -167 -225 -292q-73 -68 -166 -108zM472 722q-10 -26 -10 -51.5t22.5 -44t55.5 -18.5q84 0 144 88q5 5 22 15.5t26 10.5h2q0 -8 -34 -41.5t-93.5 -67t-108 -33.5t-66.5 21.5
t-18 45.5t10 51q3 7 20 16.5t26 9.5z" />
    <glyph glyph-name="Gdotaccent" unicode="&#x120;" horiz-adv-x="1110" 
d="M734 -88q-247 -43 -347.5 -83t-170.5 -112t-98 -149.5t-28 -163.5q0 -194 134 -194q149 0 246 170q111 191 264 532zM1044 724l2 34q0 40 -29 74t-81 34q-87 0 -224 -78.5t-244 -185.5q-87 -85 -152 -209t-66 -223q0 -77 37.5 -122.5t104.5 -45.5q66 0 172 54
q174 90 340 244q35 35 114.5 173t135.5 263q14 34 24.5 34t42 -18t31.5 -34q0 -33 -37 -100t-87 -124q-41 -48 -65 -92.5l-47.5 -90.5t-29.5 -57l-158 -304q192 55 352 192q67 59 98 106q4 6 8 6t4 -3t-2 -7q-54 -72 -107.5 -119t-124.5 -89q-128 -74 -240 -106l-81 -170.5
t-123 -239.5q-84 -134 -117 -170.5t-65 -66.5t-62 -48q-73 -43 -146 -43q-94 0 -151 68t-57 172q1 77 37 148q35 71 95 124q121 108 268 156q90 30 328 72q68 142 170 330q-71 -59 -151 -116t-192.5 -112.5t-193.5 -55.5t-146 52.5t-65 149.5q0 76 34 163q96 244 397 426
q191 115 365 115q39 0 90.5 -18.5t51.5 -51.5q0 -7 -10 -23t-14 -24.5t-8 -22.5q-9 -26 -14 -26q-12 0 -12 6zM1018 1054q0 22 20 46q18 24 36 24t27 -10.5t9 -29.5t-18 -42.5t-42 -23.5q-32 0 -32 36z" />
    <glyph glyph-name="gdotaccent" unicode="&#x121;" horiz-adv-x="580" 
d="M544 322q-27 48 -67 82t-87.5 34t-106 -52.5t-102 -135.5t-43.5 -158q0 -23 17 -40.5t41 -17.5q108 0 278 176q23 23 70 112zM-325 -1026q-93 -40 -180 -40t-155 31.5t-115 96.5t-47 151t35 165.5t94.5 141.5t138 116.5t164.5 96t174 76.5q132 52 314 107q5 4 18.5 4
t13.5 -10t-21 -17.5t-89.5 -28t-119 -37t-145.5 -52.5t-154 -67t-134 -81.5t-117.5 -102.5t-73 -123t-30.5 -149q0 -118 85.5 -199t200.5 -81t238 110t220 284l470 812q-69 -74 -157 -126t-161 -52q-80 0 -80 104q0 69 51 154t129 145.5t146 60.5q102 0 162 -132l6 12
q11 20 28 24q8 2 12 5t8 3q2 0 2 -6t-4 -10t-38 -62q6 -12 6 -19t-4 -7l-8 16l-492 -914q-91 -167 -225 -292q-73 -68 -166 -108zM466 602q0 22 20 46q18 24 36 24t27 -10.5t9 -29.5t-18 -42.5t-42 -23.5q-32 0 -32 36z" />
    <glyph glyph-name="Gcommaaccent" unicode="&#x122;" horiz-adv-x="1110" 
d="M734 -88q-247 -43 -347.5 -83t-170.5 -112t-98 -149.5t-28 -163.5q0 -194 134 -194q149 0 246 170q111 191 264 532zM1044 724l2 34q0 40 -29 74t-81 34q-87 0 -224 -78.5t-244 -185.5q-87 -85 -152 -209t-66 -223q0 -77 37.5 -122.5t104.5 -45.5q66 0 172 54
q174 90 340 244q35 35 114.5 173t135.5 263q14 34 24.5 34t42 -18t31.5 -34q0 -33 -37 -100t-87 -124q-41 -48 -65 -92.5l-47.5 -90.5t-29.5 -57l-158 -304q192 55 352 192q67 59 98 106q4 6 8 6t4 -3t-2 -7q-54 -72 -107.5 -119t-124.5 -89q-128 -74 -240 -106l-81 -170.5
t-123 -239.5q-84 -134 -117 -170.5t-65 -66.5t-62 -48q-73 -43 -146 -43q-94 0 -151 68t-57 172q1 77 37 148q35 71 95 124q121 108 268 156q90 30 328 72q68 142 170 330q-71 -59 -151 -116t-192.5 -112.5t-193.5 -55.5t-146 52.5t-65 149.5q0 76 34 163q96 244 397 426
q191 115 365 115q39 0 90.5 -18.5t51.5 -51.5q0 -7 -10 -23t-14 -24.5t-8 -22.5q-9 -26 -14 -26q-12 0 -12 6zM128 -940q32 0 32 -72q-1 -37 -27.5 -78.5t-60 -71t-61 -49t-33.5 -19.5t-6 4t1.5 5t5.5 3t7 4q49 32 87.5 75t38.5 87q0 26 -17 53.5t-17 30.5q0 9 21 18.5
t29 9.5z" />
    <glyph glyph-name="gcommaaccent" unicode="&#x123;" horiz-adv-x="580" 
d="M544 322q-27 48 -67 82t-87.5 34t-106 -52.5t-102 -135.5t-43.5 -158q0 -23 17 -40.5t41 -17.5q108 0 278 176q23 23 70 112zM-325 -1026q-93 -40 -180 -40t-155 31.5t-115 96.5t-47 151t35 165.5t94.5 141.5t138 116.5t164.5 96t174 76.5q132 52 314 107q5 4 18.5 4
t13.5 -10t-21 -17.5t-89.5 -28t-119 -37t-145.5 -52.5t-154 -67t-134 -81.5t-117.5 -102.5t-73 -123t-30.5 -149q0 -118 85.5 -199t200.5 -81t238 110t220 284l470 812q-69 -74 -157 -126t-161 -52q-80 0 -80 104q0 69 51 154t129 145.5t146 60.5q102 0 162 -132l6 12
q11 20 28 24q8 2 12 5t8 3q2 0 2 -6t-4 -10t-38 -62q6 -12 6 -19t-4 -7l-8 16l-492 -914q-91 -167 -225 -292q-73 -68 -166 -108zM456 564q74 48 74 106q0 17 -18 44t-18 32q0 9 19.5 18.5t26.5 9.5q14 0 25 -22t11 -50t-31 -68.5t-61 -63t-36 -22.5t-6 4t1.5 5t5.5 3t7 4z
" />
    <glyph glyph-name="Hcircumflex" unicode="&#x124;" horiz-adv-x="1044" 
d="M984 36q-104 -60 -200 -60q-60 0 -83 28.5t-23 67.5q0 74 136 334q-196 -38 -358 -38q-43 0 -76 6q-147 -274 -188 -364q-7 -12 -35.5 -15t-40 -5.5t-18 -6t-11.5 -3.5t-5 5t66 121l174 304q-8 16 -8 30t14.5 23t27.5 9q140 249 140 310q0 30 -19 53t-62 23t-80.5 -16.5
t-80.5 -59.5q-5 -5 -10 -11q-9 -11 -12 -11q-6 0 -6 7t22 29q87 90 206 90q60 0 90 -28t30 -72q0 -28 -13 -60t-23 -53.5t-18 -37l-22.5 -43l-24.5 -45.5l-57 -105q76 -38 179 -38t233 28l226 410q8 12 18 15t24.5 6t22.5 5t27 10t27.5 8t8.5 -6q0 -12 -35 -55l-17 -21
q-78 -117 -208 -350q56 13 68.5 18.5t15.5 5.5q6 0 6 -6.5t-5.5 -12t-18 -10t-22 -7.5t-29 -7.5t-27.5 -6.5q-132 -259 -132 -326q0 -78 78 -78q80 0 148 42l25 16q32 20 83 60q40 34 100 106q4 6 8 6t4 -3t-2 -7q-53 -71 -104 -114.5t-134 -93.5zM904 1150q21 16 30 16
t11 -6t27.5 -56.5t25.5 -76.5q0 -2 -12 -7.5t-20 -12.5t-10 -7l-2 -1v1q-23 57 -52 118l-192 -106q-18 -10 -30 -10l-2 2q0 2 20 14z" />
    <glyph glyph-name="hcircumflex" unicode="&#x125;" horiz-adv-x="670" 
d="M442 648l143.5 123.5t131 130.5t114.5 141.5t75 145t30 151.5q0 17 -7 28.5t-19 11.5q-45 0 -134 -128.5t-188 -319.5zM328 538q-204 -147 -205 -146q-3 0 -3 4t6 8q181 131 216 160l174 330l39 75t42.5 80l40 71t47.5 75.5l49 63.5q52 66 124 117q69 52 124 52
q18 0 26 -15t8 -29q0 -166 -149 -351q-50 -62 -95 -110q-44 -48 -112 -109q-84 -76 -234 -198l-142 -286q42 42 93.5 81t79.5 56q68 41 117 41q32 0 52 -23t20 -62.5t-34 -105l-68 -135.5t-34 -122q0 -34 30 -34q33 0 93.5 36.5t119 87.5t89.5 98q4 6 8 6t4 -3t-2 -7
q-54 -72 -107.5 -119t-127 -90t-121.5 -43q-68 0 -68 74q0 48 37 122t74 140t37 89t-12 37t-32 14q-53 0 -144 -79.5t-126 -132.5q-111 -165 -128 -250q-2 -8 -20 -8t-30 -3t-14 -3q-18 0 -18 14q0 10 43 95l77 147q121 231 156 290zM1064 1670q21 16 30 16t11 -6
t27.5 -56.5t25.5 -76.5q0 -2 -12 -7.5t-20 -12.5t-10 -7l-2 -1v1q-23 57 -52 118l-192 -106q-18 -10 -30 -10l-2 2q0 2 20 14z" />
    <glyph glyph-name="Hbar" unicode="&#x126;" horiz-adv-x="1144" 
d="M984 36q-104 -60 -200 -60q-60 0 -83 28.5t-23 67.5q0 74 136 334q-196 -38 -358 -38q-43 0 -76 6q-147 -274 -188 -364q-7 -12 -35.5 -15t-40 -5.5t-18 -6t-11.5 -3.5t-5 5t66 121l174 304q-8 16 -8 30t14.5 23t27.5 9q140 249 140 310q0 30 -19 53t-62 23t-80.5 -16.5
t-80.5 -59.5q-5 -5 -10 -11q-9 -11 -12 -11q-6 0 -6 7t22 29q87 90 206 90q60 0 90 -28t30 -72q0 -28 -13 -60t-23 -53.5t-18 -37l-22.5 -43l-24.5 -45.5l-57 -105q76 -38 179 -38t233 28l226 410q8 12 18 15t24.5 6t22.5 5t27 10t27.5 8t8.5 -6q0 -12 -35 -55l-17 -21
q-78 -117 -208 -350q56 13 68.5 18.5t15.5 5.5q6 0 6 -6.5t-5.5 -12t-18 -10t-22 -7.5t-29 -7.5t-27.5 -6.5q-132 -259 -132 -326q0 -78 78 -78q80 0 148 42l25 16q32 20 83 60q40 34 100 106q4 6 8 6t4 -3t-2 -7q-53 -71 -104 -114.5t-134 -93.5zM364 642l164 -2
q412 0 564 18q50 6 58 6t8 -2q0 -4 -20 -14t-30 -12q-117 -16 -302 -23t-296 -7l-196 4q-6 0 -6 2q0 6 25 18t31 12z" />
    <glyph glyph-name="hbar" unicode="&#x127;" horiz-adv-x="670" 
d="M442 648l143.5 123.5t131 130.5t114.5 141.5t75 145t30 151.5q0 17 -7 28.5t-19 11.5q-45 0 -134 -128.5t-188 -319.5zM328 538q-204 -147 -205 -146q-3 0 -3 4t6 8q181 131 216 160l174 330l39 75t42.5 80l40 71t47.5 75.5l49 63.5q52 66 124 117q69 52 124 52
q18 0 26 -15t8 -29q0 -166 -149 -351q-50 -62 -95 -110q-44 -48 -112 -109q-84 -76 -234 -198l-142 -286q42 42 93.5 81t79.5 56q68 41 117 41q32 0 52 -23t20 -62.5t-34 -105l-68 -135.5t-34 -122q0 -34 30 -34q33 0 93.5 36.5t119 87.5t89.5 98q4 6 8 6t4 -3t-2 -7
q-54 -72 -107.5 -119t-127 -90t-121.5 -43q-68 0 -68 74q0 48 37 122t74 140t37 89t-12 37t-32 14q-53 0 -144 -79.5t-126 -132.5q-111 -165 -128 -250q-2 -8 -20 -8t-30 -3t-14 -3q-18 0 -18 14q0 10 43 95l77 147q121 231 156 290zM792 1076q4 0 4 -3t-10 -11t-25 -18
q-16 -8 -29 -8q-268 -8 -280 -8h-4q-8 0 -8 2q0 8 19 23t31 15q176 8 302 8z" />
    <glyph glyph-name="Itilde" unicode="&#x128;" horiz-adv-x="690" 
d="M564 796q38 55 38 86.5t-22 49.5t-63 18t-81 -23.5t-40 -72.5q0 -23 12 -31t20 -12.5t22.5 -7t25 -4t28.5 -2.5q20 -1 30 -1h30zM166 230q-20 -24 -20 -73.5t42.5 -100t95 -50.5t96 50.5t90.5 151.5q161 338 350 602q-33 -10 -116.5 -21t-127.5 -13q-26 -33 -90 -95.5
t-116 -106.5q-16 -16 -22 -16t-6 4q0 7 23 25.5t88 85t95 103.5q-208 0 -208 68q0 38 43.5 69.5t94 46t86.5 14.5q84 0 84 -56q0 -33 -56 -120q136 7 220 38q18 7 61.5 13.5t58 6.5t14.5 -6q0 -2 -12.5 -10.5t-15.5 -13.5q-108 -155 -181.5 -282.5t-168.5 -319.5
q-116 -236 -326 -236q-64 0 -115 40.5t-51 107.5q0 6 19 25t33.5 36.5l22 27t9.5 9.5q6 0 6 -4zM802 1128q21 0 39 -15t28.5 -33t27.5 -33t37 -15q35 0 92 70q19 24 22.5 24t3.5 -4q0 -19 -57.5 -71.5t-104.5 -52.5q-23 0 -41.5 15t-28.5 33q-28 48 -62.5 48t-91.5 -70
q-19 -24 -22.5 -24t-3.5 4q0 19 57.5 71.5t104.5 52.5z" />
    <glyph glyph-name="itilde" unicode="&#x129;" horiz-adv-x="374" 
d="M134 398q-9 -6 -11.5 -6t-2.5 4t6 8q64 44 110 44q68 0 68 -62q0 -22 -34 -81.5l-68 -124.5t-34 -102q0 -52 70 -52q34 0 89.5 32t97.5 67t74 70t39.5 47t11.5 12t4 -3t-2 -7q-49 -66 -108 -118q-64 -61 -140 -97.5t-121 -36.5t-70 20t-25 60t37 108t74 126.5t37 78
t-8.5 30.5t-21.5 11q-30 0 -72 -28zM366 740q21 0 39 -15t28.5 -33t27.5 -33t37 -15q35 0 92 70q19 24 22.5 24t3.5 -4q0 -19 -57.5 -71.5t-104.5 -52.5q-23 0 -41.5 15t-28.5 33q-28 48 -62.5 48t-91.5 -70q-19 -24 -22.5 -24t-3.5 4q0 19 57.5 71.5t104.5 52.5z" />
    <glyph glyph-name="Imacron" unicode="&#x12a;" horiz-adv-x="690" 
d="M564 796q38 55 38 86.5t-22 49.5t-63 18t-81 -23.5t-40 -72.5q0 -23 12 -31t20 -12.5t22.5 -7t25 -4t28.5 -2.5q20 -1 30 -1h30zM166 230q-20 -24 -20 -73.5t42.5 -100t95 -50.5t96 50.5t90.5 151.5q161 338 350 602q-33 -10 -116.5 -21t-127.5 -13q-26 -33 -90 -95.5
t-116 -106.5q-16 -16 -22 -16t-6 4q0 7 23 25.5t88 85t95 103.5q-208 0 -208 68q0 38 43.5 69.5t94 46t86.5 14.5q84 0 84 -56q0 -33 -56 -120q136 7 220 38q18 7 61.5 13.5t58 6.5t14.5 -6q0 -2 -12.5 -10.5t-15.5 -13.5q-108 -155 -181.5 -282.5t-168.5 -319.5
q-116 -236 -326 -236q-64 0 -115 40.5t-51 107.5q0 6 19 25t33.5 36.5l22 27t9.5 9.5q6 0 6 -4zM966 1052l-282 2q-14 0 -14 14t8 14l330 -2q16 0 16 -10q0 -18 -58 -18z" />
    <glyph glyph-name="imacron" unicode="&#x12b;" horiz-adv-x="374" 
d="M134 398q-9 -6 -11.5 -6t-2.5 4t6 8q64 44 110 44q68 0 68 -62q0 -22 -34 -81.5l-68 -124.5t-34 -102q0 -52 70 -52q34 0 89.5 32t97.5 67t74 70t39.5 47t11.5 12t4 -3t-2 -7q-49 -66 -108 -118q-64 -61 -140 -97.5t-121 -36.5t-70 20t-25 60t37 108t74 126.5t37 78
t-8.5 30.5t-21.5 11q-30 0 -72 -28zM530 664l-282 2q-14 0 -14 14t8 14l330 -2q16 0 16 -10q0 -18 -58 -18z" />
    <glyph glyph-name="Ibreve" unicode="&#x12c;" horiz-adv-x="690" 
d="M564 796q38 55 38 86.5t-22 49.5t-63 18t-81 -23.5t-40 -72.5q0 -23 12 -31t20 -12.5t22.5 -7t25 -4t28.5 -2.5q20 -1 30 -1h30zM166 230q-20 -24 -20 -73.5t42.5 -100t95 -50.5t96 50.5t90.5 151.5q161 338 350 602q-33 -10 -116.5 -21t-127.5 -13q-26 -33 -90 -95.5
t-116 -106.5q-16 -16 -22 -16t-6 4q0 7 23 25.5t88 85t95 103.5q-208 0 -208 68q0 38 43.5 69.5t94 46t86.5 14.5q84 0 84 -56q0 -33 -56 -120q136 7 220 38q18 7 61.5 13.5t58 6.5t14.5 -6q0 -2 -12.5 -10.5t-15.5 -13.5q-108 -155 -181.5 -282.5t-168.5 -319.5
q-116 -236 -326 -236q-64 0 -115 40.5t-51 107.5q0 6 19 25t33.5 36.5l22 27t9.5 9.5q6 0 6 -4zM800 1174q-10 -26 -10 -51.5t22.5 -44t55.5 -18.5q84 0 144 88q5 5 22 15.5t26 10.5h2q0 -8 -34 -41.5t-93.5 -67t-108 -33.5t-66.5 21.5t-18 45.5t10 51q3 7 20 16.5t26 9.5z
" />
    <glyph glyph-name="ibreve" unicode="&#x12d;" horiz-adv-x="374" 
d="M134 398q-9 -6 -11.5 -6t-2.5 4t6 8q64 44 110 44q68 0 68 -62q0 -22 -34 -81.5l-68 -124.5t-34 -102q0 -52 70 -52q34 0 89.5 32t97.5 67t74 70t39.5 47t11.5 12t4 -3t-2 -7q-49 -66 -108 -118q-64 -61 -140 -97.5t-121 -36.5t-70 20t-25 60t37 108t74 126.5t37 78
t-8.5 30.5t-21.5 11q-30 0 -72 -28zM364 786q-10 -26 -10 -51.5t22.5 -44t55.5 -18.5q84 0 144 88q5 5 22 15.5t26 10.5h2q0 -8 -34 -41.5t-93.5 -67t-108 -33.5t-66.5 21.5t-18 45.5t10 51q3 7 20 16.5t26 9.5z" />
    <glyph glyph-name="Iogonek" unicode="&#x12e;" horiz-adv-x="690" 
d="M564 796q38 55 38 86.5t-22 49.5t-63 18t-81 -23.5t-40 -72.5q0 -23 12 -31t20 -12.5t22.5 -7t25 -4t28.5 -2.5q20 -1 30 -1h30zM166 230q-20 -24 -20 -73.5t42.5 -100t95 -50.5t96 50.5t90.5 151.5q161 338 350 602q-33 -10 -116.5 -21t-127.5 -13q-26 -33 -90 -95.5
t-116 -106.5q-16 -16 -22 -16t-6 4q0 7 23 25.5t88 85t95 103.5q-208 0 -208 68q0 38 43.5 69.5t94 46t86.5 14.5q84 0 84 -56q0 -33 -56 -120q136 7 220 38q18 7 61.5 13.5t58 6.5t14.5 -6q0 -2 -12.5 -10.5t-15.5 -13.5q-108 -155 -181.5 -282.5t-168.5 -319.5
q-116 -236 -326 -236q-64 0 -115 40.5t-51 107.5q0 6 19 25t33.5 36.5l22 27t9.5 9.5q6 0 6 -4zM158 -19.5q49 25.5 51.5 25.5t2.5 -4q0 -3 -34 -22t-40 -22q-84 -54 -84 -110q0 -24 18.5 -41t38 -17t33.5 4l14 4q8 0 8 -2t-16 -8q-42 -14 -72 -14q-86 0 -86 56
q0 27 19.5 52t39 38t39 24t68.5 36.5z" />
    <glyph glyph-name="iogonek" unicode="&#x12f;" horiz-adv-x="374" 
d="M134 398q-9 -6 -11.5 -6t-2.5 4t6 8q64 44 110 44q68 0 68 -62q0 -22 -34 -81.5l-68 -124.5t-34 -102q0 -52 70 -52q34 0 89.5 32t97.5 67t74 70t39.5 47t11.5 12t4 -3t-2 -7q-49 -66 -108 -118q-64 -61 -140 -97.5t-121 -36.5t-70 20t-25 60t37 108t74 126.5t37 78
t-8.5 30.5t-21.5 11q-30 0 -72 -28zM358 666q0 22 20 46q18 24 36 24t27 -10.5t9 -29.5t-18 -42.5t-42 -23.5q-32 0 -32 36zM118 -19.5q49 25.5 51.5 25.5t2.5 -4q0 -3 -34 -22t-40 -22q-84 -54 -84 -110q0 -24 18.5 -41t38 -17t33.5 4l14 4q8 0 8 -2t-16 -8
q-42 -14 -72 -14q-86 0 -86 56q0 27 19.5 52t39 38t39 24t68.5 36.5z" />
    <glyph glyph-name="Idotaccent" unicode="&#x130;" horiz-adv-x="690" 
d="M564 796q38 55 38 86.5t-22 49.5t-63 18t-81 -23.5t-40 -72.5q0 -23 12 -31t20 -12.5t22.5 -7t25 -4t28.5 -2.5q20 -1 30 -1h30zM166 230q-20 -24 -20 -73.5t42.5 -100t95 -50.5t96 50.5t90.5 151.5q161 338 350 602q-33 -10 -116.5 -21t-127.5 -13q-26 -33 -90 -95.5
t-116 -106.5q-16 -16 -22 -16t-6 4q0 7 23 25.5t88 85t95 103.5q-208 0 -208 68q0 38 43.5 69.5t94 46t86.5 14.5q84 0 84 -56q0 -33 -56 -120q136 7 220 38q18 7 61.5 13.5t58 6.5t14.5 -6q0 -2 -12.5 -10.5t-15.5 -13.5q-108 -155 -181.5 -282.5t-168.5 -319.5
q-116 -236 -326 -236q-64 0 -115 40.5t-51 107.5q0 6 19 25t33.5 36.5l22 27t9.5 9.5q6 0 6 -4zM794 1054q0 22 20 46q18 24 36 24t27 -10.5t9 -29.5t-18 -42.5t-42 -23.5q-32 0 -32 36z" />
    <glyph glyph-name="dotlessi" unicode="&#x131;" horiz-adv-x="374" 
d="M134 398q-9 -6 -11.5 -6t-2.5 4t6 8q64 44 110 44q68 0 68 -62q0 -22 -34 -81.5l-68 -124.5t-34 -102q0 -52 70 -52q34 0 89.5 32t97.5 67t74 70t39.5 47t11.5 12t4 -3t-2 -7q-49 -66 -108 -118q-64 -61 -140 -97.5t-121 -36.5t-70 20t-25 60t37 108t74 126.5t37 78
t-8.5 30.5t-21.5 11q-30 0 -72 -28z" />
    <glyph glyph-name="IJ" unicode="&#x132;" horiz-adv-x="1668" 
d="M1004 -58q-152 -37 -230 -76q-201 -104 -289 -217.5t-89 -290.5q0 -83 27.5 -130.5t81.5 -47.5t99.5 37t93.5 107q64 96 122 208q60 112 88 178q66 154 96 232zM166 230q-20 -24 -20 -73.5t42.5 -100t95 -50.5t96 50.5t90.5 151.5q161 338 350 602q-33 -10 -116.5 -21
t-127.5 -13q-26 -33 -90 -95.5t-116 -106.5q-16 -16 -22 -16t-6 4q0 7 23 25.5t88 85t95 103.5q-208 0 -208 68q0 38 43.5 69.5t94 46t86.5 14.5q84 0 84 -56q0 -33 -56 -120q136 7 220 38q18 7 61.5 13.5t58 6.5t14.5 -6q0 -2 -12.5 -10.5t-15.5 -13.5q-148 -211 -268 -440
q309 97 544 390q-208 0 -208 68q0 38 43.5 69.5t94 46t86.5 14.5q84 0 84 -56q0 -33 -56 -120q136 7 220 38q18 7 61.5 13.5t58 6.5t14.5 -6q0 -3 -4 -6l-12 -8q-24 -16 -114 -146q-19 -28 -45 -73l-37.5 -65t-40 -77.5l-36 -73.5l-41.5 -88l-42 -89l-110 -234
q124 30 184.5 61.5t131.5 90.5q67 59 98 106q4 6 8 6t4 -3t-2 -7q-56 -74 -109 -121.5t-125.5 -86.5t-203.5 -72q-207 -429 -352 -632q-129 -180 -274 -180q-72 0 -112 53t-40 159q0 139 106 279q53 70 142 136t196 113.5t254 77.5q52 130 106 238q123 267 252 462l92 140
q-33 -10 -116.5 -21t-127.5 -13q-170 -210 -412 -339q-84 -45 -172 -73l-70 -140q-116 -236 -326 -236q-64 0 -115 40.5t-51 107.5q0 6 19 25t33.5 36.5l22 27t9.5 9.5q6 0 6 -4zM564 796q38 55 38 86.5t-22 49.5t-63 18t-81 -23.5t-40 -72.5q0 -23 12 -31t20 -12.5t22.5 -7
t25 -4t28.5 -2.5q20 -1 30 -1h30zM1210 796q38 55 38 86.5t-22 49.5t-63 18t-81 -23.5t-40 -72.5q0 -23 12 -31t20 -12.5t22.5 -7t25 -4t28.5 -2.5q20 -1 30 -1h30z" />
    <glyph glyph-name="ij" unicode="&#x133;" horiz-adv-x="722" 
d="M134 398q-9 -6 -11.5 -6t-2.5 4t6 8q64 44 110 44q68 0 68 -62q0 -22 -34 -81.5l-68 -124.5t-34 -102q0 -52 70 -52q34 0 89.5 32t97.5 67t74 70t39.5 47t11.5 12t4 -3t-2 -7q-49 -66 -108 -118q-64 -61 -140 -97.5t-121 -36.5t-70 20t-25 60t37 108t74 126.5t37 78
t-8.5 30.5t-21.5 11q-30 0 -72 -28zM358 666q0 22 20 46q18 24 36 24t27 -10.5t9 -29.5t-18 -42.5t-42 -23.5q-32 0 -32 36zM732 666q0 22 20 46q18 24 36 24t27 -10.5t9 -29.5t-18 -42.5t-42 -23.5q-32 0 -32 36zM394 -50q-498 -126 -742 -312q-74 -56 -116 -104t-68 -99
q-26 -50 -32 -85q-8 -35 -8 -68q0 -104 64 -179t172 -75q62 0 126 36t119 95q102 109 173 235zM559 288l49 106t32 40t38 18t26 -8t10 -16q0 -10 -12 -34q-37 -56 -42 -62q-120 -228 -186 -342q48 11 112 34q124 48 206 118q67 59 98 106q4 6 8 6t4 -3t-2 -7
q-110 -145 -272 -218q-66 -30 -166 -58l-328 -566q-89 -152 -210 -266q-66 -62 -147 -100q-81 -36 -165 -36q-110 0 -187 72t-77 184q0 468 1041 712q12 3 17 4q48 87 81 159z" />
    <glyph glyph-name="Jcircumflex" unicode="&#x134;" horiz-adv-x="704" 
d="M352 -58q-152 -37 -230 -76q-201 -104 -289 -217.5t-89 -290.5q0 -83 27.5 -130.5t81.5 -47.5t99.5 37t93.5 107q64 96 122 208q60 112 88 178q66 154 96 232zM806 836q18 7 61.5 13.5t58 6.5t14.5 -6q0 -3 -4 -6l-12 -8q-24 -16 -114 -146q-19 -28 -45 -73l-37.5 -65
t-40 -77.5l-36 -73.5l-41.5 -88l-42 -89l-110 -234q124 30 184.5 61.5t131.5 90.5q67 59 98 106q4 6 8 6t4 -3t-2 -7q-56 -74 -109 -121.5t-125.5 -86.5t-203.5 -72q-207 -429 -352 -632q-129 -180 -274 -180q-72 0 -112 53t-40 159q0 139 106 279q53 70 142 136t196 113.5
t254 77.5q52 130 106 238q135 286 252 462l92 140q-33 -10 -116.5 -21t-127.5 -13q-26 -33 -90 -95.5t-116 -106.5q-16 -16 -22 -16t-6 4q0 7 23 25.5t88 85t95 103.5q-208 0 -208 68q0 38 43.5 69.5t94 46t86.5 14.5q84 0 84 -56q0 -33 -56 -120q136 7 220 38zM558 796
q38 55 38 86.5t-22 49.5t-63 18t-81 -23.5t-40 -72.5q0 -23 12 -31t20 -12.5t22.5 -7t25 -4t28.5 -2.5q20 -1 30 -1h30zM846 1150q21 16 30 16t11 -6t27.5 -56.5t25.5 -76.5q0 -2 -12 -7.5t-20 -12.5t-10 -7l-2 -1v1q-23 57 -52 118l-192 -106q-18 -10 -30 -10l-2 2
q0 2 20 14z" />
    <glyph glyph-name="jcircumflex" unicode="&#x135;" horiz-adv-x="348" 
d="M20 -42l-118 -20q-168 -28 -253.5 -56.5t-167 -68t-160.5 -95.5t-137 -120.5t-94 -146.5t-36 -177.5t64.5 -170.5t171.5 -75q49 0 102 24.5t97 63.5q43 38 87 88q77 90 132 190zM298 446q24 0 24 -20q0 -24 -80.5 -182.5t-135.5 -251.5q68 16 157 55.5t156 97.5t97 103
q4 6 8 6t4 -3t-2 -7q-50 -65 -100 -110q-126 -111 -330 -162l-336 -570q-87 -150 -211 -268q-66 -62 -146.5 -98t-164.5 -36q-110 0 -187 72.5t-77 183.5q0 154 84 276q110 161 330 271q187 93 383 131q66 12 144.5 23.5t114.5 18.5q202 380 202 430q0 14 -32.5 14
t-65.5 -22q-9 -6 -11.5 -6t-2.5 4t6 8q63 42 172 42zM436 762q21 16 30 16t11 -6t27.5 -56.5t25.5 -76.5q0 -2 -12 -7.5t-20 -12.5t-10 -7l-2 -1v1q-23 57 -52 118l-192 -106q-18 -10 -30 -10l-2 2q0 2 20 14z" />
    <glyph glyph-name="Kcommaaccent" unicode="&#x136;" horiz-adv-x="814" 
d="M370 448l26 46q-31 -8 -46 -16q7 -13 20 -30zM248 450l-20 -4q-8 0 -8 8.5t194 73.5q86 157 86 230q0 100 -82 100q-46 0 -83.5 -16.5t-80.5 -59.5q-5 -5 -10 -11q-9 -11 -12 -11q-6 0 -6 7t22 29q87 90 206 90q60 0 94 -28.5t34 -71.5q0 -72 -76 -220
q138 62 297.5 142.5t212.5 119.5q19 14 50.5 31t38.5 17t7 -4q0 -7 -35 -37.5t-99.5 -72.5t-129.5 -68l-358 -160l-82 -150l46 -78l46 -80q51 -85 118.5 -188t106.5 -143q76 -79 165.5 -79t183.5 72q4 4 7 4t3 -2q0 -29 -72.5 -62.5t-145.5 -33.5q-113 0 -179.5 43.5
t-142.5 158.5q-99 152 -182 304q-113 -201 -190 -302q-8 -8 -14 -12q-20 -14 -116 -14q-14 0 -14 6q0 2 6 5q28 13 46 33q116 133 244 352q-16 27 -40 54.5t-36 27.5zM320 -100q32 0 32 -72q-1 -37 -27.5 -78.5t-60 -71t-61 -49t-33.5 -19.5t-6 4t1.5 5t5.5 3t7 4
q49 32 87.5 75t38.5 87q0 26 -17 53.5t-17 30.5q0 9 21 18.5t29 9.5z" />
    <glyph glyph-name="kcommaaccent" unicode="&#x137;" horiz-adv-x="574" 
d="M442 648l143.5 123.5t131 130.5t114.5 141.5t75 145t30 151.5q0 17 -7 28.5t-19 11.5q-45 0 -134 -128.5t-188 -319.5zM556 406q-14 4 -28 4q-52 0 -116.5 -34.5t-113 -93.5t-48.5 -118q0 -46 20 -90q12 -26 41.5 -42t72.5 -16q115 0 260 126q67 59 98 106q4 6 8 6t4 -3
t-2 -7q-46 -62 -96 -106q-156 -156 -312 -156q-81 0 -121.5 39t-40.5 107l2 16l-26 -48l-27 -50q-11 -20 -15 -32q-6 -10 -18 -12.5t-29 -7t-19 -4.5q-16 0 -16 7q0 13 26 57l108 194q10 14 160 290q-204 -147 -205 -146q-3 0 -3 4t6 8q181 131 216 160l174 330l39 75
t42.5 80l40 71t47.5 75.5l49 63.5q52 66 124 117q69 52 124 52q18 0 26 -15t8 -29q0 -166 -149 -351q-50 -62 -95 -110q-44 -48 -112 -109q-84 -76 -234 -198l-172 -342q77 81 176.5 128.5t157.5 47.5q32 0 32 -6.5t-24.5 -22t-39.5 -15.5zM154 -100q32 0 32 -72
q-1 -37 -27.5 -78.5t-60 -71t-61 -49t-33.5 -19.5t-6 4t1.5 5t5.5 3t7 4q49 32 87.5 75t38.5 87q0 26 -17 53.5t-17 30.5q0 9 21 18.5t29 9.5z" />
    <glyph glyph-name="kgreenlandic" unicode="&#x138;" horiz-adv-x="574" 
d="M90 4l-36 -8q-14 0 -14 16q0 3 10 20q15 32 104.5 191.5t89.5 172.5t-12 22.5t-23.5 9.5t-19 -1.5t-16 -6l-13 -7t-15 -10t-14 -9.5t-7.5 -2t-4 4t35.5 28t76 24t56.5 -12.5t16 -39t-50 -122.5q77 81 176.5 128.5t157.5 47.5q32 0 32 -6.5t-24.5 -22t-39.5 -15.5
q-14 4 -28 4q-52 0 -116.5 -34.5t-113 -93.5t-48.5 -118q0 -46 20 -90q12 -26 41.5 -42t72.5 -16q115 0 260 126q67 59 98 106q4 6 8 6t4 -3t-2 -7q-46 -62 -96 -106q-156 -156 -312 -156q-81 0 -121.5 39t-40.5 107l2 16q-63 -120 -64 -124q-8 -16 -30 -16z" />
    <glyph glyph-name="Lacute" unicode="&#x139;" horiz-adv-x="768" 
d="M482 782q-5 -5 -10 -11q-9 -11 -12 -11q-6 0 -6 7t22 29q86 90 182 90q39 0 69.5 -20.5t30.5 -69.5q0 -79 -111.5 -283.5t-194.5 -318.5q58 -174 230.5 -311t343.5 -137q117 0 192 72q8 8 15.5 18.5t12 16t8.5 5.5t4 -6q0 -17 -28 -50q-90 -106 -260 -106q-124 0 -246 58
q-68 32 -126 81.5t-109 127.5t-81 175q-56 -68 -122.5 -115t-129 -47t-62.5 40q0 46 49.5 117t115.5 124t109 53q38 0 68 -72q118 186 181 335t63 203q0 72 -52 72q-80 0 -146 -66zM396 178q-9 33 -26 55.5t-36 22.5q-56 0 -118 -69.5t-62 -130.5q0 -16 10 -27t28 -11
q56 0 103 42t101 118zM660 1016l238 138q9 6 16 6q4 0 4 -8t-6.5 -20.5t-13.5 -15.5l-96 -44q-152 -72 -158 -72t-6 1.5t22 14.5z" />
    <glyph glyph-name="lacute" unicode="&#x13a;" horiz-adv-x="436" 
d="M436 648l143.5 123.5t131 130.5t114.5 141.5t75 145t30 151.5q0 17 -7 28.5t-19 11.5q-45 0 -134 -128.5t-188 -319.5zM322 538q-101 -73 -138 -102q-56 -44 -60 -44t-4 4t6 8q122 88 210 160l174 330l44.5 87.5l47.5 93.5t47 81t59 85q70 86 144 135q69 52 124 52
q18 0 26 -15t8 -29q0 -166 -149 -351q-50 -62 -95 -110q-44 -48 -112 -109q-84 -76 -234 -198l-136 -266l-55.5 -111.5t-39 -91.5t-19.5 -78t16 -44.5t42 -18.5q63 0 140 41t142 97.5t96 103.5q4 6 8 6t4 -3t-2 -7q-54 -72 -107.5 -119t-113.5 -82t-115.5 -50t-96.5 -15
t-65 21.5t-24 53.5t10.5 62.5t21 51.5l42.5 81zM924 1536l238 138q9 6 16 6q4 0 4 -8t-6.5 -20.5t-13.5 -15.5l-96 -44q-152 -72 -158 -72t-6 1.5t22 14.5z" />
    <glyph glyph-name="Lcommaaccent" unicode="&#x13b;" horiz-adv-x="768" 
d="M482 782q-5 -5 -10 -11q-9 -11 -12 -11q-6 0 -6 7t22 29q86 90 182 90q39 0 69.5 -20.5t30.5 -69.5q0 -79 -111.5 -283.5t-194.5 -318.5q58 -174 230.5 -311t343.5 -137q117 0 192 72q8 8 15.5 18.5t12 16t8.5 5.5t4 -6q0 -17 -28 -50q-90 -106 -260 -106q-124 0 -246 58
q-68 32 -126 81.5t-109 127.5t-81 175q-56 -68 -122.5 -115t-129 -47t-62.5 40q0 46 49.5 117t115.5 124t109 53q38 0 68 -72q118 186 181 335t63 203q0 72 -52 72q-80 0 -146 -66zM396 178q-9 33 -26 55.5t-36 22.5q-56 0 -118 -69.5t-62 -130.5q0 -16 10 -27t28 -11
q56 0 103 42t101 118zM332 -100q32 0 32 -72q-1 -37 -27.5 -78.5t-60 -71t-61 -49t-33.5 -19.5t-6 4t1.5 5t5.5 3t7 4q49 32 87.5 75t38.5 87q0 26 -17 53.5t-17 30.5q0 9 21 18.5t29 9.5z" />
    <glyph glyph-name="lcommaaccent" unicode="&#x13c;" horiz-adv-x="436" 
d="M436 648l143.5 123.5t131 130.5t114.5 141.5t75 145t30 151.5q0 17 -7 28.5t-19 11.5q-45 0 -134 -128.5t-188 -319.5zM322 538q-101 -73 -138 -102q-56 -44 -60 -44t-4 4t6 8q122 88 210 160l174 330l44.5 87.5l47.5 93.5t47 81t59 85q70 86 144 135q69 52 124 52
q18 0 26 -15t8 -29q0 -166 -149 -351q-50 -62 -95 -110q-44 -48 -112 -109q-84 -76 -234 -198l-136 -266l-55.5 -111.5t-39 -91.5t-19.5 -78t16 -44.5t42 -18.5q63 0 140 41t142 97.5t96 103.5q4 6 8 6t4 -3t-2 -7q-54 -72 -107.5 -119t-113.5 -82t-115.5 -50t-96.5 -15
t-65 21.5t-24 53.5t10.5 62.5t21 51.5l42.5 81zM104 -100q32 0 32 -72q-1 -37 -27.5 -78.5t-60 -71t-61 -49t-33.5 -19.5t-6 4t1.5 5t5.5 3t7 4q49 32 87.5 75t38.5 87q0 26 -17 53.5t-17 30.5q0 9 21 18.5t29 9.5z" />
    <glyph glyph-name="Lcaron" unicode="&#x13d;" horiz-adv-x="768" 
d="M482 782q-5 -5 -10 -11q-9 -11 -12 -11q-6 0 -6 7t22 29q86 90 182 90q39 0 69.5 -20.5t30.5 -69.5q0 -79 -111.5 -283.5t-194.5 -318.5q58 -174 230.5 -311t343.5 -137q117 0 192 72q8 8 15.5 18.5t12 16t8.5 5.5t4 -6q0 -17 -28 -50q-90 -106 -260 -106q-124 0 -246 58
q-68 32 -126 81.5t-109 127.5t-81 175q-56 -68 -122.5 -115t-129 -47t-62.5 40q0 46 49.5 117t115.5 124t109 53q38 0 68 -72q118 186 181 335t63 203q0 72 -52 72q-80 0 -146 -66zM396 178q-9 33 -26 55.5t-36 22.5q-56 0 -118 -69.5t-62 -130.5q0 -16 10 -27t28 -11
q56 0 103 42t101 118zM978 896q32 0 32 -72q-1 -37 -27.5 -78.5t-60 -71t-61 -49t-33.5 -19.5t-6 4t1.5 5t5.5 3t7 4q49 32 87.5 75t38.5 87q0 26 -17 53.5t-17 30.5q0 9 21 18.5t29 9.5z" />
    <glyph glyph-name="lcaron" unicode="&#x13e;" horiz-adv-x="436" 
d="M436 648l143.5 123.5t131 130.5t114.5 141.5t75 145t30 151.5q0 17 -7 28.5t-19 11.5q-45 0 -134 -128.5t-188 -319.5zM322 538q-101 -73 -138 -102q-56 -44 -60 -44t-4 4t6 8q122 88 210 160l174 330l44.5 87.5l47.5 93.5t47 81t59 85q70 86 144 135q69 52 124 52
q18 0 26 -15t8 -29q0 -166 -149 -351q-50 -62 -95 -110q-44 -48 -112 -109q-84 -76 -234 -198l-136 -266l-55.5 -111.5t-39 -91.5t-19.5 -78t16 -44.5t42 -18.5q63 0 140 41t142 97.5t96 103.5q4 6 8 6t4 -3t-2 -7q-54 -72 -107.5 -119t-113.5 -82t-115.5 -50t-96.5 -15
t-65 21.5t-24 53.5t10.5 62.5t21 51.5l42.5 81zM1178 1336q32 0 32 -72q-1 -37 -27.5 -78.5t-60 -71t-61 -49t-33.5 -19.5t-6 4t1.5 5t5.5 3t7 4q49 32 87.5 75t38.5 87q0 26 -17 53.5t-17 30.5q0 9 21 18.5t29 9.5z" />
    <glyph glyph-name="Ldot" unicode="&#x13f;" horiz-adv-x="768" 
d="M482 782q-5 -5 -10 -11q-9 -11 -12 -11q-6 0 -6 7t22 29q86 90 182 90q39 0 69.5 -20.5t30.5 -69.5q0 -79 -111.5 -283.5t-194.5 -318.5q58 -174 230.5 -311t343.5 -137q117 0 192 72q8 8 15.5 18.5t12 16t8.5 5.5t4 -6q0 -17 -28 -50q-90 -106 -260 -106q-124 0 -246 58
q-68 32 -126 81.5t-109 127.5t-81 175q-56 -68 -122.5 -115t-129 -47t-62.5 40q0 46 49.5 117t115.5 124t109 53q38 0 68 -72q118 186 181 335t63 203q0 72 -52 72q-80 0 -146 -66zM396 178q-9 33 -26 55.5t-36 22.5q-56 0 -118 -69.5t-62 -130.5q0 -16 10 -27t28 -11
q56 0 103 42t101 118zM724 384q0 22 20 46q18 24 36 24t27 -10.5t9 -29.5t-18 -42.5t-42 -23.5q-32 0 -32 36z" />
    <glyph glyph-name="ldot" unicode="&#x140;" horiz-adv-x="874" 
d="M436 648l143.5 123.5t131 130.5t114.5 141.5t75 145t30 151.5q0 17 -7 28.5t-19 11.5q-45 0 -134 -128.5t-188 -319.5zM322 538q-101 -73 -138 -102q-56 -44 -60 -44t-4 4t6 8q122 88 210 160l174 330l44.5 87.5l47.5 93.5t47 81t59 85q70 86 144 135q69 52 124 52
q18 0 26 -15t8 -29q0 -166 -149 -351q-50 -62 -95 -110q-44 -48 -112 -109q-84 -76 -234 -198l-136 -266l-55.5 -111.5t-39 -91.5t-19.5 -78t16 -44.5t42 -18.5q63 0 140 41t142 97.5t96 103.5q4 6 8 6t4 -3t-2 -7q-54 -72 -107.5 -119t-113.5 -82t-115.5 -50t-96.5 -15
t-65 21.5t-24 53.5t10.5 62.5t21 51.5l42.5 81zM408 358q0 22 20 46q18 24 36 24t27 -10.5t9 -29.5t-18 -42.5t-42 -23.5q-32 0 -32 36z" />
    <glyph glyph-name="Lslash" unicode="&#x141;" horiz-adv-x="768" 
d="M482 782q-5 -5 -10 -11q-9 -11 -12 -11q-6 0 -6 7t22 29q86 90 182 90q39 0 69.5 -20.5t30.5 -69.5q0 -79 -111.5 -283.5t-194.5 -318.5q58 -174 230.5 -311t343.5 -137q117 0 192 72q8 8 15.5 18.5t12 16t8.5 5.5t4 -6q0 -17 -28 -50q-90 -106 -260 -106q-124 0 -246 58
q-68 32 -126 81.5t-109 127.5t-81 175q-56 -68 -122.5 -115t-129 -47t-62.5 40q0 46 49.5 117t115.5 124t109 53q38 0 68 -72q118 186 181 335t63 203q0 72 -52 72q-80 0 -146 -66zM396 178q-9 33 -26 55.5t-36 22.5q-56 0 -118 -69.5t-62 -130.5q0 -16 10 -27t28 -11
q56 0 103 42t101 118zM654 550q51 32 86 52l58 34q48 28 58 28t10 -6t-28 -25l-140 -83t-186 -98q-119 -52 -152 -52q-6 0 -6 4q0 6 24 22t44 22q103 27 232 102z" />
    <glyph glyph-name="lslash" unicode="&#x142;" horiz-adv-x="436" 
d="M436 648l143.5 123.5t131 130.5t114.5 141.5t75 145t30 151.5q0 17 -7 28.5t-19 11.5q-45 0 -134 -128.5t-188 -319.5zM322 538q-101 -73 -138 -102q-56 -44 -60 -44t-4 4t6 8q122 88 210 160l174 330l44.5 87.5l47.5 93.5t47 81t59 85q70 86 144 135q69 52 124 52
q18 0 26 -15t8 -29q0 -166 -149 -351q-50 -62 -95 -110q-44 -48 -112 -109q-84 -76 -234 -198l-136 -266l-55.5 -111.5t-39 -91.5t-19.5 -78t16 -44.5t42 -18.5q63 0 140 41t142 97.5t96 103.5q4 6 8 6t4 -3t-2 -7q-54 -72 -107.5 -119t-113.5 -82t-115.5 -50t-96.5 -15
t-65 21.5t-24 53.5t10.5 62.5t21 51.5l42.5 81zM364 882q138 52 194 84t120 79l93 67t45 20l4 -2q0 -4 -40 -36q-160 -124 -330 -206q-105 -50 -124 -50q-6 0 -6 2q0 6 16 22t28 20z" />
    <glyph glyph-name="Nacute" unicode="&#x143;" horiz-adv-x="910" 
d="M710 36q-12 -31 -34.5 -45.5t-41.5 -14.5q-40 0 -40 96l4 688q0 34 -1 41t-5 7q-12 0 -30 -36l-388 -736q-12 -24 -38 -36q-22 -11 -30 -21.5t-14 -10.5t-6 4t6 18q78 173 78 238.5t-16 65.5q-5 0 -13.5 -5t-12.5 -5t-4 6l32 20q5 3 12 8q14 10 22 10t22 -10
q28 -20 28 -70l308 566q12 25 37.5 41.5t62.5 16.5q34 0 34 -60l-6 -738q33 82 188 383.5t200 344.5q54 54 88 66q15 6 31.5 6t31.5 -7.5t15 -15.5t-15 -21l-30 -28q-33 -29 -34 -28q-5 0 -5 6t-7 12t-17 6q-29 0 -52 -34q-79 -115 -198.5 -367.5t-161.5 -360.5zM838 1016
l238 138q9 6 16 6q4 0 4 -8t-6.5 -20.5t-13.5 -15.5l-96 -44q-152 -72 -158 -72t-6 1.5t22 14.5z" />
    <glyph glyph-name="nacute" unicode="&#x144;" horiz-adv-x="628" 
d="M214 428q-35 0 -80 -30q-9 -6 -11.5 -6t-2.5 4t6 8q69 52 126 52q25 0 39.5 -14t14.5 -35t-40 -93q161 138 250 138q31 0 44.5 -21.5t13.5 -54t-68 -157.5t-68 -161q0 -16 9 -27t23 -11q89 0 218 112q34 30 65.5 64t39 46t11.5 12t4 -3t-2 -7q-36 -48 -108.5 -119.5
t-150 -108t-129.5 -36.5t-52 46q0 41 34 109.5l68 132.5t34 96q0 50 -38 50q-35 0 -121.5 -62.5t-94.5 -77.5l-146 -266q-5 -8 -18.5 -10.5t-28 -8t-19.5 -5.5q-12 0 -12 10q0 4 58 102q156 268 156 306q0 26 -24 26zM382 564l238 138q9 6 16 6q4 0 4 -8t-6.5 -20.5
t-13.5 -15.5l-96 -44q-152 -72 -158 -72t-6 1.5t22 14.5z" />
    <glyph glyph-name="Ncommaaccent" unicode="&#x145;" horiz-adv-x="910" 
d="M710 36q-12 -31 -34.5 -45.5t-41.5 -14.5q-40 0 -40 96l4 688q0 34 -1 41t-5 7q-12 0 -30 -36l-388 -736q-12 -24 -38 -36q-22 -11 -30 -21.5t-14 -10.5t-6 4t6 18q78 173 78 238.5t-16 65.5q-5 0 -13.5 -5t-12.5 -5t-4 6l32 20q5 3 12 8q14 10 22 10t22 -10
q28 -20 28 -70l308 566q12 25 37.5 41.5t62.5 16.5q34 0 34 -60l-6 -738q33 82 188 383.5t200 344.5q54 54 88 66q15 6 31.5 6t31.5 -7.5t15 -15.5t-15 -21l-30 -28q-33 -29 -34 -28q-5 0 -5 6t-7 12t-17 6q-29 0 -52 -34q-79 -115 -198.5 -367.5t-161.5 -360.5zM334 -100
q32 0 32 -72q-1 -37 -27.5 -78.5t-60 -71t-61 -49t-33.5 -19.5t-6 4t1.5 5t5.5 3t7 4q49 32 87.5 75t38.5 87q0 26 -17 53.5t-17 30.5q0 9 21 18.5t29 9.5z" />
    <glyph glyph-name="ncommaaccent" unicode="&#x146;" horiz-adv-x="628" 
d="M214 428q-35 0 -80 -30q-9 -6 -11.5 -6t-2.5 4t6 8q69 52 126 52q25 0 39.5 -14t14.5 -35t-40 -93q161 138 250 138q31 0 44.5 -21.5t13.5 -54t-68 -157.5t-68 -161q0 -16 9 -27t23 -11q89 0 218 112q34 30 65.5 64t39 46t11.5 12t4 -3t-2 -7q-36 -48 -108.5 -119.5
t-150 -108t-129.5 -36.5t-52 46q0 41 34 109.5l68 132.5t34 96q0 50 -38 50q-35 0 -121.5 -62.5t-94.5 -77.5l-146 -266q-5 -8 -18.5 -10.5t-28 -8t-19.5 -5.5q-12 0 -12 10q0 4 58 102q156 268 156 306q0 26 -24 26zM212 -100q32 0 32 -72q-1 -37 -27.5 -78.5t-60 -71
t-61 -49t-33.5 -19.5t-6 4t1.5 5t5.5 3t7 4q49 32 87.5 75t38.5 87q0 26 -17 53.5t-17 30.5q0 9 21 18.5t29 9.5z" />
    <glyph glyph-name="Ncaron" unicode="&#x147;" horiz-adv-x="910" 
d="M710 36q-12 -31 -34.5 -45.5t-41.5 -14.5q-40 0 -40 96l4 688q0 34 -1 41t-5 7q-12 0 -30 -36l-388 -736q-12 -24 -38 -36q-22 -11 -30 -21.5t-14 -10.5t-6 4t6 18q78 173 78 238.5t-16 65.5q-5 0 -13.5 -5t-12.5 -5t-4 6l32 20q5 3 12 8q14 10 22 10t22 -10
q28 -20 28 -70l308 566q12 25 37.5 41.5t62.5 16.5q34 0 34 -60l-6 -738q33 82 188 383.5t200 344.5q54 54 88 66q15 6 31.5 6t31.5 -7.5t15 -15.5t-15 -21l-30 -28q-33 -29 -34 -28q-5 0 -5 6t-7 12t-17 6q-29 0 -52 -34q-79 -115 -198.5 -367.5t-161.5 -360.5zM938 1044
q-21 -16 -30 -16t-11 6t-27.5 56.5t-25.5 76.5q0 2 12 7.5t20 12.5t10 7l2 1v-1q23 -57 52 -118l192 106q18 10 30 10l2 -2q0 -2 -20 -14z" />
    <glyph glyph-name="ncaron" unicode="&#x148;" horiz-adv-x="628" 
d="M214 428q-35 0 -80 -30q-9 -6 -11.5 -6t-2.5 4t6 8q69 52 126 52q25 0 39.5 -14t14.5 -35t-40 -93q161 138 250 138q31 0 44.5 -21.5t13.5 -54t-68 -157.5t-68 -161q0 -16 9 -27t23 -11q89 0 218 112q34 30 65.5 64t39 46t11.5 12t4 -3t-2 -7q-36 -48 -108.5 -119.5
t-150 -108t-129.5 -36.5t-52 46q0 41 34 109.5l68 132.5t34 96q0 50 -38 50q-35 0 -121.5 -62.5t-94.5 -77.5l-146 -266q-5 -8 -18.5 -10.5t-28 -8t-19.5 -5.5q-12 0 -12 10q0 4 58 102q156 268 156 306q0 26 -24 26zM482 592q-21 -16 -30 -16t-11 6t-27.5 56.5t-25.5 76.5
q0 2 12 7.5t20 12.5t10 7l2 1v-1q23 -57 52 -118l192 106q18 10 30 10l2 -2q0 -2 -20 -14z" />
    <glyph glyph-name="napostrophe" unicode="&#x149;" horiz-adv-x="628" 
d="M156 758q32 0 32 -72q-1 -37 -27.5 -78.5t-60 -71t-61 -49t-33.5 -19.5t-6 4t1.5 5t5.5 3t7 4q49 32 87.5 75t38.5 87q0 26 -17 53.5t-17 30.5q0 9 21 18.5t29 9.5zM214 428q-35 0 -80 -30q-9 -6 -11.5 -6t-2.5 4t6 8q69 52 126 52q25 0 39.5 -14t14.5 -35t-40 -93
q161 138 250 138q31 0 44.5 -21.5t13.5 -54t-68 -157.5t-68 -161q0 -16 9 -27t23 -11q89 0 218 112q34 30 65.5 64t39 46t11.5 12t4 -3t-2 -7q-36 -48 -108.5 -119.5t-150 -108t-129.5 -36.5t-52 46q0 41 34 109.5l68 132.5t34 96q0 50 -38 50q-35 0 -121.5 -62.5
t-94.5 -77.5l-146 -266q-5 -8 -18.5 -10.5t-28 -8t-19.5 -5.5q-12 0 -12 10q0 4 58 102q156 268 156 306q0 26 -24 26z" />
    <glyph glyph-name="Eng" unicode="&#x14a;" horiz-adv-x="910" 
d="M678 -30q-264 -546 -544 -546q-53 0 -76.5 34t-23.5 72q0 174 198 316q19 15 59 39.5t44.5 24.5t4.5 -3.5t-13 -12.5q-13 -10 -38 -26q-93 -60 -148 -160q-39 -70 -39 -132q0 -37 23.5 -74.5t74.5 -37.5q29 0 52.5 6.5t61 34t76.5 77.5q92 117 214 362q-10 80 -10 128
l4 688q0 34 -1 41t-5 7q-12 0 -30 -36l-388 -736q-12 -24 -38 -36q-22 -11 -30 -21.5t-14 -10.5t-6 4t6 18q78 173 78 238.5t-16 65.5q-5 0 -13.5 -5t-12.5 -5t-4 6l32 20q5 3 12 8q14 10 22 10t22 -10q28 -20 28 -70l308 566q12 25 37.5 41.5t62.5 16.5q34 0 34 -60
l-6 -716q79 171 215 420t173 286q54 54 88 66q15 6 31.5 6t31.5 -7.5t15 -15.5t-15 -21l-30 -28q-33 -29 -34 -28q-5 0 -5 6t-7 12t-17 6q-29 0 -52 -34q-108 -156 -303 -596q-81 -182 -89 -198z" />
    <glyph glyph-name="eng" unicode="&#x14b;" horiz-adv-x="628" 
d="M98 124.5q35 58.5 87.5 156.5t52.5 122.5t-24 24.5q-35 0 -80 -30q-9 -6 -11.5 -6t-2.5 4t5 8t21.5 15t48 24t57 13t40 -14t14.5 -35t-40 -93q161 138 250 138q31 0 44.5 -21.5t13.5 -50.5q0 -68 -87.5 -238t-153.5 -263t-161.5 -166t-193.5 -73q-54 0 -77 30.5t-23 58.5
t34 89q4 4 8 14q10 24 16 24t6 -8q0 -3 -7 -32.5t-7 -43.5q0 -32 31.5 -62t84.5 -30q126 0 258 220q39 62 119.5 226.5t80.5 237.5q0 50 -38 50q-35 0 -121.5 -62.5t-94.5 -77.5q-1 -2 -13 -24q-33 -59 -33 -62l-70 -130q-11 -19 -23 -43t-18 -33.5t-15 -9.5t-23.5 15
t-14.5 25.5t12.5 32z" />
    <glyph glyph-name="Omacron" unicode="&#x14c;" horiz-adv-x="960" 
d="M1046.5 799q23.5 -89 23.5 -180.5t-41 -193t-108 -181t-148.5 -141t-167.5 -94.5t-160.5 -33t-140 30.5t-108 94t-42.5 153.5t48 204q108 253 324 366q118 62 242 62q54 0 111 -34.5t57 -73.5q0 -6 -9 -20t-13 -21q-2 -7 -8 -19q-11 -22 -16 -22q-10 0 -10 10
q0 41 -16 71.5t-41 45.5q-48 29 -97 29q-224 0 -370 -218q-120 -178 -120 -328q0 -120 65 -195t171 -75q128 0 252.5 79t204 209.5t79.5 269.5q0 51 -9.5 86.5t-16.5 57.5t-14 39t-13 29.5l-13 27.5q0 6 20.5 30t31.5 24q29 0 52.5 -89zM1000 1052l-282 2q-14 0 -14 14t8 14
l330 -2q16 0 16 -10q0 -18 -58 -18z" />
    <glyph glyph-name="omacron" unicode="&#x14d;" horiz-adv-x="536" 
d="M450 400l-6 2q0 -21 16.5 -39.5t39.5 -24.5q2 13 2 33v11q0 28 -17 59t-27 31q-14 0 -14 -40q6 -2 12 -8t6 -11t-5 -9t-7 -4zM496 320q-40 2 -71.5 31t-34.5 69q-59 0 -119.5 -55t-97.5 -134t-37 -149q0 -27 16.5 -50.5t47.5 -23.5q90 0 181.5 100t114.5 212zM676 406
q0 -4 -6.5 -8t-25 -17.5t-30 -21t-29.5 -17.5q-35 -19 -69 -22q-25 -128 -127.5 -233t-214.5 -105t-112 102q0 82 48.5 166t125.5 138t154 54q2 25 15 49.5t37 24.5q37 0 58.5 -37t21.5 -95q0 -16 -4 -48q45 0 144 68q9 6 11.5 6t2.5 -4zM638 600l-282 2q-14 0 -14 14t8 14
l330 -2q16 0 16 -10q0 -18 -58 -18z" />
    <glyph glyph-name="Obreve" unicode="&#x14e;" horiz-adv-x="960" 
d="M1046.5 799q23.5 -89 23.5 -180.5t-41 -193t-108 -181t-148.5 -141t-167.5 -94.5t-160.5 -33t-140 30.5t-108 94t-42.5 153.5t48 204q108 253 324 366q118 62 242 62q54 0 111 -34.5t57 -73.5q0 -6 -9 -20t-13 -21q-2 -7 -8 -19q-11 -22 -16 -22q-10 0 -10 10
q0 41 -16 71.5t-41 45.5q-48 29 -97 29q-224 0 -370 -218q-120 -178 -120 -328q0 -120 65 -195t171 -75q128 0 252.5 79t204 209.5t79.5 269.5q0 51 -9.5 86.5t-16.5 57.5t-14 39t-13 29.5l-13 27.5q0 6 20.5 30t31.5 24q29 0 52.5 -89zM834 1174q-10 -26 -10 -51.5
t22.5 -44t55.5 -18.5q84 0 144 88q5 5 22 15.5t26 10.5h2q0 -8 -34 -41.5t-93.5 -67t-108 -33.5t-66.5 21.5t-18 45.5t10 51q3 7 20 16.5t26 9.5z" />
    <glyph glyph-name="obreve" unicode="&#x14f;" horiz-adv-x="536" 
d="M450 400l-6 2q0 -21 16.5 -39.5t39.5 -24.5q2 13 2 33v11q0 28 -17 59t-27 31q-14 0 -14 -40q6 -2 12 -8t6 -11t-5 -9t-7 -4zM496 320q-40 2 -71.5 31t-34.5 69q-59 0 -119.5 -55t-97.5 -134t-37 -149q0 -27 16.5 -50.5t47.5 -23.5q90 0 181.5 100t114.5 212zM676 406
q0 -4 -6.5 -8t-25 -17.5t-30 -21t-29.5 -17.5q-35 -19 -69 -22q-25 -128 -127.5 -233t-214.5 -105t-112 102q0 82 48.5 166t125.5 138t154 54q2 25 15 49.5t37 24.5q37 0 58.5 -37t21.5 -95q0 -16 -4 -48q45 0 144 68q9 6 11.5 6t2.5 -4zM472 722q-10 -26 -10 -51.5
t22.5 -44t55.5 -18.5q84 0 144 88q5 5 22 15.5t26 10.5h2q0 -8 -34 -41.5t-93.5 -67t-108 -33.5t-66.5 21.5t-18 45.5t10 51q3 7 20 16.5t26 9.5z" />
    <glyph glyph-name="Ohungarumlaut" unicode="&#x150;" horiz-adv-x="960" 
d="M1046.5 799q23.5 -89 23.5 -180.5t-41 -193t-108 -181t-148.5 -141t-167.5 -94.5t-160.5 -33t-140 30.5t-108 94t-42.5 153.5t48 204q108 253 324 366q118 62 242 62q54 0 111 -34.5t57 -73.5q0 -6 -9 -20t-13 -21q-2 -7 -8 -19q-11 -22 -16 -22q-10 0 -10 10
q0 41 -16 71.5t-41 45.5q-48 29 -97 29q-224 0 -370 -218q-120 -178 -120 -328q0 -120 65 -195t171 -75q128 0 252.5 79t204 209.5t79.5 269.5q0 51 -9.5 86.5t-16.5 57.5t-14 39t-13 29.5l-13 27.5q0 6 20.5 30t31.5 24q29 0 52.5 -89zM960 1166q9 6 16 6q4 0 4 -8t-7 -18
q-7 -11 -15 -16l-132 -73l-72 -42q-30 -17 -36 -17t-6 4zM848 1014l238 138q9 6 16 6q4 0 4 -8t-6.5 -20.5t-13.5 -15.5l-96 -44q-152 -72 -158 -72t-6 1.5t22 14.5z" />
    <glyph glyph-name="ohungarumlaut" unicode="&#x151;" horiz-adv-x="536" 
d="M450 400l-6 2q0 -21 16.5 -39.5t39.5 -24.5q2 13 2 33v11q0 28 -17 59t-27 31q-14 0 -14 -40q6 -2 12 -8t6 -11t-5 -9t-7 -4zM496 320q-40 2 -71.5 31t-34.5 69q-59 0 -119.5 -55t-97.5 -134t-37 -149q0 -27 16.5 -50.5t47.5 -23.5q90 0 181.5 100t114.5 212zM676 406
q0 -4 -6.5 -8t-25 -17.5t-30 -21t-29.5 -17.5q-35 -19 -69 -22q-25 -128 -127.5 -233t-214.5 -105t-112 102q0 82 48.5 166t125.5 138t154 54q2 25 15 49.5t37 24.5q37 0 58.5 -37t21.5 -95q0 -16 -4 -48q45 0 144 68q9 6 11.5 6t2.5 -4zM598 714q9 6 16 6q4 0 4 -8t-7 -18
q-7 -11 -15 -16l-132 -73l-72 -42q-30 -17 -36 -17t-6 4zM486 562l238 138q9 6 16 6q4 0 4 -8t-6.5 -20.5t-13.5 -15.5l-96 -44q-152 -72 -158 -72t-6 1.5t22 14.5z" />
    <glyph glyph-name="OE" unicode="&#x152;" horiz-adv-x="1572" 
d="M1046.5 799q23.5 -89 23.5 -180.5t-41 -193t-108 -181t-148.5 -141t-167.5 -94.5t-160.5 -33t-140 30.5t-108 94t-42.5 153.5t48 204q108 253 324 366q118 62 242 62q54 0 111 -34.5t57 -73.5q0 -6 -9 -20t-13 -21q-2 -7 -8 -19q-11 -22 -16 -22q-10 0 -10 10
q0 41 -16 71.5t-41 45.5q-48 29 -97 29q-224 0 -370 -218q-120 -178 -120 -328q0 -120 65 -195t171 -75q128 0 252.5 79t204 209.5t79.5 269.5q0 51 -9.5 86.5t-16.5 57.5t-14 39t-13 29.5l-13 27.5q0 6 20.5 30t31.5 24q29 0 52.5 -89zM1516 250l-4 26q0 6 4 6l24 -16
q2 -1 4.5 -3.5t4 -3.5t3.5 -3q1 0 2 -2q2 -3 2 -10q0 -30 -26.5 -73.5t-73 -88t-123.5 -75.5t-171 -31t-180 60t-86 154q0 68 29.5 126t73.5 93.5t96 64t96 42.5q103 34 103 38q0 8 -12 16q-60 41 -60 112.5t80.5 137.5t217.5 66q49 0 104 -12q108 -25 108 -68
q0 -12 -11 -29.5t-18 -32t-11 -14.5t-8 12q-12 41 -61.5 80.5t-119 39.5t-113.5 -14q-45 -12 -65 -34q-35 -38 -35 -76.5t21.5 -78.5t54.5 -59q40 -19 40 -24q0 -17 -8 -27t-34 -13q-88 -10 -155 -36t-106.5 -58.5t-64.5 -74.5q-42 -71 -42 -163q0 -50 21 -88t55 -58
q94 -37 140 -40q139 0 221.5 71t82.5 161z" />
    <glyph glyph-name="oe" unicode="&#x153;" horiz-adv-x="794" 
d="M550 264q34 1 72 18t62 38q58 50 58 96q0 22 -22 22q-42 0 -87.5 -50.5t-82.5 -123.5zM442 516q39 0 59.5 -38.5t20.5 -90t-16 -105.5q58 77 129 130.5t121 53.5t50 -40q0 -27 -33 -61.5t-67 -58.5q-70 -50 -164 -56q-44 -91 -44 -144.5t23.5 -74.5t79 -21t128 39
t137.5 95.5t96 103.5q4 6 8 6t4 -3t-2 -7q-111 -144 -268 -224q-76 -36 -148 -36q-136 0 -136 94q0 29 8 56q-52 -69 -119.5 -110.5t-138.5 -41.5q-108 0 -108 102q0 82 48.5 166t125.5 138t154 54q2 25 15 49.5t37 24.5zM480 262q-36 20 -60.5 65.5t-29.5 92.5
q-59 0 -119.5 -55t-97.5 -134t-37 -149q0 -27 16.5 -50.5t47.5 -23.5q78 0 159.5 77t120.5 177zM450 400l-6 2q0 -27 11.5 -60t32.5 -54q14 53 14 81t-9.5 53t-19.5 37.5t-15 12.5q-14 0 -14 -40q6 -2 12 -8t6 -11t-5 -9t-7 -4z" />
    <glyph glyph-name="Racute" unicode="&#x154;" horiz-adv-x="780" 
d="M316 414l10 20l-20 -4q4 -6 10 -16zM430 478q172 38 265 78q49 22 96.5 49t75 61.5t27.5 74t-30.5 72.5t-85.5 33q-74 0 -132 -50q-30 -26 -55 -54.5t-55 -76.5q-44 -70 -106 -187zM103 -27q-7 -5 -14 -5t-7 6q0 4 18.5 31.5t21.5 32.5q67 123 109 208l67 132
q-28 56 -28 66q0 3 70 16q68 129 112 194q67 106 182 169t214 63q54 0 87 -28.5t33 -79.5q0 -102 -130 -183t-422 -143l-56 -108l222 -366q64 -115 122.5 -168.5t137.5 -53.5q107 0 168 86q14 14 30 14t16 -8v-6q-115 -108 -252 -108t-210 108q-44 66 -138.5 244.5
t-117.5 217.5q-36 -75 -75.5 -179.5t-45 -117.5t-18.5 -14.5t-36.5 -2.5t-38 -6.5t-21.5 -10.5zM828 1016l238 138q9 6 16 6q4 0 4 -8t-6.5 -20.5t-13.5 -15.5l-96 -44q-152 -72 -158 -72t-6 1.5t22 14.5z" />
    <glyph glyph-name="racute" unicode="&#x155;" horiz-adv-x="440" 
d="M278.5 432q15.5 -16 15.5 -33t-8 -37t-17 -37l-19.5 -35.5t-11.5 -21.5q60 69 148 132q63 44 164 84q12 4 15 4t3 -3t-1.5 -4.5t-3.5 -2.5l-11.5 -6t-41.5 -32.5t-32 -48.5t18 -21q23 0 70 34q9 6 11.5 6t2.5 -4t-6 -8q-41 -30 -64.5 -41t-46.5 -11t-37 8t-14 23.5
t12 30.5q-46 -26 -108 -85.5t-124 -142.5q-92 -170 -104 -184t-17.5 -14t-8.5 2.5t-7.5 10.5t-12.5 19.5t-8 19t14 29t32.5 42t31.5 37.5q82 154 100 191.5t18 55t-8.5 26.5t-28.5 9t-59 -26q-9 -6 -11.5 -6t-2.5 4t6 8q64 44 108 44q29 0 44.5 -16zM320 564l238 138
q9 6 16 6q4 0 4 -8t-6.5 -20.5t-13.5 -15.5l-96 -44q-152 -72 -158 -72t-6 1.5t22 14.5z" />
    <glyph glyph-name="Rcommaaccent" unicode="&#x156;" horiz-adv-x="780" 
d="M316 414l10 20l-20 -4q4 -6 10 -16zM430 478q172 38 265 78q49 22 96.5 49t75 61.5t27.5 74t-30.5 72.5t-85.5 33q-74 0 -132 -50q-30 -26 -55 -54.5t-55 -76.5q-44 -70 -106 -187zM103 -27q-7 -5 -14 -5t-7 6q0 4 18.5 31.5t21.5 32.5q67 123 109 208l67 132
q-28 56 -28 66q0 3 70 16q68 129 112 194q67 106 182 169t214 63q54 0 87 -28.5t33 -79.5q0 -102 -130 -183t-422 -143l-56 -108l222 -366q64 -115 122.5 -168.5t137.5 -53.5q107 0 168 86q14 14 30 14t16 -8v-6q-115 -108 -252 -108t-210 108q-44 66 -138.5 244.5
t-117.5 217.5q-36 -75 -75.5 -179.5t-45 -117.5t-18.5 -14.5t-36.5 -2.5t-38 -6.5t-21.5 -10.5zM316 -100q32 0 32 -72q-1 -37 -27.5 -78.5t-60 -71t-61 -49t-33.5 -19.5t-6 4t1.5 5t5.5 3t7 4q49 32 87.5 75t38.5 87q0 26 -17 53.5t-17 30.5q0 9 21 18.5t29 9.5z" />
    <glyph glyph-name="rcommaaccent" unicode="&#x157;" horiz-adv-x="440" 
d="M278.5 432q15.5 -16 15.5 -33t-8 -37t-17 -37l-19.5 -35.5t-11.5 -21.5q60 69 148 132q63 44 164 84q12 4 15 4t3 -3t-1.5 -4.5t-3.5 -2.5l-11.5 -6t-41.5 -32.5t-32 -48.5t18 -21q23 0 70 34q9 6 11.5 6t2.5 -4t-6 -8q-41 -30 -64.5 -41t-46.5 -11t-37 8t-14 23.5
t12 30.5q-46 -26 -108 -85.5t-124 -142.5q-92 -170 -104 -184t-17.5 -14t-8.5 2.5t-7.5 10.5t-12.5 19.5t-8 19t14 29t32.5 42t31.5 37.5q82 154 100 191.5t18 55t-8.5 26.5t-28.5 9t-59 -26q-9 -6 -11.5 -6t-2.5 4t6 8q64 44 108 44q29 0 44.5 -16zM18 -100q32 0 32 -72
q-1 -37 -27.5 -78.5t-60 -71t-61 -49t-33.5 -19.5t-6 4t1.5 5t5.5 3t7 4q49 32 87.5 75t38.5 87q0 26 -17 53.5t-17 30.5q0 9 21 18.5t29 9.5z" />
    <glyph glyph-name="Rcaron" unicode="&#x158;" horiz-adv-x="780" 
d="M316 414l10 20l-20 -4q4 -6 10 -16zM430 478q172 38 265 78q49 22 96.5 49t75 61.5t27.5 74t-30.5 72.5t-85.5 33q-74 0 -132 -50q-30 -26 -55 -54.5t-55 -76.5q-44 -70 -106 -187zM103 -27q-7 -5 -14 -5t-7 6q0 4 18.5 31.5t21.5 32.5q67 123 109 208l67 132
q-28 56 -28 66q0 3 70 16q68 129 112 194q67 106 182 169t214 63q54 0 87 -28.5t33 -79.5q0 -102 -130 -183t-422 -143l-56 -108l222 -366q64 -115 122.5 -168.5t137.5 -53.5q107 0 168 86q14 14 30 14t16 -8v-6q-115 -108 -252 -108t-210 108q-44 66 -138.5 244.5
t-117.5 217.5q-36 -75 -75.5 -179.5t-45 -117.5t-18.5 -14.5t-36.5 -2.5t-38 -6.5t-21.5 -10.5zM928 1044q-21 -16 -30 -16t-11 6t-27.5 56.5t-25.5 76.5q0 2 12 7.5t20 12.5t10 7l2 1v-1q23 -57 52 -118l192 106q18 10 30 10l2 -2q0 -2 -20 -14z" />
    <glyph glyph-name="rcaron" unicode="&#x159;" horiz-adv-x="440" 
d="M278.5 432q15.5 -16 15.5 -33t-8 -37t-17 -37l-19.5 -35.5t-11.5 -21.5q60 69 148 132q63 44 164 84q12 4 15 4t3 -3t-1.5 -4.5t-3.5 -2.5l-11.5 -6t-41.5 -32.5t-32 -48.5t18 -21q23 0 70 34q9 6 11.5 6t2.5 -4t-6 -8q-41 -30 -64.5 -41t-46.5 -11t-37 8t-14 23.5
t12 30.5q-46 -26 -108 -85.5t-124 -142.5q-92 -170 -104 -184t-17.5 -14t-8.5 2.5t-7.5 10.5t-12.5 19.5t-8 19t14 29t32.5 42t31.5 37.5q82 154 100 191.5t18 55t-8.5 26.5t-28.5 9t-59 -26q-9 -6 -11.5 -6t-2.5 4t6 8q64 44 108 44q29 0 44.5 -16zM420 592
q-21 -16 -30 -16t-11 6t-27.5 56.5t-25.5 76.5q0 2 12 7.5t20 12.5t10 7l2 1v-1q23 -57 52 -118l192 106q18 10 30 10l2 -2q0 -2 -20 -14z" />
    <glyph glyph-name="Sacute" unicode="&#x15a;" horiz-adv-x="752" 
d="M76 136q0 6 19 25t33.5 36.5l22 27t9.5 9.5q6 0 6 -4l-9 -14q-9 -14 -9 -26q0 -42 15.5 -75t39 -52.5t53.5 -32.5q51 -22 108 -22q115 0 187.5 73t72.5 147q0 80 -72 173l-62 77q-72 90 -72 158t54.5 127t130 91t143.5 32q82 0 132 -58q22 -26 22 -34t-7 -14
q-11 -9 -33.5 -24.5t-26 -15.5t-3.5 6q0 36 -42.5 66t-105.5 30q-90 0 -142 -49.5t-52 -112.5q0 -64 77 -153l64 -75q77 -91 77 -168.5t-66 -153.5t-161 -120t-183 -44q-58 0 -103 16q-45 18 -69 44q-48 52 -48 110zM714 1016l238 138q9 6 16 6q4 0 4 -8t-6.5 -20.5
t-13.5 -15.5l-96 -44q-152 -72 -158 -72t-6 1.5t22 14.5z" />
    <glyph glyph-name="sacute" unicode="&#x15b;" horiz-adv-x="504" 
d="M82 110l-2 -26q0 -39 21.5 -67.5t68 -28.5t116 54.5t121 138t51.5 155.5q0 94 -52 94q-30 0 -68 -24t-72 -60q-60 -62 -88 -102q-4 -6 -8 -6t-4 3t2 7q150 208 264 208q46 0 74 -36t28 -89t-39 -119t-96 -118t-124.5 -87t-114 -35t-94 16t-48.5 42q0 13 26.5 48.5
t35.5 35.5q2 0 2 -4zM388 564l238 138q9 6 16 6q4 0 4 -8t-6.5 -20.5t-13.5 -15.5l-96 -44q-152 -72 -158 -72t-6 1.5t22 14.5z" />
    <glyph glyph-name="Scircumflex" unicode="&#x15c;" horiz-adv-x="752" 
d="M76 136q0 6 19 25t33.5 36.5l22 27t9.5 9.5q6 0 6 -4l-9 -14q-9 -14 -9 -26q0 -42 15.5 -75t39 -52.5t53.5 -32.5q51 -22 108 -22q115 0 187.5 73t72.5 147q0 80 -72 173l-62 77q-72 90 -72 158t54.5 127t130 91t143.5 32q82 0 132 -58q22 -26 22 -34t-7 -14
q-11 -9 -33.5 -24.5t-26 -15.5t-3.5 6q0 36 -42.5 66t-105.5 30q-90 0 -142 -49.5t-52 -112.5q0 -64 77 -153l64 -75q77 -91 77 -168.5t-66 -153.5t-161 -120t-183 -44q-58 0 -103 16q-45 18 -69 44q-48 52 -48 110zM854 1150q21 16 30 16t11 -6t27.5 -56.5t25.5 -76.5
q0 -2 -12 -7.5t-20 -12.5t-10 -7l-2 -1v1q-23 57 -52 118l-192 -106q-18 -10 -30 -10l-2 2q0 2 20 14z" />
    <glyph glyph-name="scircumflex" unicode="&#x15d;" horiz-adv-x="504" 
d="M82 110l-2 -26q0 -39 21.5 -67.5t68 -28.5t116 54.5t121 138t51.5 155.5q0 94 -52 94q-30 0 -68 -24t-72 -60q-60 -62 -88 -102q-4 -6 -8 -6t-4 3t2 7q150 208 264 208q46 0 74 -36t28 -89t-39 -119t-96 -118t-124.5 -87t-114 -35t-94 16t-48.5 42q0 13 26.5 48.5
t35.5 35.5q2 0 2 -4zM528 698q21 16 30 16t11 -6t27.5 -56.5t25.5 -76.5q0 -2 -12 -7.5t-20 -12.5t-10 -7l-2 -1v1q-23 57 -52 118l-192 -106q-18 -10 -30 -10l-2 2q0 2 20 14z" />
    <glyph glyph-name="Scedilla" unicode="&#x15e;" horiz-adv-x="752" 
d="M76 136q0 6 19 25t33.5 36.5l22 27t9.5 9.5q6 0 6 -4l-9 -14q-9 -14 -9 -26q0 -42 15.5 -75t39 -52.5t53.5 -32.5q51 -22 108 -22q115 0 187.5 73t72.5 147q0 80 -72 173l-62 77q-72 90 -72 158t54.5 127t130 91t143.5 32q82 0 132 -58q22 -26 22 -34t-7 -14
q-11 -9 -33.5 -24.5t-26 -15.5t-3.5 6q0 36 -42.5 66t-105.5 30q-90 0 -142 -49.5t-52 -112.5q0 -64 77 -153l64 -75q77 -91 77 -168.5t-66 -153.5t-161 -120t-183 -44q-58 0 -103 16q-45 18 -69 44q-48 52 -48 110zM312 0q0 -4 -54 -94q62 0 89 -27t27 -64.5t-34 -71
t-78.5 -33.5t-72 22t-27.5 40q0 3 10 7.5t16 4.5q2 0 9.5 -16t24 -32t44.5 -16t49 22t21 47t-10 38.5t-28 18.5q-29 8 -52.5 8t-27.5 -4t-11 -4t-7 2q0 4 14 26q48 75 78 126q2 2 11 2t9 -2z" />
    <glyph glyph-name="scedilla" unicode="&#x15f;" horiz-adv-x="504" 
d="M82 110l-2 -26q0 -39 21.5 -67.5t68 -28.5t116 54.5t121 138t51.5 155.5q0 94 -52 94q-30 0 -68 -24t-72 -60q-60 -62 -88 -102q-4 -6 -8 -6t-4 3t2 7q150 208 264 208q46 0 74 -36t28 -89t-39 -119t-96 -118t-124.5 -87t-114 -35t-94 16t-48.5 42q0 13 26.5 48.5
t35.5 35.5q2 0 2 -4zM176 -20q0 -4 -54 -94q62 0 89 -27t27 -64.5t-34 -71t-78.5 -33.5t-72 22t-27.5 40q0 3 10 7.5t16 4.5q2 0 9.5 -16t24 -32t44.5 -16t49 22t21 47t-10 38.5t-28 18.5q-29 8 -52.5 8t-27.5 -4t-11 -4t-7 2q0 4 14 26q48 75 78 126q2 2 11 2t9 -2z" />
    <glyph glyph-name="Scaron" unicode="&#x160;" horiz-adv-x="752" 
d="M76 136q0 6 19 25t33.5 36.5l22 27t9.5 9.5q6 0 6 -4l-9 -14q-9 -14 -9 -26q0 -42 15.5 -75t39 -52.5t53.5 -32.5q51 -22 108 -22q115 0 187.5 73t72.5 147q0 80 -72 173l-62 77q-72 90 -72 158t54.5 127t130 91t143.5 32q82 0 132 -58q22 -26 22 -34t-7 -14
q-11 -9 -33.5 -24.5t-26 -15.5t-3.5 6q0 36 -42.5 66t-105.5 30q-90 0 -142 -49.5t-52 -112.5q0 -64 77 -153l64 -75q77 -91 77 -168.5t-66 -153.5t-161 -120t-183 -44q-58 0 -103 16q-45 18 -69 44q-48 52 -48 110zM814 1044q-21 -16 -30 -16t-11 6t-27.5 56.5t-25.5 76.5
q0 2 12 7.5t20 12.5t10 7l2 1v-1q23 -57 52 -118l192 106q18 10 30 10l2 -2q0 -2 -20 -14z" />
    <glyph glyph-name="scaron" unicode="&#x161;" horiz-adv-x="504" 
d="M82 110l-2 -26q0 -39 21.5 -67.5t68 -28.5t116 54.5t121 138t51.5 155.5q0 94 -52 94q-30 0 -68 -24t-72 -60q-60 -62 -88 -102q-4 -6 -8 -6t-4 3t2 7q150 208 264 208q46 0 74 -36t28 -89t-39 -119t-96 -118t-124.5 -87t-114 -35t-94 16t-48.5 42q0 13 26.5 48.5
t35.5 35.5q2 0 2 -4zM488 592q-21 -16 -30 -16t-11 6t-27.5 56.5t-25.5 76.5q0 2 12 7.5t20 12.5t10 7l2 1v-1q23 -57 52 -118l192 106q18 10 30 10l2 -2q0 -2 -20 -14z" />
    <glyph glyph-name="Tcommaaccent" unicode="&#x162;" horiz-adv-x="728" 
d="M286 -2q-8 -8 -14 -12q-19 -13 -116 -14q-14 0 -14 6q0 2 7 4q27 10 43 34q105 139 246 390t198 422q-254 0 -342 -32q-41 -15 -50.5 -24.5t-11.5 -9.5q-6 0 -6 6t22 28q42 42 118 56t284 18q16 61 16 90.5t-4 46.5t-14 38q-22 43 -98 43q-53 0 -108 -26q-2 -1 -22 -15.5
t-29 -14.5t-9 6q0 14 50 36q63 30 128 30q94 0 143 -46t49 -126q0 -21 -12 -60q207 6 319 22q10 2 15 2t8.5 1t5.5 1h2q12 0 12 -3t-6 -7q-49 -33 -144.5 -43.5t-225.5 -14.5q-61 -159 -223 -456t-217 -376zM238 0q0 -4 -54 -94q62 0 89 -27t27 -64.5t-34 -71t-78.5 -33.5
t-72 22t-27.5 40q0 3 10 7.5t16 4.5q2 0 9.5 -16t24 -32t44.5 -16t49 22t21 47t-10 38.5t-28 18.5q-29 8 -52.5 8t-27.5 -4t-11 -4t-7 2q0 4 14 26q48 75 78 126q2 2 11 2t9 -2z" />
    <glyph glyph-name="tcommaaccent" unicode="&#x163;" horiz-adv-x="460" 
d="M120 396q0 4 5 8l30.5 21t124.5 29l162 300q12 25 34 45q20 21 40 21h3q17 0 17 -8t-50 -93t-138 -255l188 30q6 0 6 -2q0 -6 -14.5 -15t-22.5 -9t-169 -26l-96 -200q-54 -120 -54 -156t21 -59t53 -23q78 0 128.5 28t106 77t90 87.5t41 48t10.5 9.5t4 -3t-2 -7
q-48 -63 -100 -112.5t-90.5 -78.5t-96 -50t-116 -21t-92 26t-33.5 82t58 158l96 178q-126 -25 -132.5 -29.5t-9 -4.5t-2.5 4zM204 0q0 -4 -54 -94q62 0 89 -27t27 -64.5t-34 -71t-78.5 -33.5t-72 22t-27.5 40q0 3 10 7.5t16 4.5q2 0 9.5 -16t24 -32t44.5 -16t49 22t21 47
t-10 38.5t-28 18.5q-29 8 -52.5 8t-27.5 -4t-11 -4t-7 2q0 4 14 26q48 75 78 126q2 2 11 2t9 -2z" />
    <glyph glyph-name="Tcaron" unicode="&#x164;" horiz-adv-x="728" 
d="M286 -2q-8 -8 -14 -12q-19 -13 -116 -14q-14 0 -14 6q0 2 7 4q27 10 43 34q105 139 246 390t198 422q-254 0 -342 -32q-41 -15 -50.5 -24.5t-11.5 -9.5q-6 0 -6 6t22 28q42 42 118 56t284 18q16 61 16 90.5t-4 46.5t-14 38q-22 43 -98 43q-53 0 -108 -26q-2 -1 -22 -15.5
t-29 -14.5t-9 6q0 14 50 36q63 30 128 30q94 0 143 -46t49 -126q0 -21 -12 -60q207 6 319 22q10 2 15 2t8.5 1t5.5 1h2q12 0 12 -3t-6 -7q-49 -33 -144.5 -43.5t-225.5 -14.5q-61 -159 -223 -456t-217 -376zM774 1104q-21 -16 -30 -16t-11 6t-27.5 56.5t-25.5 76.5
q0 2 12 7.5t20 12.5t10 7l2 1v-1q23 -57 52 -118l192 106q18 10 30 10l2 -2q0 -2 -20 -14z" />
    <glyph glyph-name="tcaron" unicode="&#x165;" horiz-adv-x="460" 
d="M120 396q0 4 5 8l30.5 21t124.5 29l162 300q12 25 34 45q20 21 40 21h3q17 0 17 -8t-50 -93t-138 -255l188 30q6 0 6 -2q0 -6 -14.5 -15t-22.5 -9t-169 -26l-96 -200q-54 -120 -54 -156t21 -59t53 -23q78 0 128.5 28t106 77t90 87.5t41 48t10.5 9.5t4 -3t-2 -7
q-48 -63 -100 -112.5t-90.5 -78.5t-96 -50t-116 -21t-92 26t-33.5 82t58 158l96 178q-126 -25 -132.5 -29.5t-9 -4.5t-2.5 4zM698 816q32 0 32 -72q-1 -37 -27.5 -78.5t-60 -71t-61 -49t-33.5 -19.5t-6 4t1.5 5t5.5 3t7 4q49 32 87.5 75t38.5 87q0 26 -17 53.5t-17 30.5
q0 9 21 18.5t29 9.5z" />
    <glyph glyph-name="Tbar" unicode="&#x166;" horiz-adv-x="728" 
d="M286 -2q-8 -8 -14 -12q-19 -13 -116 -14q-14 0 -14 6q0 2 7 4q27 10 43 34q105 139 246 390t198 422q-254 0 -342 -32q-41 -15 -50.5 -24.5t-11.5 -9.5q-6 0 -6 6t22 28q42 42 118 56t284 18q16 61 16 90.5t-4 46.5t-14 38q-22 43 -98 43q-53 0 -108 -26q-2 -1 -22 -15.5
t-29 -14.5t-9 6q0 14 50 36q63 30 128 30q94 0 143 -46t49 -126q0 -21 -12 -60q207 6 319 22q10 2 15 2t8.5 1t5.5 1h2q12 0 12 -3t-6 -7q-49 -33 -144.5 -43.5t-225.5 -14.5q-61 -159 -223 -456t-217 -376zM852 696q4 0 4 -5t-36 -25q-29 -18 -36 -18q-48 -1 -176 -2
t-224 -6q-4 0 -4 2q0 6 32 26t44 20q176 8 396 8z" />
    <glyph glyph-name="tbar" unicode="&#x167;" horiz-adv-x="460" 
d="M274 314q-88 -184 -88 -224t21 -63t53 -23q78 0 128.5 28t106 77t90 87.5t41 48t10.5 9.5t4 -3t-2 -7q-48 -63 -100 -112.5t-90.5 -78.5t-96 -50t-116 -21t-92 26t-33.5 82t58 158l26 48q-21 -5 -52 -10q-32 -6 -42 -9q-24 -7 -33 -7t-9 4t16 13t20 10t22 5q50 11 90 18
l58 106q-70 -14 -95.5 -20t-34 -6t-8.5 2.5t5.5 6.5t13.5 8.5t11 6.5q19 12 124 30l162 300q12 25 34 45q20 21 40 21h3q17 0 17 -8t-50 -93t-138 -255l188 30q6 0 6 -2q0 -6 -14.5 -15t-22.5 -9t-169 -26l-52 -106q140 28 170 28q10 0 10 -10q0 -5 -12.5 -10.5t-19.5 -5.5
q-45 0 -158 -24z" />
    <glyph glyph-name="Utilde" unicode="&#x168;" horiz-adv-x="1016" 
d="M548.5 858q33.5 -28 33.5 -66.5t-29.5 -102t-71.5 -135.5l-84 -144q-101 -174 -101 -252q0 -63 32.5 -94.5t82.5 -31.5t106 26q57 26 109 70q93 78 172 174q102 219 156 314.5t124 183.5q47 58 82 58q12 0 12 -8q0 -48 -198 -348q-24 -36 -26 -38q-45 -68 -98.5 -197
t-53.5 -195q0 -21 13 -31.5t50.5 -10.5t101 34t109 71t76 68.5t38.5 44.5q4 6 8 6t4 -3t-2 -7q-59 -72 -116 -119.5t-136.5 -90t-149.5 -42.5q-37 0 -54.5 20t-17.5 52q0 52 46 156l-92 -85q-36 -30 -92 -71q-110 -80 -216 -80q-73 0 -118.5 42t-45.5 114q0 53 46 154
q46 102 102 194q148 244 148 292q0 78 -80 78q-46 0 -83.5 -16.5t-69 -48t-35.5 -31.5t-4 6t22 28q87 90 206 90q61 0 94.5 -28zM838 1128q21 0 39 -15t28.5 -33t27.5 -33t37 -15q35 0 92 70q19 24 22.5 24t3.5 -4q0 -19 -57.5 -71.5t-104.5 -52.5q-23 0 -41.5 15t-28.5 33
q-28 48 -62.5 48t-91.5 -70q-19 -24 -22.5 -24t-3.5 4q0 19 57.5 71.5t104.5 52.5z" />
    <glyph glyph-name="utilde" unicode="&#x169;" horiz-adv-x="642" 
d="M761 186q30 34 41.5 51t15.5 17t4 -3t-2 -7q-59 -95 -172 -179.5t-212 -84.5q-52 0 -52 46q0 30 16 72q-62 -46 -132.5 -80t-123.5 -34q-24 0 -47 15t-23 51.5t80 177t80 168.5t-30.5 28t-69.5 -26q-9 -6 -11.5 -6t-2.5 4t6 8q64 44 110 44q66 0 66 -58q0 -30 -76 -164.5
t-76 -158.5t17 -33.5t37 -9.5q51 0 114 40.5t98 77.5q22 48 78 148.5t70 117.5q35 38 64 38q8 0 8 -12t-46.5 -94.5t-103.5 -155.5q-34 -74 -34 -126q0 -16 9 -27t23 -11q50 0 104.5 26.5t98.5 66t74 73.5zM446 676q21 0 39 -15t28.5 -33t27.5 -33t37 -15q35 0 92 70
q19 24 22.5 24t3.5 -4q0 -19 -57.5 -71.5t-104.5 -52.5q-23 0 -41.5 15t-28.5 33q-28 48 -62.5 48t-91.5 -70q-19 -24 -22.5 -24t-3.5 4q0 19 57.5 71.5t104.5 52.5z" />
    <glyph glyph-name="Umacron" unicode="&#x16a;" horiz-adv-x="1016" 
d="M548.5 858q33.5 -28 33.5 -66.5t-29.5 -102t-71.5 -135.5l-84 -144q-101 -174 -101 -252q0 -63 32.5 -94.5t82.5 -31.5t106 26q57 26 109 70q93 78 172 174q102 219 156 314.5t124 183.5q47 58 82 58q12 0 12 -8q0 -48 -198 -348q-24 -36 -26 -38q-45 -68 -98.5 -197
t-53.5 -195q0 -21 13 -31.5t50.5 -10.5t101 34t109 71t76 68.5t38.5 44.5q4 6 8 6t4 -3t-2 -7q-59 -72 -116 -119.5t-136.5 -90t-149.5 -42.5q-37 0 -54.5 20t-17.5 52q0 52 46 156l-92 -85q-36 -30 -92 -71q-110 -80 -216 -80q-73 0 -118.5 42t-45.5 114q0 53 46 154
q46 102 102 194q148 244 148 292q0 78 -80 78q-46 0 -83.5 -16.5t-69 -48t-35.5 -31.5t-4 6t22 28q87 90 206 90q61 0 94.5 -28zM1002 1052l-282 2q-14 0 -14 14t8 14l330 -2q16 0 16 -10q0 -18 -58 -18z" />
    <glyph glyph-name="umacron" unicode="&#x16b;" horiz-adv-x="642" 
d="M761 186q30 34 41.5 51t15.5 17t4 -3t-2 -7q-59 -95 -172 -179.5t-212 -84.5q-52 0 -52 46q0 30 16 72q-62 -46 -132.5 -80t-123.5 -34q-24 0 -47 15t-23 51.5t80 177t80 168.5t-30.5 28t-69.5 -26q-9 -6 -11.5 -6t-2.5 4t6 8q64 44 110 44q66 0 66 -58q0 -30 -76 -164.5
t-76 -158.5t17 -33.5t37 -9.5q51 0 114 40.5t98 77.5q22 48 78 148.5t70 117.5q35 38 64 38q8 0 8 -12t-46.5 -94.5t-103.5 -155.5q-34 -74 -34 -126q0 -16 9 -27t23 -11q50 0 104.5 26.5t98.5 66t74 73.5zM610 600l-282 2q-14 0 -14 14t8 14l330 -2q16 0 16 -10
q0 -18 -58 -18z" />
    <glyph glyph-name="Ubreve" unicode="&#x16c;" horiz-adv-x="1016" 
d="M548.5 858q33.5 -28 33.5 -66.5t-29.5 -102t-71.5 -135.5l-84 -144q-101 -174 -101 -252q0 -63 32.5 -94.5t82.5 -31.5t106 26q57 26 109 70q93 78 172 174q102 219 156 314.5t124 183.5q47 58 82 58q12 0 12 -8q0 -48 -198 -348q-24 -36 -26 -38q-45 -68 -98.5 -197
t-53.5 -195q0 -21 13 -31.5t50.5 -10.5t101 34t109 71t76 68.5t38.5 44.5q4 6 8 6t4 -3t-2 -7q-59 -72 -116 -119.5t-136.5 -90t-149.5 -42.5q-37 0 -54.5 20t-17.5 52q0 52 46 156l-92 -85q-36 -30 -92 -71q-110 -80 -216 -80q-73 0 -118.5 42t-45.5 114q0 53 46 154
q46 102 102 194q148 244 148 292q0 78 -80 78q-46 0 -83.5 -16.5t-69 -48t-35.5 -31.5t-4 6t22 28q87 90 206 90q61 0 94.5 -28zM836 1174q-10 -26 -10 -51.5t22.5 -44t55.5 -18.5q84 0 144 88q5 5 22 15.5t26 10.5h2q0 -8 -34 -41.5t-93.5 -67t-108 -33.5t-66.5 21.5
t-18 45.5t10 51q3 7 20 16.5t26 9.5z" />
    <glyph glyph-name="ubreve" unicode="&#x16d;" horiz-adv-x="642" 
d="M761 186q30 34 41.5 51t15.5 17t4 -3t-2 -7q-59 -95 -172 -179.5t-212 -84.5q-52 0 -52 46q0 30 16 72q-62 -46 -132.5 -80t-123.5 -34q-24 0 -47 15t-23 51.5t80 177t80 168.5t-30.5 28t-69.5 -26q-9 -6 -11.5 -6t-2.5 4t6 8q64 44 110 44q66 0 66 -58q0 -30 -76 -164.5
t-76 -158.5t17 -33.5t37 -9.5q51 0 114 40.5t98 77.5q22 48 78 148.5t70 117.5q35 38 64 38q8 0 8 -12t-46.5 -94.5t-103.5 -155.5q-34 -74 -34 -126q0 -16 9 -27t23 -11q50 0 104.5 26.5t98.5 66t74 73.5zM444 722q-10 -26 -10 -51.5t22.5 -44t55.5 -18.5q84 0 144 88
q5 5 22 15.5t26 10.5h2q0 -8 -34 -41.5t-93.5 -67t-108 -33.5t-66.5 21.5t-18 45.5t10 51q3 7 20 16.5t26 9.5z" />
    <glyph glyph-name="Uring" unicode="&#x16e;" horiz-adv-x="1016" 
d="M548.5 858q33.5 -28 33.5 -66.5t-29.5 -102t-71.5 -135.5l-84 -144q-101 -174 -101 -252q0 -63 32.5 -94.5t82.5 -31.5t106 26q57 26 109 70q93 78 172 174q102 219 156 314.5t124 183.5q47 58 82 58q12 0 12 -8q0 -48 -198 -348q-24 -36 -26 -38q-45 -68 -98.5 -197
t-53.5 -195q0 -21 13 -31.5t50.5 -10.5t101 34t109 71t76 68.5t38.5 44.5q4 6 8 6t4 -3t-2 -7q-59 -72 -116 -119.5t-136.5 -90t-149.5 -42.5q-37 0 -54.5 20t-17.5 52q0 52 46 156l-92 -85q-36 -30 -92 -71q-110 -80 -216 -80q-73 0 -118.5 42t-45.5 114q0 53 46 154
q46 102 102 194q148 244 148 292q0 78 -80 78q-46 0 -83.5 -16.5t-69 -48t-35.5 -31.5t-4 6t22 28q87 90 206 90q61 0 94.5 -28zM919.5 1138q-16.5 20 -43.5 20t-45.5 -23.5t-18.5 -50t17.5 -44.5t42 -18t44.5 21t20 48t-16.5 47zM778 1068q0 46 36 80t76 34t61 -19t21 -56
t-35 -72t-74.5 -35t-62 19t-22.5 49z" />
    <glyph glyph-name="uring" unicode="&#x16f;" horiz-adv-x="642" 
d="M761 186q30 34 41.5 51t15.5 17t4 -3t-2 -7q-59 -95 -172 -179.5t-212 -84.5q-52 0 -52 46q0 30 16 72q-62 -46 -132.5 -80t-123.5 -34q-24 0 -47 15t-23 51.5t80 177t80 168.5t-30.5 28t-69.5 -26q-9 -6 -11.5 -6t-2.5 4t6 8q64 44 110 44q66 0 66 -58q0 -30 -76 -164.5
t-76 -158.5t17 -33.5t37 -9.5q51 0 114 40.5t98 77.5q22 48 78 148.5t70 117.5q35 38 64 38q8 0 8 -12t-46.5 -94.5t-103.5 -155.5q-34 -74 -34 -126q0 -16 9 -27t23 -11q50 0 104.5 26.5t98.5 66t74 73.5zM527.5 686q-16.5 20 -43.5 20t-45.5 -23.5t-18.5 -50t17.5 -44.5
t42 -18t44.5 21t20 48t-16.5 47zM386 616q0 46 36 80t76 34t61 -19t21 -56t-35 -72t-74.5 -35t-62 19t-22.5 49z" />
    <glyph glyph-name="Uhungarumlaut" unicode="&#x170;" horiz-adv-x="1016" 
d="M548.5 858q33.5 -28 33.5 -66.5t-29.5 -102t-71.5 -135.5l-84 -144q-101 -174 -101 -252q0 -63 32.5 -94.5t82.5 -31.5t106 26q57 26 109 70q93 78 172 174q102 219 156 314.5t124 183.5q47 58 82 58q12 0 12 -8q0 -48 -198 -348q-24 -36 -26 -38q-45 -68 -98.5 -197
t-53.5 -195q0 -21 13 -31.5t50.5 -10.5t101 34t109 71t76 68.5t38.5 44.5q4 6 8 6t4 -3t-2 -7q-59 -72 -116 -119.5t-136.5 -90t-149.5 -42.5q-37 0 -54.5 20t-17.5 52q0 52 46 156l-92 -85q-36 -30 -92 -71q-110 -80 -216 -80q-73 0 -118.5 42t-45.5 114q0 53 46 154
q46 102 102 194q148 244 148 292q0 78 -80 78q-46 0 -83.5 -16.5t-69 -48t-35.5 -31.5t-4 6t22 28q87 90 206 90q61 0 94.5 -28zM962 1166q9 6 16 6q4 0 4 -8t-7 -18q-7 -11 -15 -16l-132 -73l-72 -42q-30 -17 -36 -17t-6 4zM850 1014l238 138q9 6 16 6q4 0 4 -8t-6.5 -20.5
t-13.5 -15.5l-96 -44q-152 -72 -158 -72t-6 1.5t22 14.5z" />
    <glyph glyph-name="uhungarumlaut" unicode="&#x171;" horiz-adv-x="642" 
d="M761 186q30 34 41.5 51t15.5 17t4 -3t-2 -7q-59 -95 -172 -179.5t-212 -84.5q-52 0 -52 46q0 30 16 72q-62 -46 -132.5 -80t-123.5 -34q-24 0 -47 15t-23 51.5t80 177t80 168.5t-30.5 28t-69.5 -26q-9 -6 -11.5 -6t-2.5 4t6 8q64 44 110 44q66 0 66 -58q0 -30 -76 -164.5
t-76 -158.5t17 -33.5t37 -9.5q51 0 114 40.5t98 77.5q22 48 78 148.5t70 117.5q35 38 64 38q8 0 8 -12t-46.5 -94.5t-103.5 -155.5q-34 -74 -34 -126q0 -16 9 -27t23 -11q50 0 104.5 26.5t98.5 66t74 73.5zM570 714q9 6 16 6q4 0 4 -8t-7 -18q-7 -11 -15 -16l-132 -73
l-72 -42q-30 -17 -36 -17t-6 4zM458 562l238 138q9 6 16 6q4 0 4 -8t-6.5 -20.5t-13.5 -15.5l-96 -44q-152 -72 -158 -72t-6 1.5t22 14.5z" />
    <glyph glyph-name="Uogonek" unicode="&#x172;" horiz-adv-x="1016" 
d="M548.5 858q33.5 -28 33.5 -66.5t-29.5 -102t-71.5 -135.5l-84 -144q-101 -174 -101 -252q0 -63 32.5 -94.5t82.5 -31.5t106 26q57 26 109 70q93 78 172 174q102 219 156 314.5t124 183.5q47 58 82 58q12 0 12 -8q0 -48 -198 -348q-24 -36 -26 -38q-45 -68 -98.5 -197
t-53.5 -195q0 -21 13 -31.5t50.5 -10.5t101 34t109 71t76 68.5t38.5 44.5q4 6 8 6t4 -3t-2 -7q-59 -72 -116 -119.5t-136.5 -90t-149.5 -42.5q-37 0 -54.5 20t-17.5 52q0 52 46 156l-92 -85q-36 -30 -92 -71q-110 -80 -216 -80q-73 0 -118.5 42t-45.5 114q0 53 46 154
q46 102 102 194q148 244 148 292q0 78 -80 78q-46 0 -83.5 -16.5t-69 -48t-35.5 -31.5t-4 6t22 28q87 90 206 90q61 0 94.5 -28zM338 -19.5q49 25.5 51.5 25.5t2.5 -4q0 -3 -34 -22t-40 -22q-84 -54 -84 -110q0 -24 18.5 -41t38 -17t33.5 4l14 4q8 0 8 -2t-16 -8
q-42 -14 -72 -14q-86 0 -86 56q0 27 19.5 52t39 38t39 24t68.5 36.5z" />
    <glyph glyph-name="uogonek" unicode="&#x173;" horiz-adv-x="642" 
d="M761 186q30 34 41.5 51t15.5 17t4 -3t-2 -7q-59 -95 -172 -179.5t-212 -84.5q-52 0 -52 46q0 30 16 72q-62 -46 -132.5 -80t-123.5 -34q-24 0 -47 15t-23 51.5t80 177t80 168.5t-30.5 28t-69.5 -26q-9 -6 -11.5 -6t-2.5 4t6 8q64 44 110 44q66 0 66 -58q0 -30 -76 -164.5
t-76 -158.5t17 -33.5t37 -9.5q51 0 114 40.5t98 77.5q22 48 78 148.5t70 117.5q35 38 64 38q8 0 8 -12t-46.5 -94.5t-103.5 -155.5q-34 -74 -34 -126q0 -16 9 -27t23 -11q50 0 104.5 26.5t98.5 66t74 73.5zM394 -19.5q49 25.5 51.5 25.5t2.5 -4q0 -3 -34 -22t-40 -22
q-84 -54 -84 -110q0 -24 18.5 -41t38 -17t33.5 4l14 4q8 0 8 -2t-16 -8q-42 -14 -72 -14q-86 0 -86 56q0 27 19.5 52t39 38t39 24t68.5 36.5z" />
    <glyph glyph-name="Wcircumflex" unicode="&#x174;" horiz-adv-x="1202" 
d="M442 888q126 0 126 -112q0 -44 -24.5 -98t-43 -89.5t-56.5 -101.5l-69 -118l-195 -329q136 133 294 226q99 58 160 58q34 0 46.5 -8t16.5 -11t8.5 -9.5l6.5 -9.5t5 -11t3.5 -10t8 -27.5t17.5 -69t15.5 -69.5t15.5 -55q10 -28 22 -44q27 -36 88 -36t116 38.5t87 94
t54 121.5q36 113 36 202q0 110 -38 221q-22 64 -54.5 114.5t-88 84.5t-126.5 34t-115 -28q-13 -8 -27.5 -8t-14.5 10q-3 9 18 20q61 26 145.5 26t151.5 -28.5t107 -73t66 -104.5q46 -103 46 -232q0 -150 -60 -277q-32 -67 -76 -119t-110 -84t-132 -32h-5q-63 0 -99 16
q-38 16 -59 32t-39 60.5t-23.5 67.5t-12.5 59q-6 37 -10 53q-8 38 -41.5 38t-106 -41.5t-134 -88.5l-124.5 -97.5t-66 -52.5q-22 -14 -70 -14q-12 0 -12 16q0 6 19.5 44t118 209.5l131.5 228.5l61 108t53 110t25 87.5t-21 49.5t-61 21q-74 0 -142 -68q-20 -20 -22 -20
q-6 0 -6 6t22 28q45 47 98.5 69.5t95.5 22.5zM902 1150q21 16 30 16t11 -6t27.5 -56.5t25.5 -76.5q0 -2 -12 -7.5t-20 -12.5t-10 -7l-2 -1v1q-23 57 -52 118l-192 -106q-18 -10 -30 -10l-2 2q0 2 20 14z" />
    <glyph glyph-name="wcircumflex" unicode="&#x175;" horiz-adv-x="758" 
d="M898 406q0 -4 -3.5 -6.5t-19 -12.5l-23.5 -15t-25.5 -15t-30.5 -16q-13 -7 -30 -13q-33 -12 -59 -12t-47 6q10 -47 10 -104t-24 -110q-24 -54 -58 -80q-95 -52 -115 -52h-3q-56 0 -70 35q-12 30 -12 79q0 132 -26 132q-18 0 -91.5 -59t-97 -80.5t-35.5 -34l-20 -20.5
t-18 -16q-18 -16 -28 -16q-16 0 -16 24q0 68 140 284q66 101 66 118q0 6 -7 13t-15 7q-40 0 -106 -44q-9 -6 -11.5 -6t-2.5 4t5 8t26.5 18.5t58 32t63 17.5t43 -15.5t16.5 -41.5t-30 -73l-82.5 -125.5t-87.5 -148.5q53 56 140.5 128t127.5 72q52 0 52 -162q0 -78 20 -96
q10 -8 26 -8q53 0 83.5 59t30.5 142t-40 181q-7 7 -23.5 27.5t-16.5 28.5q0 12 25 25t32.5 13t23.5 -26.5t27 -55.5q50 -50 106 -50q20 0 32.5 4t19.5 6t16.5 7t15.5 7.5t15.5 8.5t13.5 9q3 2 13 8q20 14 23 14t3 -4zM518 698q21 16 30 16t11 -6t27.5 -56.5t25.5 -76.5
q0 -2 -12 -7.5t-20 -12.5t-10 -7l-2 -1v1q-23 57 -52 118l-192 -106q-18 -10 -30 -10l-2 2q0 2 20 14z" />
    <glyph glyph-name="Ycircumflex" unicode="&#x176;" horiz-adv-x="1016" 
d="M582 -168q-250 -125 -382 -219q-152 -109 -229 -207q-42 -54 -69.5 -117.5t-27.5 -117.5q0 -107 92 -107q203 0 382 330q166 297 234 438zM944 464q-55 -90 -140 -285t-128 -275q234 110 402 238q37 30 67.5 61.5t38.5 44.5q4 6 8 6t4 -3t-2 -7q-60 -75 -119.5 -124
t-175.5 -118.5t-241 -131.5q-83 -166 -262 -468q-76 -126 -184 -234q-60 -60 -132 -97t-147.5 -37t-116 36.5t-40.5 99t33 128t83.5 121.5t126.5 115.5t145.5 103.5t158.5 93q120 66 277 139l166 350q-115 -108 -159 -143q-122 -93 -229 -93q-74 0 -119 40t-45 112
q0 54 44.5 156t98.5 195q143 246 143 293q0 35 -20.5 56.5t-64 21.5t-81 -16.5t-80.5 -59.5q-5 -5 -10 -11q-9 -11 -12 -11q-6 0 -6 7t22 29q87 90 206 90q60 0 93 -28.5t33 -71.5q0 -49 -136 -286q-51 -89 -93.5 -189t-42.5 -159.5t32 -89.5t84 -30q150 0 374 270
l53.5 115.5l46.5 100l36.5 76.5t35.5 70.5l30 53.5q30 53 56 85q26 31 32 37q18 18 35 18t17 -8q0 -36 -78.5 -181t-117.5 -205zM908 1150q21 16 30 16t11 -6t27.5 -56.5t25.5 -76.5q0 -2 -12 -7.5t-20 -12.5t-10 -7l-2 -1v1q-23 57 -52 118l-192 -106q-18 -10 -30 -10l-2 2
q0 2 20 14z" />
    </font>
</defs>
</svg>
